<?xml version="1.0" encoding="utf-8" ?>
<svg xmlns="http://www.w3.org/2000/svg" xmlns:ev="http://www.w3.org/2001/xml-events" xmlns:xlink="http://www.w3.org/1999/xlink" baseProfile="full" height="512" version="1.1" width="512">
  <defs>
    <mask id="iconmask">
      <rect fill="white" height="512" rx="64" ry="64" width="512" x="0" y="0"/>
      <path d="m 519.05 236.11 c 0 -11.531 9.375 -20.906 20.906 -20.906 h 120.05 c 11.531 0 20.906 9.375 20.906 20.906 s -9.375 20.906 -20.906 20.906 h -120.05 c -11.531 0 -20.906 -9.375 -20.906 -20.906 z m -159.98 80.625 c 0 7.0781 5.7656 12.844 12.844 12.844 h 38.156 c 7.0781 0 12.844 -5.7656 12.844 -12.844 s -5.7656 -12.844 -12.844 -12.844 h -38.156 c -7.0781 0 -12.844 5.7656 -12.844 12.844 z m 497.53 -66.891 c 2.4375 2.4375 5.6719 3.75 9.0938 3.75 s 6.6562 -1.3125 9.0938 -3.75 3.75 -5.6719 3.75 -9.0938 -1.3125 -6.6562 -3.75 -9.0938 l -27 -27 c -2.4375 -2.4375 -5.6719 -3.75 -9.0938 -3.75 s -6.6562 1.3125 -9.0938 3.75 -3.75 5.6719 -3.75 9.0938 1.3125 6.6562 3.75 9.0938 z m 161.16 3.7031 c 3.4219 0 6.6562 -1.3125 9.0938 -3.75 l 27 -27 c 2.4375 -2.4375 3.75 -5.6719 3.75 -9.0938 s -1.3125 -6.6562 -3.75 -9.0938 -5.6719 -3.75 -9.0938 -3.75 -6.6562 1.3594 -9.0938 3.75 l -27 27 c -2.4375 2.4375 -3.75 5.6719 -3.75 9.0938 s 1.3125 6.6562 3.75 9.0938 5.6719 3.75 9.0938 3.75 z m -76.031 -31.453 c 7.0781 0 12.844 -5.7656 12.844 -12.844 v -38.156 c 0 -7.0781 -5.7656 -12.844 -12.844 -12.844 s -12.844 5.7656 -12.844 12.844 v 38.156 c 0 7.0781 5.7656 12.844 12.844 12.844 z m 94.734 94.641 c 0 7.0781 5.7656 12.844 12.844 12.844 h 38.156 c 7.0781 0 12.844 -5.7656 12.844 -12.844 s -5.7656 -12.844 -12.844 -12.844 h -38.156 c -7.0781 0 -12.844 5.7656 -12.844 12.844 z m -240.42 12.891 h 38.156 c 7.0781 0 12.844 -5.7656 12.844 -12.844 s -5.7656 -12.844 -12.844 -12.844 h -38.156 c -7.0781 0 -12.844 5.7656 -12.844 12.844 s 5.7656 12.844 12.844 12.844 z m -531.71 -107.53 c 7.0781 0 12.844 -5.7656 12.844 -12.844 v -38.156 c 0 -7.0781 -5.7656 -12.844 -12.844 -12.844 s -12.844 5.7656 -12.844 12.844 v 38.156 c 0 7.0781 5.7656 12.844 12.844 12.844 z m -145.69 107.53 h 38.156 c 7.0781 0 12.844 -5.7656 12.844 -12.844 s -5.7656 -12.844 -12.844 -12.844 h -38.156 c -7.0781 0 -12.844 5.7656 -12.844 12.844 s 5.7656 12.844 12.844 12.844 z m 221.72 -76.078 c 3.4219 0 6.6562 -1.3125 9.0938 -3.75 l 27 -27 c 2.4375 -2.4375 3.75 -5.6719 3.75 -9.0938 s -1.3125 -6.6562 -3.75 -9.0938 -5.6719 -3.75 -9.0938 -3.75 -6.6562 1.3594 -9.0938 3.75 l -27 27 c -2.4375 2.4375 -3.75 5.6719 -3.75 9.0938 s 1.3125 6.6562 3.75 9.0938 5.6719 3.75 9.0938 3.75 z m -161.16 -3.7031 c 2.4375 2.4375 5.6719 3.75 9.0938 3.75 s 6.6562 -1.3125 9.0938 -3.75 3.75 -5.6719 3.75 -9.0938 -1.3125 -6.6562 -3.75 -9.0938 l -27 -27 c -2.4375 -2.4375 -5.6719 -3.75 -9.0938 -3.75 s -6.6562 1.3125 -9.0938 3.75 -3.75 5.6719 -3.75 9.0938 1.3125 6.6562 3.75 9.0938 z m 934.36 240.79 v 252.24 c 0 25.031 -20.344 45.375 -45.375 45.375 h -45.844 v 233.9 l 2.7188 1.0781 c 17.156 6.7031 28.688 23.531 28.688 41.906 v 54.938 c 0 7.0781 -5.7656 12.844 -12.844 12.844 h -210.56 c -7.0781 0 -12.844 -5.7656 -12.844 -12.844 v -54.938 c 0 -18.375 11.531 -35.203 28.688 -41.906 l 2.7188 -1.0781 v -233.9 h -497.86 v 233.9 l 2.7188 1.0781 c 17.156 6.7031 28.688 23.531 28.688 41.906 v 54.938 c 0 7.0781 -5.7656 12.844 -12.844 12.844 l -210.52 -0.09375 c -7.0781 0 -12.844 -5.7656 -12.844 -12.844 v -54.938 c 0 -18.375 11.531 -35.203 28.688 -41.906 l 2.7188 -1.0781 v -233.9 h -45.844 c -25.031 0 -45.375 -20.344 -45.375 -45.375 v -252.24 c 0 -25.031 20.344 -45.375 45.375 -45.375 h 43.172 v -56.438 c 0 -7.0781 5.7656 -12.844 12.844 -12.844 h 6.3281 l 10.781 -93 c 2.2031 -18.891 18.188 -33.188 37.219 -33.188 h 44.391 c 19.031 0 35.016 14.25 37.219 33.188 l 10.781 93 h 6.3281 c 7.0781 0 12.844 5.7656 12.844 12.844 v 56.438 h 172.55 v -57.188 l -2.3438 -1.1719 c -57.281 -29.016 -92.859 -86.812 -92.859 -150.74 0 -93.188 75.797 -168.98 168.98 -168.98 s 168.98 75.797 168.98 168.98 c 0 63.984 -35.578 121.74 -92.859 150.74 l -2.3438 1.1719 v 57.188 h 178.6 v -56.438 c 0 -7.0781 5.7656 -12.844 12.844 -12.844 h 6.3281 l 10.781 -93 c 2.2031 -18.891 18.188 -33.188 37.219 -33.188 h 44.391 c 19.031 0 35.016 14.25 37.219 33.188 l 10.781 93 h 6.3281 c 7.0781 0 12.844 5.7656 12.844 12.844 v 56.438 h 37.125 c 25.031 0 45.375 20.344 45.375 45.375 z m -620.16 -254.53 c 0 25.688 20.906 46.594 46.594 46.594 h 120.05 c 25.688 0 46.594 -20.906 46.594 -46.594 s -20.906 -46.594 -46.594 -46.594 h -120.05 c -25.688 0 -46.594 20.906 -46.594 46.594 z m 58.5 209.16 h 96.188 v -47.109 l -5.3438 1.4062 c -13.922 3.6562 -28.312 5.4844 -42.75 5.4844 s -28.828 -1.8281 -42.75 -5.4844 l -5.3438 -1.4062 z m -351.24 -2.4375 h 127.31 v -41.109 h -127.31 z m 124.74 345.42 h -122.06 v 231.89 h 122.06 z m 98.578 -171.47 -65.812 -90.469 h -88.594 v 180.94 h 88.594 z m 177.19 0 -65.812 -90.469 h -88.594 l 65.812 90.469 -65.812 90.469 h 88.594 z m 177.19 0 -65.812 -90.469 h -88.594 l 65.812 90.469 -65.812 90.469 h 88.594 z m 103.45 90.469 65.812 -90.469 -65.812 -90.469 h -88.594 l 65.812 90.469 -65.812 90.469 z m 114.84 81 h -122.06 v 231.89 h 122.06 z m 8.7656 -386.53 h -127.31 v 41.109 h 127.31 z" fill="black" transform="translate(64.0,64.0) scale(0.3002355676410796)"/>
    </mask>
  </defs>
  <rect fill="black" height="512" mask="url(#iconmask)" rx="64" ry="64" width="512" x="0" y="0"/>
</svg>
