<?xml version="1.0" encoding="utf-8" ?>
<svg xmlns="http://www.w3.org/2000/svg" xmlns:ev="http://www.w3.org/2001/xml-events" xmlns:xlink="http://www.w3.org/1999/xlink" baseProfile="full" height="512" version="1.1" width="512">
  <defs>
    <mask id="iconmask">
      <rect fill="white" height="512" rx="64" ry="64" width="512" x="0" y="0"/>
      <path d="M 159.572,69.195 l -16.276,40.442 c -0.882,1.532 -1.948,2.97 -3.199,4.219 l -21.844,18.412 l 0,18.276 c 0,2.412 -1.672,4.541 -4.083,5.052 l -19.338,4.265 c -1.579,0.328 -3.198,-0.046 -4.407,-1.066 c -1.249,-1.016 -1.948,-2.548 -1.901,-4.126 l 0.881,-32.604 c 0.187,-7.792 3.339,-15.12 8.905,-20.636 l 21.287,-21.286 c 1.344,-1.348 3.245,-2.135 5.193,-2.088 c 1.812,0.046 3.432,0.786 4.547,2.041 c 1.068,1.203 1.667,2.735 1.667,4.36 c -0,1.76 -0.694,3.385 -1.902,4.635 l -15.765,15.77 c -1.344,1.344 -1.344,3.48 0,4.823 c 1.344,1.344 3.479,1.344 4.823,0 l 15.765,-15.771 c 3.667,-3.661 4.871,-9.088 3.156,-14.005 l 13.125,-16.228 c 2.042,-2.552 5.844,-2.74 8.162,-0.417 c 1.578,1.573 2.042,3.89 1.204,5.932 Z m -157.959,-5.932 c 2.323,-2.323 6.126,-2.135 8.162,0.417 l 13.125,16.228 c -1.713,4.917 -0.511,10.344 3.156,14.005 l 15.765,15.772 c 1.35,1.343 3.48,1.343 4.823,0 c 1.349,-1.344 1.349,-3.48 -0,-4.824 l -15.765,-15.77 c -1.208,-1.25 -1.902,-2.875 -1.902,-4.635 c 0,-1.625 0.604,-3.157 1.667,-4.36 c 1.115,-1.255 2.74,-1.995 4.547,-2.041 c 1.948,-0.047 3.849,0.74 5.193,2.088 l 21.287,21.286 c 5.567,5.516 8.718,12.844 8.906,20.636 l 0.88,32.604 c 0.047,1.578 -0.647,3.11 -1.901,4.126 c -1.203,1.02 -2.828,1.394 -4.407,1.066 l -19.338,-4.265 c -2.411,-0.511 -4.078,-2.64 -4.078,-5.052 l 0,-18.276 l -21.844,-18.412 c -1.254,-1.249 -2.322,-2.687 -3.202,-4.219 l -16.276,-40.442 c -0.839,-2.042 -0.371,-4.359 1.202,-5.932 Z m 92.432,26.989 c -0.281,0.88 -0.839,1.625 -1.577,2.131 c -0.652,0.421 -1.439,0.65 -2.183,0.65 c -0.371,0 -0.787,-0.046 -1.109,-0.14 c -2.09,-0.552 -3.298,-2.734 -2.694,-4.822 c 2.183,-7.511 -1.666,-11.178 -4.172,-12.704 c -0.186,0.182 -0.369,0.322 -0.462,0.417 c -8.907,6.771 -20.267,7.093 -30.052,1.068 l -0.511,-0.235 c -4.822,-3.48 -9,-7.745 -12.385,-12.756 c -11.265,-16.509 -11.776,-38.259 -1.391,-55.415 c 0.744,-1.303 2.135,-2.136 3.714,-2.23 c 1.525,-0.093 2.964,0.558 3.896,1.807 c 5.238,7.1 12.286,12.896 20.91,17.349 c 7.1,3.756 15.912,9.276 21.333,18.782 c 4.964,8.859 4.964,17.114 0.095,25.275 c 3.479,2.459 9.973,8.995 6.588,20.823 Z m -16,-24.859 c -3.339,-1.437 -6.495,-3.526 -9.74,-6.354 l 5.428,-12.057 c 0.276,-0.604 0.323,-1.25 0.088,-1.854 c -0.183,-0.605 -0.645,-1.114 -1.249,-1.344 c -1.251,-0.51 -2.647,0 -3.199,1.25 l -4.687,10.39 c -2.594,-2.875 -4.963,-6.077 -7.094,-9.557 l 4.125,-9.599 c 0.282,-0.557 0.328,-1.202 0.094,-1.806 c -0.182,-0.606 -0.692,-1.115 -1.296,-1.344 c -0.604,-0.282 -1.256,-0.282 -1.855,-0.047 c -0.604,0.228 -1.115,0.692 -1.349,1.296 l -2.734,6.167 c -4.22,-8.391 -6.308,-15.954 -7.048,-18.875 c -0.046,-0.088 -0.046,-0.183 -0.046,-0.183 c -0.14,-0.557 -0.511,-1.114 -1.068,-1.484 c -0.558,-0.369 -1.208,-0.464 -1.807,-0.328 c -0.604,0.14 -1.161,0.511 -1.531,1.068 c -0.329,0.558 -0.464,1.208 -0.329,1.812 c -0,0.088 1.439,6.584 4.964,14.886 l -4.219,-2.459 c -0.604,-0.323 -1.254,-0.416 -1.854,-0.233 c -0.604,0.14 -1.115,0.509 -1.438,1.114 c -0.328,0.604 -0.374,1.208 -0.233,1.854 c 0.187,0.604 0.556,1.114 1.161,1.437 l 10.432,6.032 c 2.364,4.265 4.916,8.114 7.698,11.405 l -8.719,-0.833 c -1.296,-0.094 -2.547,0.881 -2.64,2.182 c -0.095,1.344 0.88,2.547 2.177,2.642 l 14.285,1.342 c 3.71,3.386 7.699,6.032 11.824,7.839 c 0.328,0.141 0.651,0.188 0.932,0.188 c 0.511,0 0.974,-0.141 1.391,-0.417 c 0.276,-0.187 0.645,-0.558 0.88,-1.02 c 0.557,-1.208 -0.047,-2.647 -1.344,-3.11 Z m 44.661,-18.551 c -2.738,4.036 -6.172,7.514 -10.068,10.343 l -0.416,0.187 c -4.776,2.969 -10.062,4.032 -15.073,3.199 c 0.417,-3.615 0.141,-7.282 -0.833,-10.991 c 1.948,-1.208 3.896,-2.598 5.704,-4.265 l 11.64,-1.115 c 1.068,-0.093 1.854,-1.068 1.765,-2.181 c -0.093,-1.063 -1.115,-1.855 -2.181,-1.761 l -7.048,0.698 c 2.272,-2.693 4.36,-5.802 6.261,-9.276 l 8.577,-4.87 c 0.464,-0.282 0.787,-0.698 0.928,-1.208 c 0.14,-0.558 0.094,-1.068 -0.188,-1.531 c -0.276,-0.464 -0.693,-0.787 -1.202,-0.928 c -0.511,-0.135 -1.068,-0.093 -1.532,0.188 l -3.432,1.995 c 2.874,-6.771 4.036,-12.058 4.036,-12.104 c 0.094,-0.511 -0,-1.022 -0.282,-1.484 c -0.322,-0.418 -0.738,-0.699 -1.249,-0.834 c -0.511,-0.094 -1.021,0 -1.484,0.276 c -0.417,0.276 -0.699,0.739 -0.833,1.203 c -0,-0 -0,0.047 -0.048,0.14 c -0.604,2.365 -2.318,8.491 -5.75,15.308 l -2.229,-5.011 c -0.229,-0.51 -0.599,-0.88 -1.109,-1.068 c -0.511,-0.181 -1.068,-0.181 -1.531,0.047 c -0.511,0.235 -0.881,0.605 -1.068,1.115 c -0.188,0.51 -0.141,1.021 0.047,1.485 l 3.385,7.791 c -1.719,2.829 -3.62,5.422 -5.749,7.745 l -3.803,-8.443 c -0.421,-1.021 -1.579,-1.484 -2.599,-1.021 c -0.464,0.235 -0.833,0.652 -1.021,1.115 c -0.187,0.51 -0.14,1.068 0.047,1.532 l 4.406,9.786 c -1.254,1.062 -2.458,1.99 -3.708,2.828 c -0.604,-1.578 -1.302,-3.109 -2.182,-4.688 c -2.506,-4.448 -5.61,-8.021 -8.948,-11.082 c 4.401,-7.188 11.218,-11.454 16.74,-14.376 c 7.005,-3.62 12.754,-8.348 17.02,-14.099 c 0.74,-1.021 1.901,-1.531 3.152,-1.484 c 1.254,0.047 2.41,0.739 3.014,1.807 c 8.443,13.958 8.027,31.63 -1.156,45.032 Z" fill="black" transform="translate(64.0,64.0) scale(1.9895795769656424)"/>
    </mask>
  </defs>
  <rect fill="black" height="512" mask="url(#iconmask)" rx="64" ry="64" width="512" x="0" y="0"/>
</svg>
