<?xml version="1.0" encoding="utf-8" ?>
<svg xmlns="http://www.w3.org/2000/svg" xmlns:ev="http://www.w3.org/2001/xml-events" xmlns:xlink="http://www.w3.org/1999/xlink" baseProfile="full" height="512" version="1.1" width="512">
  <defs>
    <mask id="iconmask">
      <rect fill="white" height="512" rx="64" ry="64" width="512" x="0" y="0"/>
      <path d="m 1075.5 1058.5 -34.641 -98.438 -0.046875 -0.09375 c -0.09375 -0.28125 -0.32812 -0.51562 -0.46875 -0.79688 -0.28125 -0.60938 -0.60938 -1.2188 -1.0312 -1.7344 -0.32812 -0.375 -0.75 -0.60938 -1.125 -0.89062 -0.42188 -0.32812 -0.75 -0.65625 -1.2188 -0.89062 -0.60938 -0.28125 -1.2656 -0.42188 -1.9219 -0.5625 -0.32812 -0.046875 -0.60938 -0.23438 -0.9375 -0.28125 h -0.09375 l -187.82 -14.391 c -0.375 -0.046875 -0.65625 0.09375 -0.98438 0.14062 -0.32812 0 -0.65625 -0.09375 -0.98438 0 -0.1875 0.046875 -0.32812 0.14062 -0.51562 0.1875 -0.51562 0.14062 -0.98438 0.375 -1.4531 0.60938 -0.42188 0.23438 -0.84375 0.42188 -1.2188 0.70312 s -0.70312 0.65625 -1.0312 1.0312 -0.65625 0.70312 -0.89062 1.1719 c -0.23438 0.42188 -0.375 0.84375 -0.5625 1.3125 -0.1875 0.51562 -0.375 0.98438 -0.42188 1.5 -0.046875 0.1875 -0.14062 0.32812 -0.14062 0.51562 -0.046875 0.32812 0.09375 0.65625 0.14062 0.98438 0 0.32812 -0.09375 0.65625 0 1.0312 l 21.188 112.92 c 0.046875 0.32812 0.23438 0.5625 0.32812 0.89062 0.14062 0.375 0.23438 0.75 0.42188 1.125 0.28125 0.51562 0.60938 0.98438 0.9375 1.4062 0.23438 0.28125 0.42188 0.5625 0.70312 0.84375 0.46875 0.42188 0.98438 0.75 1.5 1.0312 0.28125 0.14062 0.51562 0.375 0.84375 0.46875 0.89062 0.32812 1.8281 0.5625 2.8125 0.5625 h 201.47 c 2.4844 0 4.875 -1.2188 6.2812 -3.2812 1.4531 -2.0625 1.8281 -4.6875 0.98438 -7.0312 z m -202.36 -5.1562 -18.141 -96.75 172.92 13.219 29.391 83.531 z m -257.72 -259.22 c -0.32812 0 -0.60938 0.14062 -0.9375 0.1875 -0.5625 0.046875 -1.0312 0.14062 -1.5469 0.32812 -0.46875 0.14062 -0.89062 0.375 -1.3125 0.65625 -0.42188 0.23438 -0.84375 0.46875 -1.2188 0.84375 -0.42188 0.375 -0.70312 0.75 -1.0312 1.1719 -0.1875 0.28125 -0.46875 0.42188 -0.65625 0.70312 l -43.078 74.625 c -0.046875 0.046875 -0.046875 0.09375 -0.046875 0.1875 -0.23438 0.46875 -0.32812 0.98438 -0.46875 1.4531 -0.14062 0.51562 -0.375 0.98438 -0.42188 1.4531 0 0.046875 -0.046875 0.09375 -0.046875 0.1875 -0.046875 0.375 0.09375 0.75 0.14062 1.125 0.046875 0.5625 0.046875 1.125 0.1875 1.6875 0.14062 0.46875 0.42188 0.89062 0.65625 1.3125 s 0.42188 0.89062 0.70312 1.2656 c 0.375 0.46875 0.84375 0.75 1.2656 1.125 0.28125 0.23438 0.51562 0.5625 0.84375 0.75 0.046875 0.046875 0.09375 0 0.14062 0.046875 0.9375 0.51562 1.9688 0.89062 3.1406 0.98438 l 442.87 33.891 h 0.5625 c 0.84375 0 1.6875 -0.14062 2.5312 -0.42188 0.046875 0 0.09375 -0.046875 0.14062 -0.09375 0.79688 -0.28125 1.4531 -0.75 2.1094 -1.2656 0.14062 -0.09375 0.28125 -0.14062 0.42188 -0.28125 0.70312 -0.65625 1.3125 -1.4531 1.7344 -2.3438 0.1875 -0.375 0.1875 -0.75 0.32812 -1.1719 0.1875 -0.51562 0.42188 -1.0312 0.42188 -1.6406 v -0.046875 c 0.046875 -0.51562 -0.14062 -1.0312 -0.1875 -1.5469 s -0.046875 -1.0312 -0.1875 -1.5 v -0.046875 l -38.156 -108.52 c -0.046875 -0.09375 -0.09375 -0.14062 -0.14062 -0.1875 -0.1875 -0.5625 -0.5625 -0.98438 -0.89062 -1.4531 -0.23438 -0.375 -0.42188 -0.75 -0.75 -1.0781 -0.32812 -0.375 -0.79688 -0.60938 -1.1719 -0.89062 -0.42188 -0.28125 -0.75 -0.60938 -1.2188 -0.79688 -0.42188 -0.1875 -0.84375 -0.23438 -1.2656 -0.32812 -0.5625 -0.14062 -1.0781 -0.32812 -1.6406 -0.32812 -0.09375 0 -0.14062 -0.046875 -0.23438 -0.046875 h -361.64 z m 388.55 107.62 -418.82 -32.062 34.734 -60.141 h 351.71 l 32.438 92.203 z m -765.66 -161.34 c 0 0.5625 0.1875 1.125 0.32812 1.6875 0.09375 0.42188 0.14062 0.89062 0.32812 1.2656 0.1875 0.46875 0.51562 0.79688 0.79688 1.2188 s 0.51562 0.84375 0.89062 1.1719 c 0.32812 0.28125 0.70312 0.46875 1.0781 0.75 0.46875 0.32812 0.9375 0.65625 1.4531 0.89062 0.09375 0.046875 0.09375 0.09375 0.1875 0.09375 0.84375 0.32812 1.7344 0.46875 2.5781 0.46875 h 709.31 c 0.84375 0 1.7344 -0.14062 2.5781 -0.42188 0.09375 -0.046875 0.14063 -0.09375 0.1875 -0.14062 0.5625 -0.1875 0.98438 -0.5625 1.4531 -0.89062 0.375 -0.23438 0.79687 -0.42188 1.0781 -0.75 0.375 -0.32812 0.60938 -0.79688 0.89063 -1.1719 0.28125 -0.42188 0.60937 -0.75 0.84375 -1.2188 0.1875 -0.375 0.23437 -0.84375 0.32812 -1.2656 0.14063 -0.5625 0.32813 -1.0781 0.32813 -1.6406 0 -0.09375 0.046874 -0.14062 0.046874 -0.23438 0 -0.46875 -0.1875 -0.84375 -0.28125 -1.2656 s -0.046874 -0.84375 -0.1875 -1.2656 l -69.844 -198.47 c -1.0781 -3.0938 -4.0312 -5.1562 -7.2656 -5.1562 l -227.95 0.375 c -3.1875 0 -5.9062 1.9219 -7.0781 4.6875 44.344 -79.078 98.297 -186.79 98.297 -243.05 0 -46.922 -16.781 -89.297 -43.922 -119.91 -26.906 -30.375 -64.078 -49.172 -105.05 -49.172 s -78.141 18.797 -105.05 49.172 c -27.141 30.609 -43.922 73.031 -43.922 119.91 0 55.359 52.219 160.55 96.141 239.21 -0.9375 -0.42188 -1.9688 -0.65625 -3.0469 -0.65625 l -227.53 0.375 c -3.2812 0 -6.1875 2.0625 -7.2656 5.1562 l -70.359 197.53 c -0.14062 0.42188 -0.09375 0.84375 -0.1875 1.3125 -0.09375 0.42188 -0.28125 0.84375 -0.28125 1.3125 0 0.09375 0.046876 0.14062 0.046876 0.23438 z m 280.6 -468.94 c 0 -22.547 9.1406 -42.984 23.906 -57.75 s 35.203 -23.906 57.75 -23.906 42.984 9.1406 57.75 23.906 23.906 35.203 23.906 57.75 -9.1406 42.984 -23.906 57.75 -35.203 23.906 -57.75 23.906 -42.984 -9.1406 -57.75 -23.906 -23.906 -35.203 -23.906 -57.75 z m -197.11 278.9 222.1 -0.375 c 3.9375 0 7.0312 -3 7.5469 -6.7969 20.719 36.703 39.047 66.797 48.375 81.797 9.6562 -15.562 29.016 -47.344 50.625 -85.922 -0.375 0.9375 -0.60938 1.9219 -0.60938 3 0 4.2656 3.4688 7.7344 7.7344 7.7344 l 222.47 -0.375 64.406 183.05 -687.52 -0.046875 64.828 -182.11 z m 92.25 514.55 c -0.09375 0.1875 -0.32812 0.28125 -0.46875 0.46875 -0.5625 0.79688 -1.1719 1.4062 -1.9688 1.9688 -0.28125 0.1875 -0.51562 0.375 -0.79688 0.5625 -1.0312 0.51562 -2.2031 0.89062 -3.4688 0.89062 h -275.63 c -2.5312 0 -4.875 -1.2188 -6.3281 -3.2812 -1.4531 -2.0625 -1.8281 -4.6875 -0.98438 -7.0312 l 92.297 -259.22 c 0.046874 -0.09375 0.09375 -0.09375 0.09375 -0.1875 0.1875 -0.5625 0.5625 -0.98437 0.89062 -1.4531 0.23438 -0.375 0.42188 -0.79688 0.75 -1.0781 0.32813 -0.32812 0.75 -0.5625 1.1719 -0.84375 0.42187 -0.28125 0.79687 -0.65625 1.2656 -0.84375 0.375 -0.1875 0.79688 -0.1875 1.2188 -0.32812 0.5625 -0.14063 1.125 -0.32813 1.7344 -0.32813 0.09375 0 0.14062 -0.046874 0.23437 -0.046874 h 333 c 0.14063 0 0.28125 0.09375 0.46875 0.09375 0.51563 0.046874 0.98438 0.1875 1.5 0.32812 0.51563 0.14063 0.98438 0.28125 1.4531 0.46875 0.14062 0.09375 0.28125 0.046876 0.42187 0.14063 0.28125 0.1875 0.46875 0.42187 0.70313 0.60937 0.42187 0.32813 0.84375 0.65625 1.2188 1.0781 0.32812 0.375 0.5625 0.79687 0.79687 1.2188 0.23438 0.42187 0.46875 0.84375 0.65625 1.3125 0.1875 0.51562 0.23438 1.0312 0.32813 1.5469 0.046874 0.32813 0.1875 0.60938 0.1875 0.9375 0 0.14063 -0.09375 0.28125 -0.09375 0.46875 -0.046876 0.51563 -0.1875 0.98438 -0.28125 1.5 -0.14063 0.51563 -0.28125 0.98438 -0.51563 1.4531 -0.09375 0.14062 -0.046874 0.28125 -0.14062 0.42187 l -149.68 259.22 z m 408.52 -1.5469 c -0.14062 0.46875 -0.32812 0.89062 -0.5625 1.3125 s -0.51562 0.84375 -0.79688 1.2188 c -0.32812 0.375 -0.65625 0.70312 -1.0312 1.0312 s -0.75 0.5625 -1.2188 0.79688 -0.9375 0.42188 -1.4531 0.5625 c -0.28125 0.09375 -0.46875 0.23438 -0.75 0.32812 -0.46875 0.09375 -0.9375 0.14062 -1.4062 0.14062 h -349.59 c -1.2656 0 -2.3906 -0.375 -3.4688 -0.9375 -0.09375 -0.046875 -0.23438 -0.046875 -0.375 -0.09375 -0.28125 -0.1875 -0.46875 -0.42188 -0.70312 -0.60938 -0.42188 -0.32812 -0.84375 -0.65625 -1.1719 -1.0312 s -0.5625 -0.79688 -0.79688 -1.2188 -0.46875 -0.84375 -0.65625 -1.3125 c -0.1875 -0.51562 -0.23438 -1.0312 -0.32812 -1.5469 -0.046875 -0.32812 -0.1875 -0.60938 -0.1875 -0.9375 0 -0.14062 0.09375 -0.28125 0.09375 -0.46875 0.046875 -0.51562 0.1875 -0.98438 0.28125 -1.5 0.14062 -0.51562 0.28125 -0.98438 0.46875 -1.4531 0.09375 -0.14062 0.046875 -0.28125 0.14062 -0.42188 l 78.516 -135.98 c 0.1875 -0.32812 0.51562 -0.5625 0.75 -0.84375 0.375 -0.46875 0.65625 -0.89062 1.125 -1.2656 0.42188 -0.32812 0.84375 -0.51562 1.3125 -0.75 0.42188 -0.23438 0.84375 -0.46875 1.3125 -0.60938 0.5625 -0.1875 1.125 -0.1875 1.7344 -0.23438 0.375 -0.046875 0.70312 -0.1875 1.0781 -0.14062 l 249.1 19.078 c 0.1875 0 0.32812 0.09375 0.51562 0.14062 0.5625 0.09375 1.0312 0.23438 1.5469 0.42188 0.42188 0.1875 0.89062 0.32812 1.2656 0.5625 0.42188 0.28125 0.79688 0.60938 1.1719 0.9375 s 0.70312 0.65625 1.0312 1.0312 c 0.28125 0.375 0.46875 0.79688 0.70312 1.2656 s 0.46875 0.9375 0.60938 1.4531 c 0.046875 0.1875 0.1875 0.32812 0.1875 0.51562 l 21.938 116.95 c 0.046875 0.23438 -0.046875 0.46875 0 0.70312 0 0.23438 0.14062 0.46875 0.14062 0.70312 0 0.28125 -0.14062 0.51562 -0.14062 0.79688 -0.046875 0.51562 -0.14062 1.0312 -0.32812 1.5 z m -212.11 -292.87 c 0 -2.6719 2.1562 -4.8281 4.8281 -4.8281 h 37.359 c 2.6719 0 4.8281 2.1562 4.8281 4.8281 s -2.1562 4.8281 -4.8281 4.8281 h -37.359 c -2.6719 0 -4.8281 -2.1562 -4.8281 -4.8281 z m -49.969 84.422 -17.672 30.562 c -1.3125 2.2969 -4.2656 3.0938 -6.5625 1.7812 -2.2969 -1.3125 -3.0938 -4.2656 -1.7812 -6.5625 l 17.672 -30.562 c 1.3125 -2.2969 4.2656 -3.0938 6.5625 -1.7812 2.2969 1.3125 3.0938 4.2656 1.7812 6.5625 z m 9.3281 -35.344 17.672 -30.562 c 1.3125 -2.2969 4.2656 -3.0938 6.5625 -1.7812 2.2969 1.3125 3.0938 4.2656 1.7812 6.5625 l -17.672 30.562 c -1.3125 2.2969 -4.2656 3.0938 -6.5625 1.7812 -2.2969 -1.3125 -3.0938 -4.2656 -1.7812 -6.5625 z m 238.6 98.625 c 2.6719 0.1875 4.6406 2.5312 4.4531 5.2031 s -2.5312 4.6406 -5.2031 4.4531 l -35.203 -2.6719 c -2.6719 -0.1875 -4.6406 -2.5312 -4.4531 -5.2031 s 2.5312 -4.6406 5.2031 -4.4531 z m 70.406 5.3906 c 2.6719 0.1875 4.6406 2.5312 4.4531 5.2031 s -2.5312 4.6406 -5.2031 4.4531 l -35.203 -2.6719 c -2.6719 -0.1875 -4.6406 -2.5312 -4.4531 -5.2031 s 2.5312 -4.6406 5.2031 -4.4531 z m 70.406 5.3906 c 2.6719 0.1875 4.6406 2.5312 4.4531 5.2031 s -2.5312 4.6406 -5.2031 4.4531 l -35.203 -2.6719 c -2.6719 -0.1875 -4.6406 -2.5312 -4.4531 -5.2031 s 2.5312 -4.6406 5.2031 -4.4531 z m 74.859 10.594 c -0.1875 2.6719 -2.5312 4.6406 -5.2031 4.4531 l -35.203 -2.6719 c -2.6719 -0.1875 -4.6406 -2.5312 -4.4531 -5.2031 s 2.5312 -4.6406 5.2031 -4.4531 l 35.203 2.6719 c 2.6719 0.1875 4.6406 2.5312 4.4531 5.2031 z m -286.08 -26.719 c 2.6719 0.1875 4.6406 2.5312 4.4531 5.2031 s -2.5312 4.6406 -5.2031 4.4531 l -37.266 -2.8594 c -2.6719 -0.1875 -4.6406 -2.5312 -4.4531 -5.2031 s 2.5312 -4.6406 5.2031 -4.4531 z m -72.422 -5.5781 c 2.6719 0.1875 4.6406 2.5312 4.4531 5.2031 s -2.5312 4.6406 -5.2031 4.4531 l -35.203 -2.6719 c -2.6719 -0.1875 -4.6406 -2.5312 -4.4531 -5.2031 s 2.5312 -4.6406 5.2031 -4.4531 z m -110.77 -3.6094 c 0.1875 -2.6719 2.5312 -4.6406 5.2031 -4.4531 l 35.203 2.6719 c 2.6719 0.1875 4.6406 2.5312 4.4531 5.2031 s -2.5312 4.6406 -5.2031 4.4531 l -35.203 -2.6719 c -2.6719 -0.1875 -4.6406 -2.5312 -4.4531 -5.2031 z m 135.19 -128.34 c -2.6719 0 -4.8281 -2.1562 -4.8281 -4.8281 s 2.1562 -4.8281 4.8281 -4.8281 h 37.359 c 2.6719 0 4.8281 2.1562 4.8281 4.8281 s -2.1562 4.8281 -4.8281 4.8281 z m -107.2 -4.8281 c 0 2.6719 -2.1562 4.8281 -4.8281 4.8281 h -37.359 c -2.6719 0 -4.8281 -2.1562 -4.8281 -4.8281 s 2.1562 -4.8281 4.8281 -4.8281 h 37.359 c 2.6719 0 4.8281 2.1562 4.8281 4.8281 z m -95.672 201.94 c 2.2969 1.3594 3.0938 4.3125 1.7812 6.6094 l -17.672 30.562 c -1.3594 2.2969 -4.3125 3.0938 -6.6094 1.7812 -2.2969 -1.3594 -3.0938 -4.3125 -1.7812 -6.6094 l 17.672 -30.562 c 1.3594 -2.2969 4.3125 -3.0938 6.6094 -1.7812 z m -33.562 67.734 -17.672 30.562 c -1.3594 2.2969 -4.3125 3.0938 -6.6094 1.7812 -2.2969 -1.3594 -3.0938 -4.3125 -1.7812 -6.6094 l 17.672 -30.562 c 1.3594 -2.2969 4.3125 -3.0938 6.6094 -1.7812 2.2969 1.3594 3.0938 4.3125 1.7812 6.6094 z m 69.891 -130.69 c 2.2969 1.3594 3.0938 4.3125 1.7812 6.6094 l -18.703 32.344 c -1.3594 2.2969 -4.3125 3.0938 -6.6094 1.7812 -2.2969 -1.3594 -3.0938 -4.3125 -1.7812 -6.6094 l 18.703 -32.344 c 1.3594 -2.2969 4.3125 -3.0938 6.6094 -1.7812 z m 311.44 114.66 c -2.625 0.42188 -5.1094 -1.4062 -5.4844 -4.0312 l -3.6094 -23.344 c -0.42188 -2.625 1.4062 -5.1094 4.0312 -5.4844 2.625 -0.42188 5.1094 1.4062 5.4844 4.0312 l 3.6094 23.344 c 0.42188 2.625 -1.4062 5.1094 -4.0312 5.4844 z m -70.125 -248.81 c -2.6719 0 -4.8281 -2.1562 -4.8281 -4.8281 s 2.1562 -4.8281 4.8281 -4.8281 h 39.562 c 2.6719 0 4.8281 2.1562 4.8281 4.8281 s -2.1562 4.8281 -4.8281 4.8281 z m 62.859 202.13 c -2.625 0.42188 -5.1094 -1.4062 -5.4844 -4.0312 l -3.6094 -23.344 c -0.42188 -2.625 1.4062 -5.1094 4.0312 -5.4844 2.625 -0.42188 5.1094 1.4062 5.4844 4.0312 l 3.6094 23.344 c 0.42188 2.625 -1.4062 5.1094 -4.0312 5.4844 z m -592.97 -206.95 c 0 -2.6719 2.1562 -4.8281 4.8281 -4.8281 h 37.359 c 2.6719 0 4.8281 2.1562 4.8281 4.8281 0 2.6719 -2.1562 4.8281 -4.8281 4.8281 h -37.359 c -2.6719 0 -4.8281 -2.1562 -4.8281 -4.8281 z m 607.87 271.45 3.8438 24.703 c 0.42188 2.625 -1.4062 5.1094 -4.0312 5.4844 -2.625 0.42188 -5.1094 -1.4062 -5.4844 -4.0312 l -3.8438 -24.703 c -0.42188 -2.625 1.4062 -5.1094 4.0312 -5.4844 2.625 -0.42187 5.1094 1.4062 5.4844 4.0312 z m 73.828 -266.63 c -2.6719 0 -4.8281 -2.1562 -4.8281 -4.8281 s 2.1562 -4.8281 4.8281 -4.8281 h 37.359 c 2.6719 0 4.8281 2.1562 4.8281 4.8281 s -2.1562 4.8281 -4.8281 4.8281 z m -74.719 0 c -2.6719 0 -4.8281 -2.1562 -4.8281 -4.8281 s 2.1562 -4.8281 4.8281 -4.8281 h 37.359 c 2.6719 0 4.8281 2.1562 4.8281 4.8281 s -2.1562 4.8281 -4.8281 4.8281 z m -397.55 -138.61 c 0 -13.312 9.2812 -25.172 25.453 -34.828 15 -8.9531 36.281 -16.266 61.5 -20.953 4.2188 -0.79688 8.25 1.9688 9 6.1875 0.79688 4.2188 -1.9688 8.25 -6.1875 9 -23.438 4.4062 -42.984 11.016 -56.391 19.031 -11.344 6.7969 -17.859 14.203 -17.859 21.562 0 11.344 14.625 22.359 38.203 31.031 25.969 9.5156 61.969 15.375 101.95 15.375 s 76.031 -5.8594 101.95 -15.375 c 23.625 -8.625 38.203 -19.641 38.203 -31.031 0 -7.4062 -6.6094 -14.906 -18.141 -21.703 -13.641 -8.0625 -33.422 -14.719 -57.094 -19.078 -4.2188 -0.75 -6.9844 -4.7812 -6.1875 -9 0.75 -4.2188 4.7812 -6.9844 9 -6.1875 25.5 4.6875 47.062 12 62.203 20.953 16.312 9.7031 25.734 21.656 25.734 35.016 0 18.562 -18.516 34.594 -48.422 45.516 -27.609 10.078 -65.531 16.359 -107.25 16.359 s -79.641 -6.2344 -107.25 -16.359 c -29.906 -10.969 -48.422 -27 -48.422 -45.516 z m -15.609 128.9 c 2.6719 0 4.8281 2.1562 4.8281 4.8281 s -2.1562 4.8281 -4.8281 4.8281 h -39.562 c -2.6719 0 -4.8281 -2.1562 -4.8281 -4.8281 s 2.1562 -4.8281 4.8281 -4.8281 z m 74.719 0 c 2.6719 0 4.8281 2.1562 4.8281 4.8281 s -2.1562 4.8281 -4.8281 4.8281 h -37.359 c -2.6719 0 -4.8281 -2.1562 -4.8281 -4.8281 s 2.1562 -4.8281 4.8281 -4.8281 z m -151.64 0 c 2.6719 0 4.8281 2.1562 4.8281 4.8281 s -2.1562 4.8281 -4.8281 4.8281 h -37.359 c -2.6719 0 -4.8281 -2.1562 -4.8281 -4.8281 s 2.1562 -4.8281 4.8281 -4.8281 z" fill="black" transform="translate(64.0,64.0) scale(0.33582179205223067)"/>
    </mask>
  </defs>
  <rect fill="black" height="512" mask="url(#iconmask)" rx="64" ry="64" width="512" x="0" y="0"/>
</svg>
