<?xml version="1.0" encoding="utf-8" ?>
<svg xmlns="http://www.w3.org/2000/svg" xmlns:ev="http://www.w3.org/2001/xml-events" xmlns:xlink="http://www.w3.org/1999/xlink" baseProfile="full" height="512" version="1.1" width="512">
  <defs>
    <mask id="iconmask">
      <rect fill="white" height="512" rx="64" ry="64" width="512" x="0" y="0"/>
      <path d="m 859.5 1085.2 c -38.832 -51.668 -66.332 -109.83 -84 -171.33 -6.5 -17.832 21 -27.5 27.5 -8 17.832 59.832 43.668 114.67 82.332 164.83 53.332 -29.168 79.168 -105 32.332 -168 -46.832 -61.332 -118 -118 -150.33 -189 -55 85.668 -116.33 257 -34 342.5 39 38.832 85.836 43.664 126.17 29 z m 76 -271.34 c 67.832 -139 137.33 -373.33 -1.668 -492.83 -61.332 -51.668 -139 -55 -200.33 -22.668 66.332 69.5 114.67 151.83 151.83 240.83 6.5 17.832 -19.332 29.168 -25.832 11.332 -37.168 -87.332 -84 -168 -150.33 -236 -109.83 84 -87.332 216.5 17.832 295.67 82.5 61.336 164.83 95.336 208.5 203.67 z m -534.83 -223 c 156.67 25.832 255.33 182.67 213.33 334.5 -4.832 16.168 -32.332 13 -27.5 -8 37.168 -135.67 -51.668 -276.33 -192.33 -299 l 19.332 16.168 c 14.5 11.332 -1.668 34 -17.832 22.668 l -53.332 -43.668 c -9.668 -4.832 -8 -19.332 0 -24.168 l 63 -32.332 c 16.168 -9.668 29.168 16.168 13 24.168 z m 190.66 452.34 c -1.668 19.332 -29.168 17.832 -29.168 0 l 1.668 -21 c -100.17 122.83 -286 130.83 -395.83 17.832 -14.5 -13 6.5 -32.332 19.332 -19.332 100.17 101.83 266.67 92.168 355.5 -17.832 l -24.168 9.668 c -17.832 6.5 -27.5 -19.332 -9.668 -25.832 l 64.668 -27.5 c 9.668 -3.168 19.332 3.168 19.332 14.5 z m -515.5 -82.336 c -16.168 -9.668 0 -34 14.5 -24.168 l 17.832 11.332 c -55 -147 29.168 -311.83 182.67 -352.33 17.832 -4.832 25.832 22.668 6.5 27.5 -137.33 35.5 -213.33 184.17 -161.67 316.67 l 3.168 -25.832 c 3.168 -17.832 30.668 -14.5 29.168 4.832 l -9.832 69.5 c -4.832 9.668 -13 16.168 -22.668 9.668 z m 211.67 1.668 c 35.5 -30.668 61.332 -69.5 84 -109.83 8 -16.168 34 -3.168 24.168 13 -22.668 43.668 -50.168 82.332 -85.668 114.67 56.5 32.332 111.5 -8 130.83 -61.332 19.332 -50.168 6.5 -142.17 -14.5 -187.5 -38.832 40.332 -92.168 66.332 -132.5 103.5 -37 35.328 -43.5 90.328 -6.332 127.5 z m 841.83 -625.5 c -19.332 13 -55 29.168 -69.5 43.668 -16.168 17.832 -14.5 40.332 -3.168 53.332 16.168 16.168 48.5 16.168 64.668 -22.668 9.668 -22.5 11.336 -50 8 -74.332 z m -66.164 -71 c 3.168 -17.832 4.832 -40.332 1.668 -71.168 -24.168 16.168 -51.668 29.168 -76 46.832 -21 14.5 -24.168 38.832 -13 59.832 11.332 19.332 32.332 27.5 53.332 16.168 9.6641 -4.832 25.832 -19.332 34 -51.664 z m -202 -185.83 c -9.668 30.668 -25.832 59.832 -35.5 92.168 -19.332 58.168 61.332 95.332 87.332 42 20.832 -45.336 -22.832 -105.17 -51.832 -134.17 z m -236 21 c 8.1641 35.5 8.1641 72.664 14.664 109.83 13 67.832 109.83 58.168 106.67 -8 -3.332 -56.668 -76 -88.832 -121.33 -101.83 z m -193.84 160 c 27.5 34 46.832 72.668 71.168 106.67 48.5 64.668 150.33 8 111.5 -61.332 -30.832 -56.672 -127.67 -55.004 -182.67 -45.336 z" fill="black" transform="translate(64.0,64.0) scale(0.29643243563710747)"/>
    </mask>
  </defs>
  <rect fill="black" height="512" mask="url(#iconmask)" rx="64" ry="64" width="512" x="0" y="0"/>
</svg>
