<?xml version="1.0" encoding="utf-8" ?>
<svg xmlns="http://www.w3.org/2000/svg" xmlns:ev="http://www.w3.org/2001/xml-events" xmlns:xlink="http://www.w3.org/1999/xlink" baseProfile="full" height="512" version="1.1" width="512">
  <defs>
    <mask id="iconmask">
      <rect fill="white" height="512" rx="64" ry="64" width="512" x="0" y="0"/>
      <path d="m 689.06 174.74 c 3 5.5312 5.9062 11.344 8.625 17.438 10.125 22.641 18.375 49.406 24.188 78.938 h 69.469 c -10.172 -19.359 -23.203 -36.984 -38.531 -52.266 -18.281 -18.281 -39.891 -33.328 -63.75 -44.109 z m 39.703 144.42 c 1.6406 17.016 2.4844 34.547 2.4844 52.547 s -0.84375 35.578 -2.4844 52.547 h 80.859 c 4.2188 -16.828 6.4219 -34.406 6.4219 -52.547 0 -18.141 -2.2031 -35.719 -6.4219 -52.547 z m -6.9375 153.14 c -5.7656 29.531 -14.062 56.297 -24.188 78.938 -2.7188 6.0938 -5.5781 11.906 -8.5781 17.391 23.859 -10.828 45.422 -25.828 63.703 -44.109 15.328 -15.328 28.312 -32.906 38.531 -52.266 h -69.469 z m -210.94 96.375 c -3 -5.5312 -5.8594 -11.344 -8.625 -17.438 -10.125 -22.641 -18.375 -49.406 -24.188 -78.938 h -69.469 c 10.172 19.359 23.203 36.984 38.484 52.266 18.281 18.281 39.891 33.281 63.75 44.109 z m -39.703 -144.37 c -1.6406 -17.016 -2.4844 -34.547 -2.4844 -52.547 s 0.84375 -35.578 2.4844 -52.547 h -80.859 c -4.2188 16.828 -6.4219 34.406 -6.4219 52.547 s 2.25 35.719 6.4219 52.547 z m 6.9375 -153.14 c 5.7656 -29.531 14.062 -56.297 24.188 -78.938 2.7188 -6.0938 5.5781 -11.906 8.5781 -17.391 -23.859 10.828 -45.422 25.828 -63.703 44.109 -15.328 15.328 -28.312 32.906 -38.484 52.219 h 69.469 z m 175.87 -59.438 c -15.469 -34.641 -34.688 -56.062 -54 -56.062 s -38.531 21.422 -54 56.062 c -7.6875 17.156 -14.109 37.219 -18.938 59.438 h 145.92 c -4.8281 -22.219 -11.297 -42.281 -18.938 -59.438 z m -134.63 107.48 c -1.7344 16.828 -2.6719 34.406 -2.6719 52.547 s 0.9375 35.719 2.6719 52.547 h 161.16 c 1.7344 -16.828 2.6719 -34.406 2.6719 -52.547 s -0.9375 -35.719 -2.6719 -52.547 z m 7.6406 153.14 c 4.8281 22.219 11.297 42.281 18.938 59.438 15.469 34.641 34.688 56.062 54 56.062 s 38.531 -21.422 54 -56.062 c 7.6875 -17.156 14.109 -37.219 18.938 -59.438 h -145.92 z m -177.05 -15.375 c -0.28125 -0.70312 -0.51563 -1.4531 -0.75 -2.2031 -8.625 -26.109 -13.312 -54 -13.312 -82.969 0 -29.25 4.7812 -57.422 13.641 -84 13.219 -39.281 35.203 -74.25 63.703 -102.75 47.812 -47.812 113.86 -77.391 186.74 -77.391 72.797 0 138.79 29.578 186.71 77.438 28.219 28.266 50.062 62.766 63.234 101.25 0.32812 0.84375 0.60938 1.7344 0.84375 2.625 8.625 26.062 13.312 53.906 13.312 82.828 0 29.062 -4.6875 57 -13.922 84.75 -13.219 38.859 -35.109 73.641 -63.469 102 -47.766 47.766 -113.81 77.344 -186.74 77.344 -72.844 0 -138.89 -29.578 -186.66 -77.344 -28.312 -28.312 -50.203 -62.953 -63.375 -101.58 z m 219.89 398.76 h 60.188 c 19.266 -21.234 38.672 -43.359 57.938 -65.25 76.641 -87.234 150.56 -171.37 249.19 -238.45 9 -6.1406 18.703 -10.172 28.781 -12.094 10.125 -1.875 20.625 -1.6406 31.219 0.75 10.172 2.3438 19.406 6.4219 27.984 12.516 8.25 6.0469 14.906 13.406 20.25 22.219 l 38.344 66.281 26.859 -15.516 c 11.438 -6.6094 26.109 -2.7188 32.719 8.7188 l 16.875 29.344 c 0.9375 1.3125 1.6875 2.6719 2.3438 4.0781 13.125 24 15.656 51.141 9.0469 75.75 -6.5625 24.609 -22.312 46.828 -45.703 61.078 l -382.78 221.11 c -5.5312 12.844 -13.453 24.375 -23.203 34.125 -19.781 19.781 -47.062 32.062 -77.109 32.062 h -85.594 c -30.047 0 -57.328 -12.281 -77.109 -32.062 -9.75 -9.75 -17.672 -21.281 -23.203 -34.125 l -382.78 -221.11 c -23.438 -14.25 -39.141 -36.469 -45.703 -61.078 -6.6094 -24.609 -4.0781 -51.75 9.0469 -75.75 0.60938 -1.4062 1.4062 -2.8125 2.3438 -4.0781 l 16.875 -29.344 c 6.6094 -11.438 21.281 -15.328 32.719 -8.7188 l 26.859 15.516 38.344 -66.281 c 5.3438 -8.8125 12 -16.172 20.25 -22.219 8.5781 -6.0938 17.766 -10.172 27.938 -12.516 10.594 -2.3906 21.094 -2.6719 31.219 -0.75 s 19.781 5.9531 28.781 12.094 c 98.578 67.031 172.45 151.13 249.1 238.31 19.266 21.938 38.719 44.062 58.031 65.391 z m 182.06 32.906 v 77.25 l 347.81 -200.81 c 13.078 -7.5 21.891 -19.734 25.5 -33.328 3.6094 -13.547 2.1562 -28.453 -5.2031 -41.438 l -6.1406 -10.641 -26.625 15.375 -335.34 193.64 z m -303.94 77.25 v -77.25 l -335.34 -193.64 -26.625 -15.375 -6.1406 10.641 c -7.4062 12.984 -8.8594 27.891 -5.2031 41.438 3.6562 13.641 12.422 25.828 25.406 33.328 z m 192.24 -62.156 h -144.24 v 79.547 c 0 16.828 6.8906 32.109 17.953 43.172 s 26.391 17.953 43.172 17.953 h 85.594 c 16.781 0 32.109 -6.8906 43.172 -17.953 s 17.953 -26.391 17.953 -43.172 v -79.547 h -63.656 z" fill="black" transform="translate(64.0,64.0) scale(0.27672025959819363)"/>
    </mask>
  </defs>
  <rect fill="black" height="512" mask="url(#iconmask)" rx="64" ry="64" width="512" x="0" y="0"/>
</svg>
