<?xml version="1.0" encoding="utf-8" ?>
<svg xmlns="http://www.w3.org/2000/svg" xmlns:ev="http://www.w3.org/2001/xml-events" xmlns:xlink="http://www.w3.org/1999/xlink" baseProfile="full" height="512" version="1.1" width="512">
  <defs>
    <mask id="iconmask">
      <rect fill="white" height="512" rx="64" ry="64" width="512" x="0" y="0"/>
      <path d="m 768.74 1062.4 v 62.625 h -337.5 v -62.625 c 0 -45 17.625 -87.375 49.5 -119.25 14.625 -14.625 31.688 -26.062 49.875 -34.312 -27.797 -20.297 -46.641 -51.984 -49.031 -88.453 -4.3594 -65.906 49.078 -124.74 115.08 -126.56 66.938 -1.8281 122.02 52.078 122.02 118.64 0 39.75 -19.5 74.625 -49.312 96.375 58.5 26.438 99.375 85.312 99.375 153.56 z m -399.37 -153.56 c 29.812 -21.75 49.312 -56.625 49.312 -96.375 0 -65.438 -53.25 -118.69 -118.69 -118.69 s -118.69 53.25 -118.69 118.69 c 0 39.75 19.5 74.625 49.312 96.375 -18.188 8.25 -35.25 19.688 -49.875 34.312 -31.875 31.875 -49.5 74.25 -49.5 119.25 v 43.875 c 0 10.312 8.4375 18.75 18.75 18.75 h 243.74 v -62.625 c 0 -40.125 11.438 -78.375 32.812 -111.38 -15.938 -17.812 -35.25 -32.25 -57.188 -42.188 z m 600 0 c 29.812 -21.75 49.312 -56.625 49.312 -96.375 0 -65.438 -53.25 -118.69 -118.69 -118.69 s -118.69 53.25 -118.69 118.69 c 0 39.75 19.5 74.625 49.312 96.375 -18.188 8.25 -35.25 19.688 -49.875 34.312 -2.625 2.625 -5.0625 5.25 -7.3125 8.0625 21 32.625 32.812 71.062 32.812 111.19 v 62.625 h 243.74 c 10.312 0 18.75 -8.4375 18.75 -18.75 v -43.875 c 0 -68.25 -40.875 -127.13 -99.375 -153.56 z m -369.37 -290.06 c 143.63 0 261.56 -111.94 271.13 -253.13 h -127.13 c -9.1875 71.25 -70.312 126.56 -144 126.56 -80.062 0 -145.31 -65.25 -145.31 -145.31 s 65.25 -145.31 145.31 -145.31 c 60.094 0 111.84 36.844 133.87 89.062 h -42.281 c -18.891 -30.891 -52.734 -51.562 -91.594 -51.562 -59.438 0 -107.81 48.375 -107.81 107.81 s 48.375 107.81 107.81 107.81 c 53.062 0 97.125 -38.438 105.94 -89.062 h -105.94 c -10.312 0 -18.75 -8.4375 -18.75 -18.75 s 8.4375 -18.75 18.75 -18.75 h 367.22 l 32.016 32.016 c 3.6562 3.6562 8.4375 5.4844 13.266 5.4844 4.7812 0 9.6094 -1.8281 13.266 -5.4844 7.3125 -7.3125 7.3125 -19.172 0 -26.531 l -24.234 -24.234 24.234 -24.234 c 7.3125 -7.3125 7.3125 -19.172 0 -26.531 -7.3125 -7.3125 -19.172 -7.3125 -26.531 0 l -32.016 32.016 h -101.62 c -25.922 -122.95 -135 -215.63 -265.64 -215.63 -150 0 -271.87 121.87 -271.87 271.87 s 121.87 271.87 271.87 271.87 z" fill="black" transform="translate(64.0,64.0) scale(0.3047591474172377)"/>
    </mask>
  </defs>
  <rect fill="black" height="512" mask="url(#iconmask)" rx="64" ry="64" width="512" x="0" y="0"/>
</svg>
