<?xml version="1.0" encoding="utf-8" ?>
<svg xmlns="http://www.w3.org/2000/svg" xmlns:ev="http://www.w3.org/2001/xml-events" xmlns:xlink="http://www.w3.org/1999/xlink" baseProfile="full" height="512" version="1.1" width="512">
  <defs>
    <mask id="iconmask">
      <rect fill="white" height="512" rx="64" ry="64" width="512" x="0" y="0"/>
      <path d="m 339.79 60 h 469.64 c 40.359 0 73.172 33.094 73.172 73.172 v 369.32 c -36.984 -23.719 -80.203 -38.297 -127.13 -40.359 -142.74 -6.75 -264.61 104.2 -271.13 246.94 -6.75 143.02 103.92 264.66 246.94 271.4 53.391 2.625 103.92 -11.438 146.63 -37.5 l 4.6875 5.2031 v 99.516 c 0 40.125 -32.812 73.172 -73.172 73.172 h -676.18 c -40.359 0 -73.172 -33.094 -73.172 -73.172 l -0.046876 -707.72 h 173.48 c 58.594 0 106.27 -47.906 106.27 -106.27 z m 781.69 1063.2 c -23.953 22.922 -62.531 22.406 -85.688 -1.8281 l -104.2 -107.81 31.266 -29.953 -57.562 -59.625 c 9.0938 -7.3125 17.953 -15.375 26.062 -23.953 l 56.766 59.109 30.984 -29.672 103.92 107.81 c 23.203 24.234 22.406 62.766 -1.5469 85.969 z m -367.55 -627.98 c 125.02 5.7188 221.39 111.75 215.68 236.76 -6 124.78 -111.98 221.39 -236.76 215.39 -125.02 -5.7188 -221.39 -111.75 -215.68 -236.76 6 -124.78 111.98 -221.39 236.76 -215.39 z m -2.0625 44.812 c 100.27 4.6875 177.66 89.578 172.97 189.89 -4.6875 100.03 -89.859 177.37 -189.89 172.69 -100.27 -4.6875 -177.66 -89.578 -172.97 -189.89 4.6875 -100.03 89.859 -177.37 189.89 -172.69 z m -445.18 -480.05 -246.66 246.94 h 173.48 c 40.359 0 73.172 -33.094 73.172 -73.172 z m -137.48 308.11 h 108.89 l 39.047 -37.781 c 7.0312 -6.75 18.234 -6.5156 24.984 0.51562 s 6.5156 17.953 -0.51562 24.75 l -84.141 81.797 c -8.8594 -9.0938 -17.953 -17.953 -26.812 -27.328 -6.75 -4.9688 -16.688 -4.6875 -22.922 1.5469 -7.0312 6.75 -7.0312 17.953 -0.28125 24.75 l 36.984 38.297 c 6.75 7.0312 17.953 7.0312 24.75 0.28125 l 43.219 -41.953 v 78.422 h -143.26 v -143.26 z m 0 250.82 h 143.26 v 143.26 h -143.26 z m 0 250.82 h 143.26 v 143.26 h -143.26 z m 244.31 129.74 c -9.8906 0 -17.719 -7.8281 -17.719 -17.438 0 -9.8906 7.8281 -17.719 17.719 -17.719 h 167.21 c 22.125 14.859 46.641 26.812 72.422 35.156 z m 0 -582.66 c -9.8906 0 -17.719 -7.8281 -17.719 -17.719 0 -9.6562 7.8281 -17.438 17.719 -17.438 h 359.95 c 9.6562 0 17.719 7.8281 17.719 17.438 0 9.8906 -8.0625 17.719 -17.719 17.719 z m 0 81.234 c -9.8906 0 -17.719 -8.0625 -17.719 -17.719 s 7.8281 -17.719 17.719 -17.719 h 193.26 c -18.75 9.8906 -36.188 21.891 -52.078 35.438 z m 0 169.6 c -9.8906 0 -17.719 -7.8281 -17.719 -17.719 0 -9.6562 7.8281 -17.438 17.719 -17.438 h 51.328 c -3.6562 11.438 -6.75 23.203 -8.8594 35.156 z m 0 81.234 c -9.8906 0 -17.719 -8.0625 -17.719 -17.719 0 -9.8906 7.8281 -17.719 17.719 -17.719 h 37.5 c -0.28125 12 0 23.719 1.0312 35.438 z m 0 169.6 c -9.8906 0 -17.719 -8.0625 -17.719 -17.719 s 7.8281 -17.719 17.719 -17.719 h 86.484 c 8.3438 12.516 17.438 24.234 27.609 35.438 z" fill="black" transform="translate(64.0,64.0) scale(0.2946040958255061)"/>
    </mask>
  </defs>
  <rect fill="black" height="512" mask="url(#iconmask)" rx="64" ry="64" width="512" x="0" y="0"/>
</svg>
