<?xml version="1.0" encoding="utf-8" ?>
<svg xmlns="http://www.w3.org/2000/svg" xmlns:ev="http://www.w3.org/2001/xml-events" xmlns:xlink="http://www.w3.org/1999/xlink" baseProfile="full" height="512" version="1.1" width="512">
  <defs>
    <mask id="iconmask">
      <rect fill="white" height="512" rx="64" ry="64" width="512" x="0" y="0"/>
      <path d="m 320.76 318.94 27.703 5.7656 c 4.3125 0.84375 7.8281 3.9844 9.1406 8.1562 2.5312 8.0156 5.7188 15.75 9.6094 23.203 1.9219 3.7969 1.7344 8.3906 -0.60938 12 l -15.609 24 c -3.1875 4.7344 -2.5781 11.062 1.4531 15.094 l 27.375 27.375 h -0.046875 c 4.0781 4.125 10.453 4.7812 15.281 1.5469 l 24 -15.609 c 3.5625 -2.3438 8.1562 -2.5312 12 -0.60938 7.4062 3.7969 15.094 6.9844 23.016 9.6094 4.1719 1.3125 7.2656 4.7344 8.1562 9 l 5.7656 27.75 c 1.1719 5.6719 6.1875 9.7031 12 9.5625 h 38.391 c 5.8125 0.14062 10.875 -3.8906 12 -9.5625 l 5.625 -27.844 h 0.046875 c 0.84375 -4.2656 3.9844 -7.7344 8.1562 -9 7.9688 -2.5781 15.703 -5.7656 23.156 -9.6094 3.7969 -1.9688 8.3906 -1.7344 12 0.60938 l 24 15.609 v -0.046875 c 4.7812 3.2344 11.203 2.5781 15.234 -1.5469 l 27.234 -27.375 v 0.046875 c 4.0312 -4.0312 4.6875 -10.359 1.5469 -15.141 l -15.609 -24 c -2.2969 -3.6094 -2.5312 -8.2031 -0.5625 -12 3.8438 -7.4531 7.0781 -15.188 9.5625 -23.156 1.3125 -4.1719 4.7812 -7.2656 9 -8.1562 l 27.844 -5.7656 c 5.6719 -1.1719 9.75 -6.1875 9.6094 -12 v -38.391 c 0.14062 -5.8125 -3.9375 -10.875 -9.6094 -12 l -27.844 -5.7656 c -4.2188 -0.89062 -7.6875 -4.0312 -9 -8.1562 -2.4844 -7.9688 -5.7188 -15.656 -9.5625 -23.062 -1.9688 -3.7969 -1.7344 -8.3906 0.5625 -12 l 15.609 -24 c 3.1406 -4.7344 2.4844 -11.062 -1.5469 -15.094 l -27.234 -27.375 c -4.0312 -4.125 -10.453 -4.7812 -15.234 -1.5469 l -24 15.609 c -3.6094 2.2969 -8.2031 2.5312 -12 0.5625 -7.4531 -3.7969 -15.188 -6.9375 -23.156 -9.4688 -4.1719 -1.3594 -7.2188 -4.8281 -8.0625 -9.0938 l -5.7656 -27.844 c -1.125 -5.7188 -6.1875 -9.75 -12 -9.6094 h -38.391 c -5.8125 -0.14062 -10.828 3.8906 -12 9.6094 l -5.7656 27.844 c -0.84375 4.2656 -3.9844 7.7812 -8.1562 9.0938 -7.9219 2.5312 -15.609 5.7188 -23.016 9.4688 -3.8438 1.9688 -8.4375 1.7344 -12 -0.5625 l -24 -15.609 c -4.8281 -3.2344 -11.203 -2.5781 -15.281 1.5469 l -27.375 27.375 h 0.046875 c -4.0312 4.0312 -4.6406 10.359 -1.4531 15.094 l 15.609 24 c 2.3438 3.6094 2.5312 8.2031 0.60938 12 -3.8906 7.4062 -7.125 15.094 -9.6094 23.062 -1.3125 4.125 -4.7344 7.2656 -9 8.1562 l -27.844 5.7656 c -5.6719 1.125 -9.7031 6.1875 -9.6094 12 v 38.766 c 0 5.6719 4.0312 10.594 9.6094 11.719 z m 118.78 -90.938 c 28.312 -28.312 72.656 -32.719 105.94 -10.547 33.328 22.172 46.359 64.781 31.172 101.81 -15.141 37.031 -54.328 58.219 -93.656 50.625 -39.281 -7.5938 -67.734 -41.859 -68.062 -81.891 -0.14062 -22.5 8.7188 -44.109 24.609 -60 z m 694.08 -9.9375 -94.078 -54.234 22.688 -39.141 c 7.2188 -11.906 18.891 -20.438 32.391 -23.672 13.547 -3.2344 27.797 -0.9375 39.609 6.375 12.609 6.5156 21.984 17.859 26.016 31.453 s 2.3438 28.219 -4.6406 40.547 z m 14.672 117.94 c -9.5625 -9.5156 -22.547 -14.766 -36 -14.625 h -6.2344 l -122.06 212.16 -87.609 55.078 c -12.047 7.5938 -27.281 7.875 -39.609 0.75 s -19.641 -20.484 -19.078 -34.734 l 3.7031 -103.55 74.859 -129.61 h -204 0.046875 c -4.8281 12.844 -15.938 22.312 -29.391 25.078 l -18.938 3.8438 c -1.2188 3.375 -2.625 6.7031 -4.0781 9.9375 l 10.547 16.078 v 0.046875 c 10.547 15.891 8.3906 37.078 -5.1562 50.484 l -27.375 27.375 c -13.453 13.547 -34.594 15.703 -50.531 5.1562 l -16.078 -10.547 -9.8438 4.0781 -3.9375 18.844 c -3.375 17.297 -17.672 30.328 -35.156 32.156 v 320.76 h 640.55 v -452.76 c 0.1875 -13.5 -5.1094 -26.484 -14.625 -36 z m -197.29 438.61 c 0 7.7812 -6.2812 14.062 -14.062 14.156 h -356.72 c -7.8281 0 -14.156 -6.3281 -14.156 -14.156 v -256.55 c 0.09375 -14.391 11.766 -26.016 26.156 -26.062 h 166.31 c 14.391 0.046875 26.062 11.719 26.156 26.156 v 108 h 140.16 c 14.391 0 26.109 11.625 26.156 26.062 z m 178.08 -12 c -0.046875 14.391 -11.719 26.062 -26.156 26.156 h -90.469 c -14.391 -0.14062 -25.969 -11.812 -26.062 -26.156 v -123.37 c 0.09375 -14.391 11.672 -26.016 26.062 -26.156 h 0.84375 v -31.922 c 0 -5.4844 3.1875 -10.5 8.1562 -12.844 l 29.25 -16.312 c 4.4062 -2.5781 9.7969 -2.5781 14.156 0 l 30.234 17.391 h 0.046875 c 4.3125 2.4844 6.9844 7.0312 7.0781 12 v 31.922 h 0.70312 c 14.438 0.09375 26.109 11.766 26.156 26.156 z m -204 228 h 237.61 v 60 c -0.09375 27.609 -22.453 49.969 -50.062 50.016 h -187.31 z m -402.94 0 h 237.61 v 110.06 l -237.37 -0.046875 z m 262.55 -230.06 h 138.1 v -106.17 h -138.1 z m 79.312 -75.703 c 0 -2.8594 2.2969 -5.2031 5.1562 -5.2969 h 26.391 c 1.4062 0 2.7656 0.5625 3.75 1.5469 s 1.5469 2.3438 1.5469 3.75 v 26.297 c 0 1.3594 -0.5625 2.7188 -1.5469 3.7031 s -2.3438 1.5469 -3.75 1.5469 h -26.391 c -2.8594 -0.046875 -5.1562 -2.3906 -5.1562 -5.25 z m -57.141 0 c 0 -2.9062 2.3906 -5.2969 5.2969 -5.2969 h 26.391 c 2.8594 0.09375 5.1562 2.4375 5.1562 5.2969 v 26.297 c 0 2.8594 -2.2969 5.2031 -5.1562 5.25 h -26.391 c -2.9062 0 -5.2969 -2.3438 -5.2969 -5.25 z m -163.92 14.297 h 65.062 v 61.453 h -64.781 z m -48.703 61.453 h 20.531 v -75.656 c 0.046875 -7.7344 6.375 -14.016 14.156 -14.016 h 92.859 c 7.7812 0 14.109 6.2812 14.156 14.016 v 75.609 h 20.062 v -240 h -161.76 z m 97.219 -211.45 c -0.046875 -1.4062 0.46875 -2.7656 1.4531 -3.75 s 2.2969 -1.5469 3.7031 -1.5469 h 26.391 c 1.4062 0 2.7656 0.5625 3.75 1.5469 s 1.5469 2.3438 1.5469 3.75 v 26.859 c 0 1.4062 -0.5625 2.7656 -1.5469 3.75 s -2.3438 1.5469 -3.75 1.5469 h -26.391 c -2.8594 -0.09375 -5.1562 -2.4375 -5.1562 -5.2969 z m 0 65.531 v -0.046875 c 0 -2.8594 2.2969 -5.2031 5.1562 -5.25 h 26.391 c 1.4062 0 2.7656 0.5625 3.75 1.5469 s 1.5469 2.2969 1.5469 3.7031 v 26.438 c -0.09375 2.8594 -2.4375 5.1562 -5.2969 5.1562 h -26.391 c -2.8594 0 -5.1562 -2.3438 -5.1562 -5.1562 z m -69 -65.531 c 0 -2.9531 2.3438 -5.2969 5.25 -5.2969 h 26.438 c 1.3594 0 2.7188 0.5625 3.6562 1.5469 0.98438 0.98438 1.5 2.3438 1.5 3.75 v 26.859 c 0 2.8594 -2.2969 5.2031 -5.1562 5.2969 h -26.438 c -2.9062 0 -5.25 -2.3906 -5.25 -5.2969 z m 0 65.531 v -0.046875 c 0 -2.9062 2.3438 -5.25 5.25 -5.25 h 26.438 c 2.8594 0.046875 5.1562 2.3906 5.1562 5.25 v 26.438 c 0 2.8125 -2.3438 5.1562 -5.1562 5.1562 h -26.438 c -2.8594 0 -5.2031 -2.2969 -5.25 -5.1562 z m -265.45 -81.375 h -121.69 v -211.82 h 50.297 c 4.8281 12.844 15.938 22.312 29.391 25.078 l 18.938 3.8438 c 1.2188 3.375 2.625 6.7031 4.0781 9.9375 l -10.547 16.078 v 0.046876 c -10.547 15.891 -8.3906 37.078 5.1562 50.484 l 24 24 z m 151.31 319.64 h 654.61 v 108.94 h -252 v 0.046876 c -3.75 0 -7.3125 1.5 -9.9844 4.1719 -2.625 2.625 -4.0781 6.2344 -4.0781 9.9844 v 124.08 h -108.7 v -124.08 c 0 -7.7812 -6.2812 -14.109 -14.016 -14.156 h -265.82 c -3.75 0 -7.3125 1.5 -9.9844 4.1719 -2.625 2.625 -4.0781 6.2344 -4.0312 9.9844 v 124.08 h -109.08 v -416.16 c 0 -7.7344 -6.2812 -14.062 -14.062 -14.062 h -135.84 v -108.56 h 135.84 c 7.7812 0 14.062 -6.2812 14.062 -14.062 v -81.375 c 8.8594 0.75 17.766 -1.5469 25.172 -6.4688 l 16.219 -10.547 9.8438 4.0781 3.9375 18.844 c 3.75 18.844 20.391 32.344 39.609 32.156 h 14.531 v 334.78 c -0.09375 7.7344 6.0938 14.062 13.781 14.156 z m -273 -154.31 h 121.69 v 401.53 h -206.39 c -62.344 -1.3594 -112.45 -51.656 -113.53 -114 -0.75 -31.547 11.25 -62.016 33.281 -84.609 21.984 -22.594 52.172 -35.344 83.719 -35.391 h 41.531 c 21.938 0 39.703 -17.766 39.703 -39.703 z m -183.84 181.92 c -5.25 5.2031 -10.031 10.828 -14.391 16.828 v -600 c 0.14062 -41.719 33.891 -75.469 75.609 -75.609 h 82.922 c 3.1875 0 6.2344 1.2656 8.4844 3.5156 s 3.5156 5.2969 3.5156 8.4844 v 592.55 c 0 3.1875 -1.2656 6.2344 -3.5156 8.4844 s -5.2969 3.5156 -8.4844 3.5156 h -41.531 c -38.438 -0.09375 -75.375 15.094 -102.61 42.234 z m 963 -120 h 86.391 v -119.25 h -86.391 z m 21 -94.547 c 0 -2.6719 2.1562 -4.7812 4.8281 -4.7812 h 31.453 -0.046875 c 1.3125 0 2.5312 0.46875 3.4219 1.4062 0.89062 0.89062 1.4062 2.1094 1.4062 3.375 v 19.312 c 0 1.2656 -0.51562 2.4844 -1.4062 3.4219 -0.89062 0.89062 -2.1094 1.4062 -3.4219 1.4062 h -31.406 c -2.6719 0 -4.8281 -2.1562 -4.8281 -4.8281 z m 0 50.531 c 0 -2.6719 2.1562 -4.8281 4.8281 -4.8281 h 31.453 -0.046875 c 1.3125 0 2.5312 0.51562 3.4219 1.4062 0.89062 0.9375 1.4062 2.1562 1.4062 3.4219 v 19.312 c 0 1.2656 -0.51562 2.4844 -1.4062 3.375 -0.89062 0.9375 -2.1094 1.4062 -3.4219 1.4062 h -31.406 c -2.6719 0 -4.8281 -2.1562 -4.8281 -4.7812 z m 38.531 -103.45 h -32.531 v -24 l 16.219 -9.375 16.312 9.375 z m -198 -166.22 149.53 -258.47 94.078 54.375 -149.29 258.47 z m -7.5469 28.078 81.141 46.781 -68.391 42.938 -0.046875 0.046876 c -3.2344 2.0625 -7.3125 2.0625 -10.547 0 -3.375 -1.8281 -5.3438 -5.3906 -5.1562 -9.2344 z m -408.98 -147.56 c -18.797 -18.891 -21.703 -48.469 -6.8438 -70.594 14.859 -22.172 43.266 -30.75 67.922 -20.531 24.609 10.219 38.578 36.422 33.375 62.578 s -28.172 44.953 -54.844 44.953 c -14.859 0 -29.109 -5.9062 -39.609 -16.406 z" fill="black" transform="translate(64.0,64.0) scale(0.28370328537270184)"/>
    </mask>
  </defs>
  <rect fill="black" height="512" mask="url(#iconmask)" rx="64" ry="64" width="512" x="0" y="0"/>
</svg>
