<?xml version="1.0" encoding="utf-8" ?>
<svg xmlns="http://www.w3.org/2000/svg" xmlns:ev="http://www.w3.org/2001/xml-events" xmlns:xlink="http://www.w3.org/1999/xlink" baseProfile="full" height="512" version="1.1" width="512">
  <defs>
    <mask id="iconmask">
      <rect fill="white" height="512" rx="64" ry="64" width="512" x="0" y="0"/>
      <path d="M 150,20.282 l 0,109.436 c 0,11.194 -9.088,20.282 -20.282,20.282 l -109.436,-0 c -11.194,-0 -20.282,-9.088 -20.282,-20.282 l 0,-109.436 c 0,-11.194 9.088,-20.282 20.282,-20.282 l 109.436,-0 c 11.194,-0 20.282,9.088 20.282,20.282 Z m -49.329,43.835 c 1.062,-2.87 1.637,-6.097 1.633,-9.552 c -0.002,-3.501 -0.952,-6.828 -2.5,-9.78 c -2.33,-4.433 -5.981,-8.123 -10.503,-10.803 c -4.52,-2.666 -9.976,-4.295 -15.899,-4.295 c -7.299,-0.018 -13.364,1.885 -17.94,4.52 c -4.595,2.622 -6.577,5.677 -6.577,5.677 c -0.772,0.671 -1.208,1.647 -1.19,2.666 c 0.022,1.022 0.491,1.979 1.288,2.615 l 6.36,5.097 c 1.296,1.036 3.152,0.997 4.402,-0.092 c 0,0 0.782,-1.412 3.231,-2.811 c 2.462,-1.39 5.655,-2.508 10.426,-2.525 c 4.164,-0.007 7.794,1.544 10.27,3.668 c 1.23,1.053 2.15,2.228 2.714,3.307 c 0.567,1.085 0.775,2.034 0.771,2.756 c -0.011,2.438 -0.485,4.031 -1.169,5.387 c -0.521,1.017 -1.201,1.918 -2.077,2.789 c -1.306,1.308 -3.08,2.514 -5.069,3.625 c -1.99,1.121 -4.135,2.111 -6.303,3.305 c -2.473,1.37 -5.093,3.339 -7.027,6.293 c -0.965,1.458 -1.72,3.131 -2.199,4.891 c -0.485,1.767 -0.705,3.615 -0.705,5.501 l 0,3.665 c 0,1.896 1.54,3.436 3.437,3.436 l 8.277,0 c 1.897,0 3.435,-1.54 3.435,-3.436 l -0,-3.665 c -0,-0.727 0.083,-1.196 0.163,-1.492 c 0.137,-0.445 0.213,-0.556 0.438,-0.828 c 0.228,-0.256 0.689,-0.651 1.54,-1.121 c 1.241,-0.697 3.237,-1.639 5.499,-2.862 c 3.385,-1.852 7.498,-4.363 10.969,-8.508 c 1.727,-2.07 3.252,-4.559 4.305,-7.428 Z m -39.828,46.858 c 0,5.155 4.184,9.341 9.344,9.341 c 5.156,-0 9.34,-4.186 9.34,-9.341 c -0,-5.16 -4.184,-9.344 -9.34,-9.344 c -5.16,0 -9.344,4.184 -9.344,9.344 Z" fill="black" transform="translate(64.0,64.0) scale(2.133333333333333)"/>
    </mask>
  </defs>
  <rect fill="black" height="512" mask="url(#iconmask)" rx="64" ry="64" width="512" x="0" y="0"/>
</svg>
