<?xml version="1.0" encoding="utf-8" ?>
<svg xmlns="http://www.w3.org/2000/svg" xmlns:ev="http://www.w3.org/2001/xml-events" xmlns:xlink="http://www.w3.org/1999/xlink" baseProfile="full" height="512" version="1.1" width="512">
  <defs>
    <mask id="iconmask">
      <rect fill="white" height="512" rx="64" ry="64" width="512" x="0" y="0"/>
      <path d="m 302.9 651.1 c -3.6094 0.84375 -6.9844 2.3906 -9.9844 4.5469 -0.09375 0.14062 1.0312 0.32812 2.25 1.0781 2.2969 1.3125 4.8281 2.2969 7.4062 2.8594 2.8594 0.60938 5.8125 0.84375 8.7656 0.65625 3.9375 -0.32812 7.1719 -1.7344 6.8906 -4.8281 0 -1.5 -0.46875 -2.9531 -1.3594 -4.125 -0.51562 -0.5625 -1.1719 -0.9375 -1.875 -1.125 l -0.28125 -0.046875 -0.46875 -0.14062 h -0.046875 c -0.60938 -0.14062 -1.2188 -0.23438 -1.875 -0.23438 -3.1875 -0.09375 -6.375 0.375 -9.4219 1.3594 z m 22.359 -13.078 c 0.46875 0.32812 0.9375 0.70312 1.4062 1.0781 0.32812 -0.375 0.65625 -0.79688 0.98438 -1.1719 l 0.046875 0.046875 c 2.0625 -2.25 4.5938 -4.0781 7.3594 -5.3438 -2.5312 -26.344 -3.2812 -52.875 -2.1562 -79.312 -0.65625 -0.046875 -1.3125 -0.046875 -2.0156 -0.046875 -1.3125 0.14062 -2.5781 0.32812 -3.75 0.51562 0.28125 11.672 0.5625 34.969 0 55.359 -0.28125 11.156 -0.89062 21.516 -1.875 28.875 z m 484.13 -261.52 c 0.1875 -2.5312 0.375 -5.1094 0.51562 -7.7812 v 0.046875 c 0.51562 -23.672 3.7031 -47.25 9.4688 -70.219 -5.9062 4.875 -10.547 11.156 -13.453 18.281 -7.0312 15.609 -10.688 32.484 -10.875 49.594 0.09375 1.3594 -0.79688 2.5781 -2.1094 3 -1.3125 0.375 -2.7188 -0.1875 -3.375 -1.4062 -8.0625 -12.75 -15.281 -25.969 -21.656 -39.656 -2.7188 -5.9531 -5.2031 -12 -7.2656 -18 h 0.046875 c -0.46875 16.688 0.60938 33.375 3.3281 49.828 0.60938 1.5 -0.14062 3.1875 -1.6406 3.7969 s -3.1875 -0.09375 -3.7969 -1.5938 c -5.25 -13.312 -13.453 -25.219 -23.953 -34.922 -5.0156 -3.9844 -10.734 -6.9844 -16.875 -8.9062 4.7344 4.7344 9 9.9375 12.656 15.516 8.2031 11.109 13.359 24.141 15.047 37.828 0 1.3594 -0.89062 2.5312 -2.2031 2.8594 s -2.6719 -0.28125 -3.3281 -1.4531 c -1.4062 -2.3906 -3.2344 -4.5938 -5.2969 -6.4688 -4.4531 -3.9375 -9.8438 -6.6562 -15.656 -7.875 -5.1094 -1.2188 -10.453 -0.5625 -15.094 1.8281 l -0.375 0.23438 c 18 9.75 32.109 25.359 39.984 44.25 l 0.51562 1.0312 c 19.031 -13.266 40.266 -23.062 62.719 -28.969 l 2.6719 -0.84375 z m -289.31 26.109 h -0.046875 c 2.625 -7.5469 3.9375 -15.469 3.9844 -23.484 1.3594 -19.125 2.9062 -40.359 22.734 -47.484 h -0.046875 c -2.1562 -0.84375 -4.5 -1.2188 -6.8438 -1.0781 -3.0469 0.09375 -6.0469 0.70312 -8.9062 1.7344 -3.2344 1.0781 -6.2344 2.5781 -9.0469 4.5 -7.8281 4.6875 -12.75 13.078 -12.938 22.219 0.046875 1.5938 -1.125 2.9062 -2.7188 3 -1.5469 0.09375 -2.9062 -1.0312 -3.0938 -2.5781 -3.8906 -25.406 -0.98438 -51.375 8.4375 -75.281 2.0625 -5.9531 4.125 -11.812 5.7188 -18.281 h -0.046875 c -9.375 6.75 -16.828 15.797 -21.703 26.297 -7.8281 13.594 -11.812 29.109 -11.391 44.812 0.23438 1.5469 -0.75 2.9531 -2.25 3.2812 s -3 -0.5625 -3.4219 -2.0156 c -4.6875 -14.484 -10.547 -28.547 -17.484 -42.047 -3.0938 -6.0938 -6.6094 -11.953 -10.453 -17.578 2.9531 12.281 7.875 32.672 12.094 50.203 l 6 25.078 c 0.9375 2.7656 1.5938 5.5781 2.0156 8.4844 0.23438 1.5938 -0.79688 3.0938 -2.3906 3.375 -1.5938 0.23438 -3.0938 -0.79688 -3.375 -2.3906 -0.046875 -0.1875 -0.70312 -3.0938 -1.8281 -7.7344 -0.70312 -1.9219 -1.4531 -3.8906 -2.3438 -5.7656 -4.9219 -10.125 -11.812 -19.219 -20.344 -26.578 -5.9531 -6.0938 -13.969 -9.75 -22.453 -10.312 30.234 35.438 32.25 54.422 34.359 74.812 l 0.09375 1.0312 c 23.531 3.7031 46.406 8.25 67.641 13.781 z m -126.66 226.74 c -3.6562 0.79688 -7.0312 2.3438 -10.031 4.5469 -0.09375 0.14062 1.0312 0.32812 2.25 1.0781 v -0.046874 c 2.2969 1.3594 4.8281 2.2969 7.4062 2.8594 2.8594 0.65625 5.8125 0.89063 8.7656 0.65625 3.9375 -0.32812 7.1719 -1.7344 6.8906 -4.8281 v 0.046874 c 0 -1.5 -0.46875 -2.9531 -1.3594 -4.1719 -1.2656 -1.0781 -2.9062 -1.5938 -4.5469 -1.5469 -3.1875 -0.046874 -6.375 0.42188 -9.375 1.4062 z m -23.438 -3.5625 c -1.4062 2.25 -2.2969 4.8281 -2.4844 7.5 -0.70312 -0.23437 -1.4062 -0.46875 -2.1562 -0.70312 h 0.046875 c -4.875 -1.5 -9.8906 -2.3906 -14.953 -2.625 -2.2969 -23.906 -2.9531 -47.953 -2.0156 -71.953 1.3125 0.65625 2.625 1.3125 3.9844 2.0156 h 0.046875 c 14.062 8.1562 30.141 12.234 46.406 11.812 4.2656 0.28125 7.9688 -2.9531 8.2969 -7.2188 -0.32812 -3.8906 -1.7812 -7.5938 -4.2188 -10.594 -3.8906 -6.1875 -7.2656 -12.656 -10.078 -19.406 h 18.375 c 0.84375 -0.046876 1.6406 -0.1875 2.4375 -0.42188 4.125 -1.3594 6.3281 -5.8125 4.9219 -9.8906 -5.1094 -7.7812 -11.344 -14.719 -18.562 -20.578 -1.8281 -1.7344 -3.6562 -3.4688 -5.3906 -5.1094 h 0.28125 c 5.9062 -0.14063 11.766 -0.23438 17.719 -0.23438 v -0.046874 c 3.4688 0 6.5156 -2.2969 7.5 -5.625 0.9375 -3.3281 -0.375 -6.8906 -3.2812 -8.7656 -7.5938 -5.1094 -14.531 -11.156 -20.531 -18.047 -1.5 -1.7344 -2.9062 -3.5156 -4.1719 -5.2969 5.0156 -0.65625 9.7031 -2.8125 13.406 -6.2812 0.1875 -0.14062 0.32812 -0.28125 0.46875 -0.42187 3.1406 -2.9531 3.2812 -7.9219 0.28125 -11.016 -4.1719 -4.0781 -8.6719 -7.7812 -13.5 -11.062 -6.9844 -4.7344 -13.406 -10.219 -19.172 -16.406 1.5938 -0.375 3.375 -0.84375 5.6719 -1.4531 2.3438 -0.60938 5.25 -1.4062 8.3906 -2.2031 h -0.046875 c 3.7031 -0.70312 6.3281 -3.9375 6.3281 -7.6875 -0.046875 -3.75 -2.7188 -6.9375 -6.375 -7.6406 48.938 4.0781 97.453 12.75 144.79 25.922 24.375 6.6094 47.578 17.062 68.672 30.984 0.375 0.28125 0.75 0.5625 1.125 0.79687 12.141 8.2031 21.703 19.641 27.609 33 10.5 26.578 -6.5156 40.312 -34.219 51.281 -12.75 5.0625 -27.141 9.4219 -42.281 14.016 -48.281 14.672 -103.45 31.406 -130.03 74.438 -0.84375 -2.9531 -2.3906 -5.6719 -4.5 -7.9688 -3.9375 -4.0781 -9.375 -6.4219 -15.094 -6.5625 -5.0156 -0.1875 -10.031 0.51562 -14.812 2.0156 -7.3125 1.875 -13.875 5.8594 -18.891 11.438 z m 12.75 59.578 v 0.046874 c -1.6875 0.79688 -3.0938 2.1094 -4.0781 3.7031 -0.5625 1.9688 0.14062 4.0781 1.7344 5.3438 0.60938 0.5625 1.3125 0.9375 2.0625 1.0781 0.14062 0.046876 0 0.1875 0.09375 0.14063 0.51562 -0.32813 0.84375 -1.875 0.70312 -5.2969 h 0.046875 c 0 -1.6875 -0.1875 -3.3281 -0.5625 -4.9688 z m -40.781 8.5781 -0.046875 0.046876 c -3.6094 0.79687 -6.9844 2.3438 -9.9844 4.5 -0.09375 0.14062 1.0312 0.32812 2.25 1.0781 2.2969 1.3594 4.8281 2.2969 7.4062 2.8594 2.8594 0.65625 5.8125 0.89062 8.7656 0.65625 3.9375 -0.32813 7.1719 -1.7344 6.8906 -4.8281 v 0.046876 c 0 -1.5 -0.46875 -2.9531 -1.3594 -4.1719 -1.2656 -1.0781 -2.9062 -1.5938 -4.5469 -1.5469 -3.1875 -0.09375 -6.375 0.42187 -9.375 1.4062 z m 20.812 -14.016 c 0.84375 0.46875 1.6406 0.98437 2.3906 1.5938 0.51562 -0.89063 1.125 -1.7344 1.7812 -2.5781 -0.84375 0.23438 -1.6406 0.42188 -2.4844 0.60938 -0.5625 0.14062 -1.125 0.23437 -1.6875 0.375 z m 501.24 -174.47 c -0.84375 12.047 -1.6406 23.156 -9.1875 29.109 -1.4531 2.25 -3 4.3594 -4.7344 6.375 h 46.875 c 4.3125 0.046876 7.8281 3.5156 7.8281 7.8281 s -3.5156 7.8281 -7.8281 7.8281 h -126.1 c -4.3125 0 -7.8281 -3.5156 -7.8281 -7.8281 s 3.5156 -7.7812 7.8281 -7.8281 h 24.844 -0.046875 c -2.0156 -2.4844 -3.5156 -5.3906 -4.4062 -8.5312 -1.5 -6.4219 -2.5312 -12.938 -3.0938 -19.547 -1.6875 -15.984 -3.2812 -30.891 -28.688 -59.906 -1.4062 -1.3594 -2.0156 -3.3281 -1.6875 -5.2031 0.32812 -1.9219 1.5469 -3.5156 3.2812 -4.3594 1.6406 -0.75 3.4219 -1.2188 5.2031 -1.4531 9.6094 -0.14062 18.844 3.6094 25.594 10.406 0.84375 0.70313 1.6406 1.4531 2.4844 2.2031 -3.9375 -16.5 -7.9688 -33.422 -9.375 -39.844 -1.1719 -2.5312 -0.32812 -5.5312 1.9219 -7.1719 2.2969 -1.6406 5.3906 -1.4062 7.4531 0.51563 6.75 7.2188 12.328 15.422 16.594 24.328 2.3906 4.5938 4.6406 9.4219 6.7031 14.156 1.875 -6.0469 4.3125 -11.906 7.2188 -17.484 5.2031 -12.328 14.906 -22.219 27.141 -27.703 1.9688 -0.51562 4.0312 0 5.5312 1.3594 1.4531 1.4062 2.1094 3.4219 1.7344 5.3906 -1.4531 7.0781 -3.4688 14.062 -6 20.859 -4.6406 11.766 -7.2188 24.234 -7.6406 36.844 1.2188 -1.0312 2.4375 -1.9688 3.75 -2.8594 2.9062 -1.9688 6.0938 -3.5625 9.4219 -4.7344 3.1875 -1.0781 6.5156 -1.7344 9.8906 -1.8281 5.9062 -0.5625 11.719 1.875 15.469 6.5156 1.3125 1.5938 1.7344 3.75 1.0312 5.7188 s -2.3438 3.4219 -4.4062 3.7969 c -14.625 2.8594 -15.75 18.797 -16.781 33.047 z m -16.781 20.156 c 3.7969 -2.5781 4.4062 -11.391 5.1094 -21 h -0.046875 c -0.5625 -12.516 2.9531 -24.844 9.9844 -35.203 -2.25 0.79688 -4.3594 1.875 -6.3281 3.2344 -5.5312 3.2344 -9 9.0938 -9.1875 15.469 0.046875 3.1406 -2.3438 5.7656 -5.4844 6 -3.1406 0.1875 -5.8594 -2.1094 -6.1875 -5.2031 -3.2812 -21.516 -0.84375 -43.547 7.125 -63.797 l 1.125 -3.2344 c -3.0938 3.8906 -5.8125 8.1094 -8.1094 12.562 -6.1406 10.641 -9.2812 22.734 -9.0469 35.062 0.42188 3 -1.5469 5.8594 -4.5469 6.5156 s -6 -1.0781 -6.8438 -4.0312 c -3 -9.2812 -6.6094 -18.422 -10.828 -27.234 1.4062 5.8125 2.9062 11.859 4.2656 17.578 l 4.9219 20.625 0.046875 -0.046876 c 0.79688 2.4375 1.4062 4.9688 1.7812 7.5 0.51562 3.1875 -1.5938 6.1875 -4.7812 6.75 -3.1406 0.5625 -6.1875 -1.5469 -6.75 -4.7344 -0.046875 -0.14063 -0.5625 -2.3438 -1.4062 -6 l -0.046875 0.046874 c -0.51562 -1.5 -1.0781 -2.9531 -1.7344 -4.3594 -3.8438 -7.9688 -9.2812 -15.094 -15.984 -20.859 -2.1562 -1.875 -4.4531 -3.5625 -6.8906 -5.0156 13.406 15.469 21.328 34.969 22.406 55.406 0.51562 6.0938 1.4531 12.094 2.8594 18 1.5938 4.125 4.5938 7.5469 8.5312 9.7031 0.98438 0.60938 2.0156 1.125 3.0469 1.5938 h 17.531 c 5.7656 -3.0938 10.547 -7.7812 13.734 -13.547 0.46875 -0.70313 1.0312 -1.3125 1.7344 -1.7812 z m -533.95 283.22 c 3.7969 -2.5781 4.4062 -11.391 5.1094 -21 -0.5625 -12.516 2.9062 -24.891 9.9844 -35.203 -2.25 0.79688 -4.4062 1.875 -6.375 3.1875 -5.4844 3.2812 -8.9531 9.1406 -9.1875 15.516 0.09375 3.1406 -2.2969 5.7656 -5.4375 6 -3.1406 0.1875 -5.8594 -2.1094 -6.2344 -5.2031 -3.2812 -21.562 -0.79688 -43.547 7.1719 -63.844 l 1.125 -3.2344 c -3.0938 3.9375 -5.8125 8.1562 -8.1094 12.609 -6.1875 10.641 -9.3281 22.734 -9.0469 35.016 0.42188 3.0469 -1.5469 5.9062 -4.5469 6.5625 s -6 -1.0781 -6.8906 -4.0312 c -3 -9.3281 -6.6094 -18.422 -10.781 -27.281 1.4531 5.9062 2.9531 12.094 4.3594 17.906 l 4.875 20.297 c 0.79688 2.4375 1.4062 4.9219 1.7344 7.5 0.5625 3.1406 -1.5938 6.1875 -4.7344 6.75 -3.1875 0.51562 -6.1875 -1.5469 -6.7969 -4.7344 -0.046875 -0.14062 -0.5625 -2.3906 -1.4062 -6 -0.51562 -1.4531 -1.0781 -2.9062 -1.7812 -4.3125 -3.8438 -8.0156 -9.2344 -15.094 -15.938 -20.906 -2.1562 -1.875 -4.4531 -3.5156 -6.9375 -4.9688 13.453 15.469 21.328 34.969 22.453 55.406 0.51562 6.0469 1.4531 12.047 2.8125 17.953 1.6406 4.1719 4.6406 7.5938 8.5312 9.7031 0.98438 0.60938 2.0156 1.1719 3.0938 1.6406 h 17.484 c 5.8125 -3.0938 10.594 -7.7812 13.781 -13.547 0.42188 -0.70312 1.0312 -1.3125 1.6875 -1.7812 z m 564.94 -65.25 c 0.70312 9.6094 1.3125 18.422 5.1094 21 0.65625 0.46875 1.2656 1.0781 1.6875 1.7812 3.1875 5.7656 7.9688 10.453 13.781 13.547 h 17.484 c 1.0781 -0.46875 2.1094 -1.0312 3.0938 -1.6406 3.8906 -2.1094 6.9375 -5.5312 8.5312 -9.7031 1.3594 -5.9062 2.2969 -11.906 2.8125 -17.953 1.125 -20.438 9 -39.938 22.453 -55.406 -2.4844 1.4531 -4.7812 3.0938 -6.9375 4.9688 -6.6562 5.8125 -12.094 12.891 -15.938 20.859 -0.65625 1.4531 -1.2656 2.9062 -1.7812 4.4062 -0.84375 3.6094 -1.4062 5.8125 -1.4062 5.9531 -0.60938 3.1875 -3.6094 5.2969 -6.7969 4.7344 -3.1406 -0.5625 -5.2969 -3.6094 -4.7344 -6.75 0.32812 -2.5781 0.9375 -5.0625 1.7812 -7.5 l 5.0156 -20.812 c 1.3594 -5.6719 2.8125 -11.625 4.2188 -17.344 h -0.046875 c -4.1719 8.8125 -7.7812 17.906 -10.781 27.234 -0.89062 2.9531 -3.8906 4.6875 -6.8906 4.0312 s -4.9688 -3.5156 -4.5469 -6.5625 c 0.28125 -12.281 -2.8594 -24.375 -9.0469 -35.016 -2.2969 -4.4531 -5.0156 -8.6719 -8.1094 -12.609 l 1.125 3.2344 c 7.9688 20.297 10.453 42.281 7.1719 63.844 -0.375 3.0938 -3.0938 5.3906 -6.2344 5.2031 -3.0938 -0.23438 -5.5312 -2.8594 -5.4375 -6 -0.23438 -6.375 -3.6562 -12.234 -9.1875 -15.516 -1.9688 -1.3125 -4.125 -2.3906 -6.375 -3.1875 7.0781 10.312 10.594 22.688 9.9844 35.203 z m -173.63 -97.406 c 0.46875 6.7969 0.9375 13.078 3.1875 14.578 0.70312 0.46875 1.2656 1.0781 1.6875 1.7812 2.0625 3.6562 4.9688 6.7031 8.4844 8.9531 h 14.344 c 0.28125 -0.14062 0.5625 -0.32812 0.89062 -0.51562 h -0.046875 c 2.625 -1.3594 4.6406 -3.6094 5.7656 -6.3281 0.98438 -4.3594 1.6875 -8.7656 2.0625 -13.266 0.5625 -11.953 4.3594 -23.531 10.969 -33.516 -3.4688 3.5625 -6.3281 7.6875 -8.4844 12.188 -0.46875 1.0312 -0.89062 2.0625 -1.2656 3.0938 l -1.0312 4.2656 c -0.5625 3.1875 -3.6094 5.2969 -6.75 4.7344 -3.1875 -0.5625 -5.2969 -3.5625 -4.7812 -6.75 0.28125 -1.9688 0.75 -3.8906 1.4062 -5.8125 l 2.1094 -8.7656 -0.46875 1.4531 h -0.046875 c -0.84375 2.9531 -3.8438 4.7344 -6.8438 4.0312 -3 -0.65625 -4.9688 -3.5156 -4.5469 -6.5156 0.1875 -8.5781 -1.9688 -17.016 -6.1875 -24.469 3.6094 12.797 4.4062 26.203 2.4375 39.375 -0.32812 3.0938 -3.0469 5.3906 -6.1875 5.2031 -3.1406 -0.23438 -5.5312 -2.8594 -5.4844 -6 -0.09375 -3.9844 -2.1562 -7.6875 -5.5312 -9.8438 2.8125 7.0312 4.2656 14.531 4.3125 22.125 z m -4.4531 23.531 c -5.3438 -6.2812 -7.9688 -14.484 -7.2188 -22.688 -0.70312 -10.125 -1.5469 -21.469 -11.391 -23.391 -2.0156 -0.42188 -3.7031 -1.875 -4.4062 -3.8438 s -0.28125 -4.125 1.0781 -5.7188 c 3.0938 -3.7969 7.875 -5.7656 12.703 -5.3906 2.6719 0.09375 5.2969 0.60938 7.8281 1.5 2.625 0.89062 5.1094 2.1562 7.4531 3.7031 l 0.32812 0.23438 c -0.65625 -8.25 -2.4844 -16.312 -5.4844 -24 -1.9219 -5.1094 -3.4688 -10.406 -4.5469 -15.797 -0.375 -1.9688 0.28125 -3.9844 1.7812 -5.3906 1.4531 -1.3594 3.5156 -1.875 5.4844 -1.3594 9.5625 4.1719 17.156 11.859 21.234 21.469 1.6406 3.1406 3.0469 6.4219 4.2656 9.75 1.125 -2.4375 2.2969 -4.875 3.5156 -7.2188 3.2812 -6.8438 7.5469 -13.125 12.75 -18.609 2.0156 -1.9219 5.1094 -2.1562 7.4062 -0.5625 2.2969 1.6406 3.0938 4.6406 1.9688 7.1719 -0.98438 4.5938 -3.375 14.625 -5.9062 25.125 5.1094 -4.5938 11.812 -7.0312 18.703 -6.7969 1.5 0.1875 2.9531 0.60938 4.3594 1.2188 1.7344 0.84375 2.9531 2.4375 3.2812 4.3594 0.32812 1.875 -0.28125 3.8438 -1.6875 5.2031 -12.281 11.438 -19.828 27.141 -21.047 43.922 -0.42188 5.0156 -1.1719 9.9375 -2.3438 14.859 -0.375 1.4062 -0.9375 2.7656 -1.6406 4.0312 h 44.391 c 2.0625 0 4.0781 0.84375 5.5312 2.2969 1.5 1.4531 2.2969 3.4688 2.2969 5.5312 0 2.1094 -0.79688 4.0781 -2.2969 5.5781 -1.4531 1.4531 -3.4688 2.25 -5.5312 2.25 h -108.42 c -2.0625 0 -4.0781 -0.79688 -5.5781 -2.25 -1.4531 -1.5 -2.2969 -3.4688 -2.2969 -5.5781 0 -2.0625 0.84375 -4.0781 2.2969 -5.5312 1.5 -1.4531 3.5156 -2.2969 5.5781 -2.2969 h 16.828 c -0.42188 -0.5625 -0.84375 -1.1719 -1.2188 -1.8281 z m -194.48 -67.781 c -49.875 14.766 -79.875 65.531 -68.719 116.34 0.42188 3.2344 3.375 5.4375 6.6094 5.0156 3.1875 -0.46875 5.4375 -3.4219 4.9688 -6.6094 -10.406 -45.422 16.547 -91.031 61.359 -103.83 3.0469 -1.1719 4.5469 -4.5469 3.375 -7.5469 s -4.5469 -4.5 -7.5938 -3.375 z m 130.03 -50.906 v 0.046875 c -9.375 15.328 -22.078 28.312 -37.125 38.109 -26.859 20.156 -51.891 38.953 -42.75 98.906 l -0.046875 -0.046875 c 0.23438 1.5469 1.0781 2.9531 2.3438 3.8438 1.2188 0.9375 2.8125 1.3594 4.3594 1.125 1.5 -0.23438 2.9062 -1.0781 3.8438 -2.3438 0.89062 -1.2656 1.3125 -2.8125 1.0781 -4.3594 -8.0625 -53.109 14.25 -69.844 38.203 -87.797 h -0.046875 c 16.5 -10.688 30.328 -25.031 40.453 -41.859 1.5469 -2.8125 0.46875 -6.375 -2.3438 -7.9219 -2.8594 -1.5469 -6.4219 -0.51562 -7.9688 2.3438 z m 1.5 238.03 c -2.4844 -2.0156 -2.8594 -5.7188 -0.84375 -8.2031 2.0625 -2.5312 5.7188 -2.9062 8.25 -0.84375 10.828 8.2031 22.266 15.656 34.219 22.266 34.547 20.391 74.578 43.969 88.641 91.688 0.42188 1.4531 0.28125 3.0938 -0.46875 4.4531 s -2.0156 2.3906 -3.5156 2.8125 c -1.5 0.46875 -3.0938 0.28125 -4.4531 -0.46875 s -2.3906 -2.0156 -2.8125 -3.5156 c -12.75 -43.266 -50.625 -65.578 -83.391 -84.891 -12.422 -6.8906 -24.328 -14.672 -35.625 -23.297 z m -88.172 7.4062 c -0.51562 -1.4531 -0.46875 -3.0469 0.14062 -4.4531 0.65625 -1.4531 1.8281 -2.5312 3.2812 -3.0938 3.0469 -1.125 6.4219 0.375 7.5469 3.4219 6.8438 16.406 10.594 33.891 11.109 51.609 -0.09375 21.328 -7.9219 41.859 -21.938 57.844 -2.1094 2.4844 -5.7656 2.8125 -8.25 0.75 s -2.8125 -5.7188 -0.75 -8.2031 c 12.281 -13.969 19.125 -31.828 19.266 -50.391 -0.5625 -16.359 -4.0781 -32.438 -10.406 -47.484 z m -94.688 -45.141 c -1.9688 -2.5781 -1.5 -6.2812 1.0781 -8.2031 2.5781 -1.9688 6.2344 -1.5 8.2031 1.0781 5.7656 7.3125 10.922 15.047 15.422 23.156 4.9219 8.5781 7.6406 18.188 7.9688 27.984 0 3.2812 -2.625 5.9062 -5.8594 5.9062 -3.2812 0 -5.9062 -2.625 -5.9062 -5.9062 -0.32812 -7.9219 -2.5781 -15.656 -6.5625 -22.5 -4.1719 -7.5469 -9 -14.766 -14.344 -21.516 z m 49.031 -85.266 h -0.046875 c 0.70312 -3.1875 3.8438 -5.1562 6.9844 -4.4531 3.1875 0.70312 5.1562 3.8438 4.4531 6.9844 -3.3281 13.547 -3.5156 27.703 -0.51562 41.344 3.5156 13.453 8.8125 26.391 15.75 38.438 0.75 1.3594 0.89062 2.9531 0.46875 4.4531 -0.46875 1.5 -1.5 2.7188 -2.8594 3.4688 -1.3594 0.70312 -2.9531 0.89062 -4.4531 0.42188 s -2.7188 -1.5 -3.4688 -2.8594 c -7.4531 -12.938 -13.125 -26.859 -16.875 -41.344 -3.375 -15.328 -3.1875 -31.219 0.51562 -46.453 z m 349.97 213.98 c -12.328 -27.562 -31.594 -51.469 -55.969 -69.281 -27.047 -19.734 -57.047 -35.062 -88.922 -45.422 -34.406 -11.625 -64.828 -32.719 -87.891 -60.797 -6.9844 -8.9531 -12.094 -19.172 -15.094 -30.094 -2.625 -9.9375 -2.2031 -20.438 1.0781 -30.188 5.9531 -14.953 16.266 -27.844 29.625 -36.844 42.188 -31.688 60.516 -64.172 63.562 -92.109 1.5938 -13.641 -0.75 -27.422 -6.75 -39.75 -1.0781 -2.1562 -2.2031 -4.2188 -3.4688 -6.2344 17.156 -11.484 33.469 -24.188 48.891 -37.922 17.906 -15.703 28.031 -24.562 73.125 -39.188 20.906 -5.2969 42.75 -5.7188 63.844 -1.1719 33.891 6.1875 68.719 5.1094 102.14 -3.1875 57.891 57 92.156 127.5 92.156 203.68 -1.2656 70.312 -28.922 137.53 -77.438 188.39 h -57.375 c 2.0625 -2.4844 3.5625 -5.3906 4.4062 -8.5312 1.5469 -6.4219 2.5781 -12.984 3.1406 -19.547 1.6875 -15.984 3.2812 -30.891 28.688 -59.906 v -0.046875 c 1.3594 -1.3594 2.0156 -3.2812 1.6875 -5.1562 -0.32812 -1.9219 -1.5469 -3.5625 -3.3281 -4.3594 -1.6406 -0.75 -3.375 -1.2656 -5.2031 -1.4531 -9.6094 -0.1875 -18.844 3.5625 -25.594 10.359 -0.84375 0.70312 -1.6406 1.4531 -2.4844 2.2031 3.9844 -16.5 8.0156 -33.422 9.375 -39.844 l 0.046875 0.046875 c 1.125 -2.5312 0.32812 -5.5781 -1.9688 -7.1719 -2.2969 -1.6406 -5.3906 -1.4062 -7.4062 0.51562 -6.75 7.2188 -12.375 15.422 -16.641 24.328 -2.3906 4.5938 -4.6406 9.4219 -6.7031 14.156 -1.875 -6.0469 -4.2656 -11.906 -7.2188 -17.484 -5.2031 -12.375 -14.906 -22.266 -27.141 -27.703 -1.9219 -0.51562 -4.0312 0 -5.4844 1.3594 -1.5 1.3594 -2.1562 3.375 -1.7812 5.3906 1.4531 7.0781 3.4688 14.062 6 20.859 4.6406 11.719 7.2188 24.188 7.6406 36.844 -1.1719 -1.0312 -2.4375 -1.9688 -3.7031 -2.8594 -2.9531 -2.0156 -6.1406 -3.5625 -9.4688 -4.7344 -3.1875 -1.125 -6.5156 -1.7344 -9.8438 -1.875 -5.9531 -0.51562 -11.719 1.9219 -15.469 6.5156 -1.3594 1.5938 -1.7344 3.7969 -1.0781 5.7656 0.70312 1.9219 2.3906 3.375 4.4062 3.7969 14.625 2.8594 15.75 18.797 16.781 33 0.84375 12.047 1.6406 23.156 9.1875 29.109 v 0.046875 c 1.5938 2.3906 3.2812 4.7344 5.2031 6.8906 -3.5156 1.3594 -5.5781 5.0625 -4.875 8.7656 s 3.9375 6.375 7.6875 6.375 h 93.469 c -13.734 13.453 -28.406 25.922 -43.922 37.266 -25.078 18.281 -51.844 34.078 -79.922 47.203 z m -428.76 29.391 c 68.766 -61.078 47.484 -93.281 21.656 -132.42 -20.625 -31.219 -44.578 -67.5 -14.531 -132.74 20.625 -44.812 77.203 -61.969 126.19 -76.875 15.75 -4.7812 30.797 -9.3281 43.5 -14.391 36.281 -14.344 58.219 -33.188 43.031 -71.578 -4.6875 -11.297 -11.719 -21.375 -20.719 -29.625 12.609 -0.9375 25.172 2.2031 35.812 9 8.2969 5.3438 15.047 12.797 19.453 21.656 4.6875 9.7031 6.5156 20.531 5.2031 31.219 -2.5781 24.047 -19.125 52.547 -57.375 81.281 v -0.046875 c -15.844 10.922 -28.078 26.344 -35.016 44.297 -4.3125 12.562 -4.8281 26.109 -1.5 39 3.5156 12.938 9.5625 25.078 17.812 35.672 24.938 30.609 57.938 53.531 95.297 66.281 30.281 9.7969 58.781 24.328 84.516 43.031 22.312 16.219 39.938 38.062 51.188 63.234 -75.609 32.016 -156.94 48.234 -239.06 47.719 -59.344 0.1875 -118.45 -8.1562 -175.45 -24.75 z m -147.98 -69.562 h 67.266 v -0.046875 c 4.3125 0 7.7812 -3.5156 7.7812 -7.8281 s -3.4688 -7.7812 -7.7812 -7.8281 h -27.656 c 1.7344 -2.0156 3.2812 -4.1719 4.7344 -6.375 7.5 -5.9531 8.3438 -17.062 9.1875 -29.109 1.0312 -14.25 2.1562 -30.188 16.781 -33.047 2.0156 -0.42188 3.7031 -1.8281 4.4062 -3.7969 s 0.28125 -4.1719 -1.0781 -5.7656 c -3.75 -4.5938 -9.5156 -7.0312 -15.422 -6.5156 -3.375 0.14062 -6.7031 0.75 -9.8906 1.875 -3.3281 1.1719 -6.5156 2.7188 -9.4688 4.7344 -1.2656 0.89062 -2.5312 1.8281 -3.7031 2.8594 0.42188 -12.656 3 -25.125 7.6406 -36.844 0.42188 -1.1719 0.79688 -2.3438 1.2188 -3.4688 l -0.046875 -0.046875 c 1.6875 1.6875 3.5625 3.1406 5.5781 4.3125 3.75 2.2031 7.875 3.75 12.141 4.6875 4.3594 0.98438 8.8125 1.3594 13.312 1.0312 8.2031 0.1875 15.844 -4.2188 19.828 -11.484 2.3906 1.8281 5.2031 3.0938 8.2031 3.7031 3.7969 0.79688 7.7812 0.09375 11.109 -1.875 6.1406 -4.3594 9.3281 -11.812 8.2031 -19.266 0.23438 -6 -1.7812 -11.859 -5.625 -16.453 -2.0156 -2.1094 -4.7344 -3.4688 -7.6406 -3.8438 4.8281 -3.7969 7.2656 -9.9375 6.3281 -16.031 3.6562 0.65625 7.3594 0.89062 11.062 0.60938 2.8125 -0.1875 5.625 -0.75 8.2969 -1.6406 -23.906 63.938 0.5625 101.02 21.844 133.18 22.453 34.031 40.828 61.828 -26.203 118.31 -46.312 -15 -90.234 -36.562 -130.4 -64.078 z m -54.422 -451.64 3.5625 0.046876 c 15.984 0.1875 33.797 0.5625 52.828 1.2188 h -0.046875 c -5.2031 7.9219 -11.344 15.188 -18.281 21.703 -3.2812 2.7656 -3.75 7.6875 -0.98438 11.016 4.0312 5.3438 10.922 7.6406 17.344 5.8594 -2.5781 5.0156 -5.4844 9.8438 -8.7188 14.484 -6.1875 8.7656 -12.938 17.109 -20.156 25.078 -2.0625 2.0156 -2.8594 5.0156 -2.0156 7.8281 0.79688 2.7656 3.1406 4.875 6 5.4375 l 11.016 2.2031 v -0.046874 c -1.8281 4.3125 -3.8906 8.5312 -6.1875 12.609 -5.3438 9.5625 -11.344 18.703 -17.953 27.422 -0.375 0.46875 -0.70312 1.0312 -0.9375 1.5938 -1.7344 3.9375 0.09375 8.5312 4.0312 10.266 l 10.266 4.4531 c -1.0781 2.8594 -2.2031 6.0938 -3.3281 9.2812 -1.9219 5.4375 -3.75 10.781 -4.6406 12.422 v -0.046874 c -1.6875 2.3906 -1.9219 5.5312 -0.5625 8.1562 1.3125 2.5781 4.0312 4.2188 6.9375 4.2188 9.0469 -3.2344 17.859 -6.9844 26.484 -11.203 v 6.4688 c 0 2.4844 1.1719 4.8281 3.1406 6.2812 2.0156 1.5 4.5469 1.9219 6.9375 1.2188 6.4219 -2.1562 12.234 -5.7656 17.016 -10.547 2.4375 -2.2031 5.0156 -4.2188 7.7812 -6.0469 0.23438 12.375 0.375 31.875 -0.09375 49.172 -0.28125 9.7969 -0.75 18.844 -1.5 25.312 -3.9844 0.1875 -7.875 0.89062 -11.672 2.0625 -7.3125 1.8281 -13.875 5.8125 -18.891 11.438 -5.625 9.2812 -1.2656 17.203 7.5938 22.547 3.75 2.1562 7.875 3.75 12.141 4.6406 4.3594 1.0312 8.8125 1.3594 13.312 1.0781 4.6875 -0.28125 9.2812 -1.6406 13.312 -4.0312 3.0938 3.375 7.0781 5.9062 11.484 7.1719 -4.9688 1.5469 -9.7031 3.7969 -13.969 6.75 -1.4531 -1.2188 -3.4219 -1.6875 -5.2969 -1.1719 -12.234 5.4375 -21.938 15.328 -27.141 27.703 -2.9062 5.5781 -5.3438 11.438 -7.2188 17.484 -2.0625 -4.7344 -4.3125 -9.5625 -6.7031 -14.156 -4.2656 -8.9062 -9.8906 -17.109 -16.594 -24.328 -2.0625 -1.9219 -5.1562 -2.1562 -7.4531 -0.51563 -2.2969 1.5938 -3.0938 4.6406 -1.9219 7.1719 1.4062 6.4219 5.4375 23.344 9.375 39.844 -0.79688 -0.75 -1.6406 -1.5 -2.4844 -2.2031 v -0.046874 c -6.75 -6.7969 -15.984 -10.547 -25.594 -10.359 -1.7812 0.1875 -3.5625 0.70313 -5.2031 1.4531 -1.7344 0.84375 -3 2.4375 -3.3281 4.3594 -0.32812 1.875 0.32812 3.8438 1.6875 5.1562 25.453 29.062 27 43.922 28.688 59.906 l 0.046875 0.046876 c 0.51562 6.5625 1.5938 13.125 3.0938 19.547 0.84375 3.1406 2.3438 6.0469 4.4062 8.5312 h -6.375 c -77.531 -61.125 -125.02 -142.92 -125.02 -232.64 0 -76.031 34.125 -146.44 91.734 -203.29 z m 105.28 -75.609 h -0.046875 c 3.8906 9 8.2031 17.766 13.031 26.25 3.6562 6.6094 7.6875 12.984 12 19.125 -1.9219 -0.375 -3.8438 -0.5625 -5.8125 -0.51563 -2.9062 0 -5.625 1.5938 -6.9375 4.2188 -1.3594 2.625 -1.125 5.7188 0.5625 8.1094 4.4062 7.3594 9.2344 14.391 14.484 21.141 l 0.23438 0.32813 c 2.7656 3.4219 5.7656 6.6562 9.0469 9.6094 -1.1719 0.046876 -2.5312 0.046876 -4.1719 0.046876 h -0.046875 c -2.7656 0 -5.2969 1.4531 -6.7031 3.8438 -1.4062 2.3906 -1.4531 5.3438 -0.14062 7.7344 7.4531 13.031 17.953 23.953 30.656 31.922 l 0.28125 0.1875 c -1.4062 -0.09375 -2.8594 -0.1875 -4.3125 -0.1875 -2.4375 0 -4.7344 1.125 -6.2344 3.0938 -1.4531 1.9219 -1.9219 4.4531 -1.2656 6.8438 2.3906 8.1094 6.7031 15.562 12.469 21.75 2.0625 2.3906 4.3125 4.7344 6.6094 6.9844 -4.7344 0.09375 -9.4688 0.1875 -14.203 0.1875 v -0.046874 c -3 0 -5.7656 1.7344 -7.0781 4.4531 -1.2656 2.7188 -0.89062 5.9531 0.98438 8.2969 5.6719 6.7969 11.812 13.172 18.422 19.031 l 4.125 3.9375 h -11.156 c -2.4844 0 -4.8281 1.1719 -6.3281 3.1875 -1.4531 2.0156 -1.9219 4.5938 -1.1719 6.9844 2.3906 9.1875 6.0469 18 10.828 26.203 -9.0938 -1.5 -17.906 -4.5938 -25.969 -9.1875 -8.6719 -5.3438 -18.609 -8.2969 -28.828 -8.5312 -0.46875 0 -0.9375 0.046874 -1.4531 0.09375 -13.406 0.98437 -26.016 6.7031 -35.625 16.125 l -1.2188 1.0781 v -4.8281 c 0 -2.7656 -1.5 -5.3438 -3.8906 -6.75 s -5.3438 -1.4531 -7.7344 -0.09375 l -5.7188 2.625 c -3.2812 1.5 -7.125 3.4219 -10.828 5.2969 l -0.046875 -0.046874 c 1.1719 -3.75 2.5781 -7.4062 4.2188 -10.969 1.5 -1.9688 1.9688 -4.5 1.3125 -6.8906 -0.65625 -2.3438 -2.3906 -4.2656 -4.6875 -5.1562 l -8.25 -3.6094 c 4.8281 -6.8438 9.2812 -13.969 13.406 -21.281 4.5469 -7.6875 7.9688 -15.984 10.172 -24.609 0.84375 -4.2656 -1.9219 -8.3438 -6.1875 -9.1875 l -6.4219 -1.2656 c 4.875 -5.8125 9.0938 -11.203 12.938 -16.781 h 0.046875 c 6.4688 -9.4688 11.906 -19.594 16.312 -30.234 1.6875 -3.9375 -0.1875 -8.5312 -4.125 -10.219 -0.70312 -0.28125 -1.4062 -0.51562 -2.1562 -0.60937 -2.9531 -0.32813 -5.9531 -0.14063 -8.9062 0.51562 11.062 -14.297 21.141 -29.344 30.188 -45 0.70312 -1.2188 0.23438 -0.9375 0.70312 -1.4531 2.3906 -2.625 2.7188 -6.6094 0.75 -9.6094 s -5.7188 -4.2656 -9.0938 -3.0469 c -1.1719 0.42187 -2.4844 0.9375 -3.8906 1.4531 10.219 -15 18.375 -28.734 24.234 -39.188 0.84375 -0.46875 1.7344 -0.9375 2.5781 -1.3594 z m 48.562 342.32 c -4.4062 -3.6094 -9.6094 -6.1406 -15.141 -7.3594 -4.4062 -1.4531 -9.0469 -2.1562 -13.688 -2.0156 -2.9531 -0.046875 -5.8125 0.98438 -8.0156 2.9531 -1.6406 2.1094 -2.5781 4.6406 -2.5781 7.3125 -0.46875 6.1406 5.1094 8.9531 11.906 9.4688 4.2188 0.32812 8.4844 0 12.609 -0.98438 3.8438 -0.79688 7.5 -2.2031 10.922 -4.125 2.9531 -1.8281 4.875 -3.7969 3.9844 -5.25 z" fill="black" transform="translate(64.0,64.0) scale(0.3406884310289527)"/>
    </mask>
  </defs>
  <rect fill="black" height="512" mask="url(#iconmask)" rx="64" ry="64" width="512" x="0" y="0"/>
</svg>
