<?xml version="1.0" encoding="utf-8" ?>
<svg xmlns="http://www.w3.org/2000/svg" xmlns:ev="http://www.w3.org/2001/xml-events" xmlns:xlink="http://www.w3.org/1999/xlink" baseProfile="full" height="512" version="1.1" width="512">
  <defs>
    <mask id="iconmask">
      <rect fill="white" height="512" rx="64" ry="64" width="512" x="0" y="0"/>
      <path d="m 840.89 916.64 c 0 30 -18.094 57.094 -45.844 68.578 s -59.672 5.1562 -80.906 -16.078 -27.609 -53.203 -16.125 -80.953 c 11.484 -27.703 38.578 -45.797 68.625 -45.797 40.969 0 74.25 33.234 74.25 74.25 z m 103.36 -38.484 v 77.016 l -15.609 -0.046875 c -11.156 0.32812 -21.047 7.3125 -25.031 17.766 -4.8281 10.312 -2.9531 22.594 4.7812 30.984 l 11.109 11.109 -54.516 54.516 -11.109 -11.109 c -8.1562 -7.7344 -20.203 -9.75 -30.375 -5.0156 -10.594 3.8438 -17.812 13.734 -18.234 24.984 v 15.75 h -77.156 v -15.609 c -0.84375 -11.062 -7.8281 -20.766 -18.094 -24.984 -10.312 -4.2656 -22.078 -2.3906 -30.516 4.875 l -11.109 11.109 -54.516 -54.516 11.016 -11.109 c 7.3125 -8.4375 9.2344 -20.25 4.9688 -30.562 -4.2656 -10.359 -13.969 -17.391 -25.125 -18.188 h -15.609 v -77.016 h 15.609 c 11.156 -0.32812 21.047 -7.3125 25.031 -17.719 4.8281 -10.359 2.9531 -22.594 -4.7812 -31.031 l -11.109 -11.109 54.516 -54.516 11.109 11.109 v 0.046875 c 7.5 7.5938 18.891 9.8906 28.734 5.7188 l 3.6094 -1.5 h 0.046875 c 9.8438 -4.0781 16.266 -13.688 16.219 -24.375 v -15.75 h 77.109 v 15.75 h 0.046875 c -0.046875 10.688 6.375 20.297 16.219 24.375 l 2.0156 0.75 c 10.828 4.5469 23.344 2.1094 31.641 -6.2344 l 9.8906 -9.8906 54.516 54.609 -11.109 11.016 h -0.046875 c -7.3594 8.4844 -9.2344 20.344 -4.9688 30.656 4.3125 10.312 14.062 17.344 25.219 18.094 z m -84.609 38.484 c 0 -37.641 -22.688 -71.531 -57.422 -85.922 s -74.766 -6.4688 -101.34 20.156 c -26.625 26.578 -34.547 66.609 -20.156 101.34 s 48.281 57.422 85.922 57.422 c 51.328 -0.09375 92.906 -41.672 93 -93 z m -433.13 -422.53 v 28.031 c 0.65625 13.359 -4.1719 26.438 -13.406 36.141 -9.2344 9.7031 -22.031 15.188 -35.438 15.188 -13.359 0 -26.203 -5.4844 -35.391 -15.188 -9.2344 -9.7031 -14.062 -22.781 -13.406 -36.141 v -28.031 z m -167.86 -162.52 -0.046875 0.046875 c 1.2656 -63.234 51.234 -114.7 114.38 -117.75 51.141 -2.1094 97.875 28.688 116.06 76.5 18.234 47.812 3.8438 101.91 -35.672 134.34 -10.828 8.625 -18.938 20.109 -23.484 33.141 -1.7812 5.5312 -2.8125 11.297 -3.1406 17.109 h -98.109 c -0.375 -6.0469 -1.5938 -12 -3.6562 -17.719 -4.2188 -12.656 -11.906 -23.812 -22.219 -32.25 -28.406 -22.922 -44.672 -57.562 -44.156 -94.031 z m 147 -58.359 7.7344 5.1094 v 0.046875 c 18.422 12 29.484 32.484 29.484 54.469 v 9.375 h 18.75 v -9.375 c 0.046875 -28.172 -14.062 -54.469 -37.5 -70.125 l -7.875 -5.1094 z m -18.141 -104.86 v -62.484 h -18.75 v 62.484 z m 215.11 171.61 v -18.75 h -62.484 v 18.75 z m -387.52 0 v -18.75 h -62.484 v 18.75 z m 328.03 -161.86 -13.266 -13.125 -44.016 44.484 13.266 13.266 z m -273.66 31.125 -44.484 -44.109 -13.266 13.359 44.531 44.016 z m -48 385.36 h 66 v -18.75 h -66 c -4.875 -29.156 -31.312 -49.734 -60.797 -47.297 s -52.172 27.094 -52.172 56.672 c 0 29.625 22.688 54.234 52.172 56.719 29.484 2.4375 55.922 -18.141 60.797 -47.344 z m 41.766 75.984 v 0.046876 c -5.6719 -2.0156 -11.625 -3.0469 -17.625 -3.1406 -28.219 -0.28125 -52.453 19.922 -57.234 47.766 -4.7812 27.797 11.297 54.984 37.969 64.125 26.719 9.1406 56.109 -2.3906 69.375 -27.281 13.312 -24.891 6.6094 -55.781 -15.844 -72.844 l 10.125 -21.141 h 44.766 v -18.75 h -56.531 z m 684 -292.74 c 7.2656 3.3281 15.141 5.0156 23.109 5.0156 27.469 0.09375 51.141 -19.312 56.344 -46.266 s -9.5156 -53.812 -35.016 -63.938 c -25.547 -10.125 -54.656 -0.70312 -69.328 22.5 -14.719 23.203 -10.781 53.578 9.2812 72.328 l -13.781 20.016 h -83.344 v 18.75 h 93.375 z m 87.516 85.875 c -8.0156 0.046875 -15.891 1.7812 -23.156 5.1562 l -19.359 -28.734 -93.609 -0.046875 v 18.75 h 83.391 l 13.734 20.391 c -11.578 10.641 -18.141 25.641 -18.141 41.391 0 22.969 13.875 43.734 35.109 52.547 21.234 8.7656 45.703 3.9375 61.969 -12.328 s 21.141 -40.734 12.328 -62.016 c -8.7656 -21.234 -29.531 -35.109 -52.547 -35.109 z m -661.13 282.14 -214.13 211.13 c -12.984 12.984 -20.25 30.562 -20.25 48.938 0 18.328 7.3125 35.906 20.297 48.891 27.047 27 70.828 26.953 97.828 -0.09375 l 212.48 -212.48 c -20.156 -11.812 -38.719 -26.156 -55.266 -42.609 -15.75 -16.219 -29.531 -34.266 -40.969 -53.766 z m 213.84 72.375 12.516 -12.516 c -55.172 -3.8906 -106.45 -29.766 -142.36 -71.859 -35.906 -42.047 -53.438 -96.797 -48.656 -151.87 -17.672 9.3281 -38.625 10.266 -57.094 2.625 -3.9375 64.969 16.406 129.14 57.141 179.95 40.688 50.812 98.812 84.703 163.08 95.062 h 32.625 c 3.6094 -0.375 6.6094 -2.8125 7.6406 -6.2812 1.9219 -3.3281 1.6406 -7.4531 -0.75 -10.5 z m 214.26 -405.74 c -47.953 -48 -112.64 -75.562 -180.52 -76.875 v 23.016 h -99.984 v -6.5156 l -7.875 3.1406 c -5.5312 32.484 -22.594 61.875 -48 82.875 -8.1562 6.4219 -14.297 15.094 -17.625 24.984 -1.4062 4.2188 -2.1562 8.6719 -2.25 13.125 v 4.6406 c 6.9375 -10.125 14.812 -19.594 23.484 -28.266 49.453 -49.688 120.74 -70.969 189.32 -56.438 68.578 14.484 125.16 62.766 150.28 128.21 25.125 65.484 15.328 139.22 -25.969 195.84 h 41.391 v 34.5 c 0.046874 1.3594 0.42187 2.7188 1.125 3.8906 38.484 -50.812 57.328 -113.81 53.062 -177.42 -4.3125 -63.609 -31.453 -123.52 -76.453 -168.71 z m -53.484 53.625 c -35.344 -35.297 -83.203 -55.172 -133.13 -55.172 -49.969 0 -97.828 19.875 -133.13 55.172 -15.234 15.188 -27.656 32.906 -36.75 52.359 v 3.6562 c 0.046874 15.469 -5.2969 30.516 -15.141 42.469 -10.359 55.031 4.3594 111.84 40.125 154.92 35.766 43.078 88.875 68.016 144.89 67.969 h 3.2344 l 50.016 -50.016 24.984 24.984 v 0.046875 c 1.4062 1.4531 3.3281 2.25 5.3906 2.25 0.9375 0.1875 1.9219 0.1875 2.8594 0 l 3.75 -1.5 c 2.8125 -1.1719 4.6406 -3.9375 4.6406 -7.0312 v -36 h 50.016 -0.046875 c 30.469 -35.953 46.266 -82.078 44.25 -129.19 -2.0156 -47.062 -21.703 -91.688 -55.125 -124.92 z m -144.37 187.5 -61.125 -53.625 12.516 -14.109 46.875 41.016 95.016 -109.88 14.109 12.516 z" fill="black" transform="translate(64.0,64.0) scale(0.3238137078488471)"/>
    </mask>
  </defs>
  <rect fill="black" height="512" mask="url(#iconmask)" rx="64" ry="64" width="512" x="0" y="0"/>
</svg>
