<?xml version="1.0" encoding="utf-8" ?>
<svg xmlns="http://www.w3.org/2000/svg" xmlns:ev="http://www.w3.org/2001/xml-events" xmlns:xlink="http://www.w3.org/1999/xlink" baseProfile="full" height="512" version="1.1" width="512">
  <defs>
    <mask id="iconmask">
      <rect fill="white" height="512" rx="64" ry="64" width="512" x="0" y="0"/>
      <path d="m 767.86 26.297 c -24.375 0 -46.5 9.8438 -62.531 25.875 s -25.875 38.156 -25.875 62.531 9.8438 46.5 25.875 62.531 c 15.938 15.938 38.016 25.875 62.391 25.875 h 0.23438 c 24.375 0 46.5 -9.9844 62.531 -25.875 16.031 -16.031 25.875 -38.156 25.875 -62.531 s -9.8438 -46.5 -25.875 -62.531 c -16.125 -16.031 -38.25 -25.875 -62.625 -25.875 z m 211.45 768.24 v 29.156 c 0 15.047 -9.3281 27.938 -23.625 32.578 l -7.3125 2.2969 c -19.828 6.4219 -34.125 20.578 -40.781 40.312 -4.6875 13.5 -10.125 26.672 -16.312 39.281 -9.2344 18.703 -9.0938 38.766 0.375 57.328 l 3.4219 6.8438 c 6.8438 13.406 4.4062 29.062 -6.3281 39.656 l -41.156 41.156 c -10.594 10.594 -26.391 13.125 -39.656 6.3281 l -6.8438 -3.4219 c -18.562 -9.4688 -38.672 -9.6094 -57.328 -0.375 -12.609 6.3281 -25.781 11.766 -39.281 16.312 -19.688 6.7031 -33.844 20.953 -40.312 40.781 l -2.3906 7.3125 c -4.6875 14.297 -17.438 23.625 -32.578 23.625 h -58.359 c -15.047 0 -27.938 -9.3281 -32.578 -23.625 l -2.3906 -7.3125 c -6.4219 -19.828 -20.484 -34.125 -40.312 -40.781 -13.5 -4.6875 -26.672 -10.125 -39.281 -16.312 -18.703 -9.2344 -38.766 -9.0938 -57.328 0.375 l -6.8438 3.4219 c -13.406 6.8438 -29.062 4.4062 -39.656 -6.3281 l -41.156 -41.156 c -10.594 -10.594 -13.125 -26.391 -6.3281 -39.656 l 3.4219 -6.8438 c 9.4688 -18.562 9.6094 -38.672 0.375 -57.328 -6.1875 -12.609 -11.766 -25.781 -16.312 -39.281 -6.7031 -19.688 -20.953 -33.844 -40.781 -40.312 l -7.3125 -2.2969 c -14.391 -4.6875 -23.625 -17.438 -23.625 -32.578 l -0.046875 -29.156 h 176.21 c 0 112.17 90.938 203.11 202.97 203.11 112.17 0 203.11 -90.938 203.11 -203.11 z m -280.03 -354.32 h 137.95 c -6.7031 -14.156 -10.5 -30.047 -10.5 -46.734 0 -30.328 12.234 -57.703 32.062 -77.578 12.234 -12.234 27.516 -21.703 44.578 -27.047 -11.484 -17.953 -26.906 -33.094 -44.953 -44.203 -21.234 -13.031 -46.125 -20.578 -72.609 -20.578 h -35.906 c -26.531 0 -51.422 7.4531 -72.516 20.484 -18.188 11.109 -33.609 26.297 -44.953 44.062 17.297 5.2969 32.719 14.766 45.234 27.281 19.828 19.828 32.062 47.25 32.062 77.578 -0.09375 16.828 -3.75 32.578 -10.453 46.734 z m 312.89 279.66 v -99.656 c 0 -5.8125 4.6875 -10.5 10.5 -10.5 s 10.5 4.6875 10.5 10.5 v 99.656 h 61.031 l -0.046874 -76.922 c 0 -38.391 -15.797 -73.406 -41.062 -98.672 -25.406 -25.406 -60.234 -41.062 -98.672 -41.062 h -36.047 c -38.391 0 -73.406 15.656 -98.672 41.062 -25.406 25.406 -41.062 60.234 -41.062 98.672 v 76.922 h 61.031 l 0.09375 -99.656 c 0 -5.8125 4.6875 -10.5 10.5 -10.5 s 10.5 4.6875 10.5 10.5 v 99.656 z m -148.18 -275.26 0.14062 0.14062 c 2.9062 4.0312 6.0469 7.9688 9.6094 11.484 16.031 16.031 38.156 25.875 62.531 25.875 h 0.23438 c 24.516 0 46.594 -9.9844 62.672 -25.875 16.031 -16.031 25.875 -38.156 25.875 -62.672 s -9.9844 -46.594 -25.875 -62.672 c -16.031 -16.031 -38.156 -26.016 -62.672 -26.016 s -46.594 9.9844 -62.672 26.016 c -16.031 16.031 -25.875 38.156 -25.875 62.672 -0.14062 18.984 5.8125 36.656 16.031 51.047 z m -360.74 275.26 v -99.656 c 0 -5.8125 4.6875 -10.5 10.5 -10.5 s 10.5 4.6875 10.5 10.5 v 99.656 h 151.55 v -99.656 c 0 -5.8125 4.6875 -10.5 10.5 -10.5 s 10.5 4.6875 10.5 10.5 v 99.656 h 61.031 l -0.046875 -76.922 c 0 -38.391 -15.656 -73.406 -41.062 -98.672 -25.266 -25.406 -60.234 -41.062 -98.672 -41.062 h -17.812 l -0.23438 0.046875 h -18.094 c -38.391 0 -73.406 15.656 -98.672 41.062 -25.406 25.406 -41.062 60.234 -41.062 98.672 v 76.922 z m 96.75 -415.08 c -24.375 0 -46.594 9.9844 -62.672 26.016 -16.031 16.031 -25.875 38.156 -25.875 62.672 s 9.9844 46.594 25.875 62.672 c 16.031 16.031 38.156 25.875 62.672 25.875 h 0.23438 c 24.375 0 46.5 -9.9844 62.531 -25.875 16.031 -16.031 26.016 -38.156 26.016 -62.672 s -9.9844 -46.594 -26.016 -62.672 c -16.172 -16.031 -38.25 -26.016 -62.766 -26.016 z m -77.578 11.156 c 12.516 -12.516 27.938 -21.844 45.094 -27.281 -11.391 -17.812 -26.766 -32.953 -44.953 -44.062 -21.234 -13.031 -46.125 -20.484 -72.609 -20.484 h -17.953 v -0.046875 h -17.812 c -26.531 0 -51.422 7.5938 -72.609 20.578 -18.188 11.109 -33.609 26.297 -44.953 44.203 17.062 5.2969 32.203 14.766 44.578 27.047 19.828 19.828 32.203 47.25 32.203 77.578 0 16.688 -3.7969 32.578 -10.5 46.734 h 137.95 c -6.7031 -14.156 -10.359 -30.047 -10.359 -46.734 -0.14062 -30.188 12.094 -57.609 31.922 -77.531 z m -183.14 403.92 v -99.656 c 0 -5.8125 4.6875 -10.5 10.5 -10.5 s 10.5 4.6875 10.5 10.5 v 99.656 h 61.031 l -0.046876 -76.922 c 0 -38.391 -15.797 -73.406 -41.062 -98.672 -25.406 -25.406 -60.234 -41.062 -98.672 -41.062 h -36.047 c -38.391 0 -73.406 15.656 -98.672 41.062 -25.406 25.406 -41.062 60.234 -41.062 98.672 v 76.922 h 61.031 l 0.09375 -99.656 c 0 -5.8125 4.6875 -10.5 10.5 -10.5 s 10.5 4.6875 10.5 10.5 v 99.656 z m -12.984 -389.02 c -16.031 -16.031 -38.156 -26.016 -62.672 -26.016 -24.516 0 -46.594 9.9844 -62.672 26.016 -16.031 16.031 -26.016 38.156 -26.016 62.672 s 9.9844 46.594 26.016 62.672 c 16.031 16.031 38.156 25.875 62.531 25.875 h 0.23438 c 24.516 0 46.594 -9.9844 62.672 -25.875 16.031 -16.031 25.875 -38.156 25.875 -62.672 -0.09375 -24.422 -10.078 -46.641 -25.969 -62.672 z m 105.84 -304.55 c -24.375 0 -46.5 9.8438 -62.531 25.875 s -25.875 38.156 -25.875 62.531 9.8438 46.5 25.875 62.531 c 15.938 15.938 38.016 25.875 62.391 25.875 h 0.23437 c 24.375 0 46.5 -9.9844 62.531 -25.875 16.031 -16.031 25.875 -38.156 25.875 -62.531 s -9.8438 -46.5 -25.875 -62.531 c -16.172 -16.031 -38.25 -25.875 -62.625 -25.875 z" fill="black" transform="translate(64.0,64.0) scale(0.2788891218775096)"/>
    </mask>
  </defs>
  <rect fill="black" height="512" mask="url(#iconmask)" rx="64" ry="64" width="512" x="0" y="0"/>
</svg>
