<svg xmlns="http://www.w3.org/2000/svg" viewBox="0 0 1900 1200" width="150pt" height="150pt" xmlns:v="https://vecta.io/nano"><path d="M703.914 1139.03c-1.274.53 3.46 20.12 18.22 48.11 14.604 27.9 40.702 64.22 79.295 90.15 38.684 26.03 80.25 33.8 109.292 32.01 29.383-1.53 46.133-10.28 45.675-11.62-.486-2.23-17.751 2.85-45.675 1.87-27.768-.71-66.589-9.55-102.971-34.07-36.42-24.5-62.262-57.95-78.306-83.62-16.136-25.75-23.758-43.72-25.53-42.83zm20.55-70.21c-5.293 46.16 11.87 97.12 44.858 133.16 36.611 39.99 83.396 55.19 116.127 60.91.091 0 .156.09.321.09 44.711 18.06 95.652 16.73 139.39-4.38-6.47 5.54-12.68 10.28-18.05 14.12-13.324 9.58-22.396 14.23-21.744 16.19.395 1.71 10.755.19 25.914-7.6 9.08-4.55 19.75-11.71 30.67-21.01-8.04 9.83-16.7 18.96-26.35 26.65-37.069 29.69-81.587 35.59-112.171 35.32-58.262-.53-113.403-23.43-151.445-63.05-37.317-39.08-72.222-113.22-66.361-179.31 8.989-102.318 70.214-196.93 155.041-242.628-2.331 3.487-4.404 6.973-6.349 10.283l-4.403 7.15-9.622 14.318c-6.679 9.735-13.412 19.842-19.668 30.134-15.879 26.47-30.888 53.833-44.941 81.373-13.165 25.68-27.447 55.81-31.217 88.28zm349.106-201.135c-1.13 8.052-2.01 13.24-.65 13.956 1.2.623 4.5-3.496 7.62-11.622 2.98-7.698 5.3-19.144 5.69-31.668 11.17-3.31 22.55-7.066 33.21-13.147-1.18 8.145-2.53 17.08-5.1 26.471-3.71 14.848-9.73 26.833-15.42 34.791-5.46 7.866-9.97 12.255-9.22 13.687.71 1.245 6.75-.716 14.51-7.959 7.72-7.336 15.89-20.836 20-37.293 3.43-13.323 4.32-25.671 4.32-35.684 9.17-6.62 17.34-14.672 25.36-22.445.16-.186.32-.362.48-.455.55 12.17-.09 23.076-1.19 31.212-1.22 9.753-2.82 16.01-1.37 16.633 1.12.716 5.12-4.463 8.43-14.662 3.28-10.107 5.28-25.215 3.98-41.495-.06-.354-.06-.623-.13-.986 7.06-6.527 14.12-12.514 22.13-17.08 3.14-1.878 6.26-3.486 9.4-4.825.17 3.57.33 7.243.33 10.906.47 31.482-5.94 56.52-3.06 57.599 1.21.53 4.49-5.188 7.72-15.564 3.11-10.284 5.67-25.402 5.6-42.035a158.31 158.31 0 0 0-.89-14.309c18.14-5.188 36.22-4.295 49.98-2.055-.2 2.864-.35 5.542-.78 8.498-2.32 17.619-7.39 32.821-11.95 43.55-4.57 10.637-8.1 17.08-6.99 18.242.96.893 6.66-3.756 13.25-14.132 3.26-5.179 6.57-11.892 9.47-19.581 2.8-7.875 5.14-16.903 6.34-26.47.38-2.687.55-5.458.81-8.136 11.69 2.771 23.26 6.704 34.67 11.176 0 .084-.17.177-.17.27-5.06 20.919-12.05 37.116-9.55 38.901 2.17 1.785 13.63-12.701 19.33-35.238l18.38 7.959c2.16.892 4.34 1.701 6.58 2.594.65.269 1.36.446 2.01.809-.08.083-.08.176-.08.26-5.14 18.065-10.58 32.467-8.02 34.169 2.23 1.701 12.04-10.823 17.57-30.05.16.093.33.176.55.176 2.02 1.256 3.87 2.864 5.78 4.566 2.33 1.961 4.89 4.025 7.72 5.718 2.06 1.255 4.33 2.324 6.74 3.31-2.9 7.875-5.54 14.402-3.59 16.456 1.73 2.232 9.19-2.687 13.28-13.146 6.92 1.608 13.99 2.231 20.88 1.338 3.28-.446 6.5-1.069 9.71-1.785 4.1-.892 7.85-1.701 11.72-1.878 7.3-.539 13.39 1.609 16.84 5.811.66.809 1.46 1.162 2.33 1.432-1.12 4.649-1.77 9.037-2.49 13.147-1.13 6.443-1.91 12.338-2.5 17.256-.07 1.348-.16 2.511-.31 3.673-42.45 3.663-85.45 3.747-127.89.353-14.54-1.162-28.12-1.701-41.35-1.515-4.24 0-8.35.176-12.6.353l-7.45.362c-1.69 0-3.47-.362-5.64-.901-2-.354-4.31-.893-6.8-.977-13.81-.985-28.02 5.635-41.4 12.338-12.06 6.081-23.14 13.417-36.14 22.538l-3.92 2.77c-11.47 8.052-23.1 16.281-35.3 22.807-7.23 3.217-15.29 5.997-23.93 6.704-12.52 1.162-24.4-1.255-34.34-3.747-1.04-.548-2.08-1.171-3.3-1.618-15.48-6.434-30.74-8.851-43.9-8.944 6.11-4.286 12.44-10.553 17.42-19.042 5.15-8.953 7.79-18.334 8.75-26.563l40.83-11.984c-.39 10.283-1.27 19.404-2.3 26.2zm627.31-49.816c1.04 2.417 2.02 4.927 1.53 7.428-.4 2.148-2.17 4.026-4.26 4.296a3.31 3.31 0 0 1-1.28.26c-.5 0-1.04-.083-1.38-.446-.73-.53-1.27-1.069-1.67-1.609-1.29-1.515-1.85-3.486-1.62-5.718v-.093c.26-2.054 1.94-3.756 5.41-5.457 1.26-.623 2.72-.084 3.27 1.339zm24.23-8.582c2.34 5.551 2.18 12.431-.38 17.889-1.14 2.324-2.76 4.648-5 6.889l-3.61-3.849c3.36-4.565 3.61-11.269.64-15.471-2.31-3.403-6.33-5.095-10.83-4.556-5.31.353-16.36 3.747-17.24 11.352-.32 3.31.56 6.35 2.48 8.768 2.65 3.486 7.23 5.811 11.73 5.987h.62c3.45 0 6.67-.985 9.39-2.947l2.96 4.463c-3.36 3.226-6.49 5.011-9.45 5.551-.71.083-1.51.176-2.34.176-4.4 0-8.9-2.147-13.79-4.648-2.9-1.702-5.46-3.134-7.72-5.096-2.23-2.147-3.67-4.834-4.08-7.428-.33-2.594.48-5.542 2.24-9.028 3.7-7.15 9.95-12.971 17.26-15.918 4.81-1.971 13.15-4.742 17.8-2.241h.08c4.1 2.241 7.47 5.904 9.24 10.107zm80.48 30.942c-1.36-1.692-3.91-3.31-6.96-3.57-3.14-.279-5.87.8-7.48 2.324-1.76 1.516-2.23 3.301-1.76 4.733 1.28 2.864 4.8 4.026 8.43 4.388 3.54.261 7.23-.185 8.91-2.863.62-1.339.33-3.217-1.14-5.012zm-62.91-4.025c-1.27-.977-4.79 3.495-11.31 8.414-6.58 4.825-16.59 9.837-28.16 9.381-11.64-.353-21.68-5.541-27.54-10.999-5.93-5.272-8.1-10.553-9.55-10.19-1.27.177-1.66 7.419 4.33 15.824 5.87 8.405 17.92 16.374 32.45 16.903 7.15.177 14.12-1.515 19.73-4.379 5.69-2.863 10.19-6.703 13.33-10.376 6.43-7.512 7.76-13.863 6.72-14.578zm-12.11-29.781a27.11 27.11 0 0 0-12.12-13.323c-6.59-3.487-15.09-.976-22.55 1.971-8.66 3.486-15.98 10.283-20.38 18.865-2.5 4.834-3.44 9.13-2.96 13.323.55 4.296 2.73 8.415 6.25 11.724 2.81 2.595 6.1 4.287 8.93 5.895 4.39 2.325 10.16 5.458 16.42 5.458 1.06 0 2.17-.177 3.37-.353 5.48-1.079 9.97-4.742 13.56-8.145 3.13-3.04 6.65-6.704 8.92-11.529 3.53-7.243 3.69-16.457.56-23.886zm-64.04-1.069c1.53.446 3.69-5.458 9.63-12.068 5.7-6.444 16.3-13.333 28.09-12.348 11.87 1.163 21.35 10.014 25.92 17.526 4.89 7.429 6.09 13.687 7.72 13.51 1.18.084 2.72-7.159-1.37-17.619-2.1-5.095-5.7-10.822-10.92-15.564-5.31-4.733-12.37-8.489-20.47-9.298-8.1-.716-15.65 1.702-21.59 5.365-5.86 3.756-10.27 8.675-13.09 13.323-5.6 9.577-5.1 16.903-3.92 17.173zm-103.28-91.665c.4-1.525-15.88-8.759-42.29-20.567-26.5-11.715-62.84-28.534-104.74-42.843-41.81-14.3-81.59-21.106-110.41-21.106-28.83-.176-46.29 4.566-46.16 5.997.16 1.702 17.75-.269 45.91 2.055 27.99 2.055 66.45 9.93 107.69 24.062 41.25 14.124 78.09 29.688 105.21 39.432 27.12 9.929 44.38 14.485 44.79 12.97zm-334.49-79.142c0-.715-5.13-2.147-14.55-3.133s-23.32-.985-40.17 1.702c-16.94 2.501-36.84 8.228-57.81 17.349-21.07 9.121-43.16 21.822-65.15 37.2-43.66 31.212-79.356 64.832-105.995 87.462-26.568 23.077-43.601 36.401-42.859 37.832.78 1.163 19.339-9.753 47.106-31.212 27.933-21.105 64.358-53.665 107.228-84.329 21.57-15.025 42.93-27.818 63.16-37.116 20.21-9.391 39.21-15.741 55.45-19.228 32.57-7.159 53.5-4.388 53.59-6.527zM1819.4 852.13c-1.26 2.232-2.81 4.38-4.41 6.434-8.34 7.15-20.22 13.686-34.73 15.118-17.02 1.962-33.57.093-45.59 1.246-12.12.632-19.41 3.403-19.17 4.835.15 1.701 7.39 1.785 19.02 3.217l20.7 2.231 9.22.54c-35.15 7.698-70.13 3.216-106.91-1.609-21.99-2.864-44.68-5.904-67.39-5.997-6.33 0-13 .363-19.35.986-11.15.901-22.71 1.794-32.57-.53-2.43-.893-7.8-3.85-13.24-7.16-.59-.622-1.04-1.162-1.63-1.878-8.32-10.376-12.51-22.983-14.29-32.281-1.84-9.391-1.84-15.834-3.6-16.28-1.51-.353-4.78 5.811-5.13 17.089-.09 4.732.57 10.367 2 16.271-1.2.353-2.31.976-3.29 1.785l-43.33 36.67c-.15.083-.24.362-.41.446-4.81-4.565-8.73-6.88-10.1-5.448-1.12 1.06-.32 4.379 1.84 8.758-6.5-1.339-11.3-.446-11.56 1.515-.48 3.217 8.44 7.429 18.54 13.157 1.78.883 3.38 1.785 4.99 2.677 4.83 5.458 9.3 9.121 12.03 10.014 9.38 11.622 16.29 25.847 19.32 41.225.09.456.25.893.44 1.339-.5 2.511-.1 5.198 1.26 7.522.87 1.609 2.18 2.594 3.52 3.487.5-.893 1.08-1.702 1.86-2.418 13.63-13.593 31.94-18.688 49.6-12.784 13.87 4.556 7.93 28.878-5.93 24.23-6.9-2.232-13.96-1.878-20.26 1.162l17.86 23.791c3.93 5.27 4.64 12.7 0 17.89-4.03 4.46-11.99 5.18-15.91 0l-21.03-28.09c-.64.19-1.3.45-1.83.99-3.12 2.14-4.74 6.17-4.08 10.1.6 4.92-1 11-4.03 16.29-.97-.46-1.77-1.08-2.4-1.61-3.36-3.68-4.83-9.31-6.6-15.93-1.37-5.19-2.96-11.177-5.93-16.718 2.32-.363 4.5-.986 6.24-1.702 4.5-1.878 6.59-4.379 6.29-5.811-1.05-3.049-10.85-1.525-22.32-3.942-3.77-2.678-7.62-4.639-11.15-6.257-1.46-.716-2.9-1.339-4.41-2.148-17.49-9.214-30.19-28.971-32.35-50.523s6.34-43.997 21.51-57.413c2.49-2.055 3.68-5.458 3.46-8.768a27.07 27.07 0 0 0 2.56-7.512c.96-5.988.64-10.46 1.19-13.956.57-3.747 1.53-7.326 2.82-10.543 2.56-6.537 6.25-11.901 9.86-15.741 7.31-7.866 13.9-10.376 13.47-12.431-.07-1.609-8.17-2.687-18.77 4.742-1.28.799-2.56 1.878-3.84 3.124 4.19-10.73 11.14-17.526 17.49-21.459 6.99-4.389 12.45-5.365 12.45-7.159.16-1.432-5.87-3.487-15.28-.261-4.62 1.609-10.01 4.649-14.75 9.651-4.64 4.742-8.34 11.539-10.73 18.874-7.07-7.242-16.79-7.958-22.16-7.512-4.42.27-8.67 1.162-12.77 2.055-3.06.623-6.09 1.255-9.13 1.701-5.72.716-11.73.27-17.5-1.078.81-7.69-1.2-13.501-3.28-13.324-2.11.186-3.79 4.472-5.79 10.2-2.02-.809-4.02-1.609-5.95-2.771-2.16-1.255-4.24-3.05-6.4-4.835-2.1-1.878-4.28-3.663-6.73-5.188-.83-.539-1.63-.892-2.43-1.246 2.96-15.657 1.71-27.725-.72-27.818-2.33-.177-4.81 10.106-8.52 23.606-.55-.26-1.18-.53-1.83-.706-2.09-.809-4.17-1.609-6.19-2.511l-19.5-8.312c3.05-18.781.49-33.36-1.84-33.183-2.49.093-4.09 12.877-7.63 29.334-11.94-4.649-24.16-8.758-36.6-11.622-.07-3.217-.22-6.527-.48-9.567-.8-8.414-2.23-15.927-4.09-21.915-3.69-11.984-8-18.335-9.15-17.619-1.44.623.41 7.959 2.09 19.59 1.06 7.597 1.85 17.08 1.77 27.633-14.38-2.324-32.91-3.04-51.67 2.148-1.12-6.983-2.66-13.24-4.34-18.251-3.31-10.284-6.73-15.918-8.04-15.472-2.16.902 1.37 15.741 3.22 36.763-4.34 1.785-8.59 3.756-12.77 6.164-6.96 4.119-13.32 9.121-19.41 14.579-1.78-11.176-4.34-20.836-6.68-28.079-3.19-9.753-5.91-15.564-7.29-15.201-1.35.446-1.12 6.973.22 17.163 1.25 9.214 3.22 21.292 4.51 34.615l-5.22 5.095c-6.73 6.527-13.3 12.794-20.13 18.335-.57-8.052-1.61-12.784-2.82-12.877-1.44 0-2.8 6.62-4.17 16.987-.07.362-.07.716-.22 1.078-1.56 1.069-3.15 2.232-4.77 3.217-9.36 5.458-19.72 9.037-29.91 12.161-.33-9.92-1.44-18.781-2.8-25.391-1.53-8.322-3.37-13.333-4.73-13.147-1.47.176-2.19 5.448-2.43 13.853l-.14 27.642-40.79 12.068v-.353c-.47-9.837-3.12-15.388-4.4-15.118-1.46.27-1.46 5.997-2.81 14.662-1.28 8.591-4.16 20.223-10.51 30.952-6.25 10.823-14.62 18.512-21.123 23.244-1.756 1.339-3.351 2.418-4.809 3.403-.248 0-.477.093-.716.093-15.897 2.771-24.713 7.95-24.237 9.651.468 1.971 9.953.27 24.953.093 14.922-.186 35.552 1.878 56.652 10.822 21.03 8.852 37.89 22.538 48.97 33.714.95.892 1.77 1.701 2.65 2.594 14.66 15.564 28.16 33.536 42.6 54.734l1.03 1.42c4.12 6.09 8.85 13.06 15.32 18.07 3.65 2.78 7.32 4.65 11.19 6.27.79-.1 1.53-.54 2.4-.46 20.78 1.16 41.4.09 61.95-3.49 14.21-2.5 20.22 21.75 6.02 24.35-16.93 2.94-33.79 4.65-50.86 4.74.22.26.38.35.71.53 3.59 2.77 8.36 6.79 14.38 11.18 5.35 4.02 10.99 7.24 15.63 8.76 1.93 2.6 3.52 5.54 4.75 8.68l-4.1-2.33c-10.67-5.99-21.04-10.11-27.23-13.68-6.41-3.58-9.05-7.69-10.49-7.06-.66.26-.72 1.96.16 4.55.8 2.6 2.88 5.99 6.09 9.12 3.29 3.14 7.48 6.09 12.04 8.86 3.46 2.14 7.23 4.29 11.16 6.44-7.94 1.97-15.72 4.11-23.44 6.7-.16-1.42-.64-2.94-1.52-4.28l-26.82-43.11c-2.47-4.02-7.04-5.45-11.06-3.49-16.22 7.87-38.28 4.74-60.44-8.76-10.19-6.19-19.65-13.7-29.59-21.48-9.57-7.59-19.51-15.47-30.11-22.08-34.511-21.377-75.268-27.188-113.797-19.239 2.725-3.04 5.055-5.987 7.064-8.842 7.779-11.092 10.439-19.497 9.072-20.483-1.45-1.162-6.504 5.096-15.319 13.761-4.505 4.388-9.816 9.307-16.228 14.049-6.164 4.648-13.319 9.121-21.191 13.769-8.724 4.026-17.172 8.945-25.117 14.575-6.503 4.21-12.348 8.23-16.842 12.53-5.312 4.65-8.917 9.12-10.926 12.34-.871.98-1.843 1.96-2.715 2.86-27.053 32.02-40.281 71.11-36.199 107.59 3.606 32.82 21.42 64.57 50.225 89.43a158.93 158.93 0 0 0 13.485 10.47c-25.116-8.85-52.793-23.7-76.148-49.19-31.052-33.9-47.188-81.83-42.208-125.11 3.606-30.69 16.77-58.67 29.998-84.699 13.96-27.279 28.987-54.466 44.711-80.759 6.091-10.2 12.834-20.12 19.338-29.697l9.723-14.393c1.266-2.054 2.955-4.648 4.568-7.596 5.541-9.037 13.797-22.807 19.568-25.401h.165c2.238-.985 3.302-3.756 2.495-6.257-.88-2.418-3.303-3.673-5.477-2.687-.064 0-.137 0-.137.093-98.138 41.941-170.782 146.567-180.727 260.336-6.099 69.22 30.09 146.58 69.094 187.27 39.483 41.22 96.699 65.11 157.041 65.65h1.999c31.953 0 77.048-6.62 115.255-37.13 25.12-20.11 44.07-48.28 60.26-76.55 1.47-1.96 2.99-3.93 4.35-5.89l17.17-18.35c16.36-17.88 31.85-34.87 50.23-47.93 22.57-16 47.59-25.13 74.71-30.4a185.23 185.23 0 0 1 14.29-2.42c23.91-3.49 49.36-4.65 76.08-5.27 34.93-.99 72.7-1.97 108.82-10.56 15.49-6.25 30.27-15.2 43.97-28.26 10.99-10.46 26.97 7.33 15.98 17.89-78.24 74.59-191.49 21.91-276.54 58.13-33.54 21.01-60.67 52.94-84.99 84.96l-13.96 18.78c-22.88 30.86-46.56 62.6-75.37 85.94-35.22 28.62-71.81 31.84-114.119 35.42l-11.54.97c-40.298 3.58-94.633-11.16-138.509-37.64-37.886-22.8-69.186-59.2-88.047-102.57-18.86-43.3-25.282-93.37-18.053-140.77 21.347-140.956 95.414-254.443 203.275-311.409l21.741-10.999c20.705-10.376 42.124-20.92 62.205-36.391 13.385-10.293 26.154-21.552 38.592-32.468 12.835-11.268 26.085-22.89 39.625-33.183 74.42-56.427 172.15-82.628 275.29-73.776 86.43 7.419 177.02 37.915 277.02 93.366 3.29 1.786 6.59 3.394 9.95 4.919-16.77 3.393-27.68 9.837-26.96 11.891.87 3.134 21.26-2.231 46.55-2.501l10.03.093c13.96 3.041 27.85 4.38 41.56 5.718 25.99 2.501 50.65 5.012 74.15 17.889-.08 4.556 1.22 8.498 2.97 10.729 2.16 2.771 4.41 3.31 5.46 2.241 2.01-2.148.62-8.052 1.84-13.509.17-.084.24-.177.31-.27 9.01-8.135 24.1-7.243 32.26 1.878 8.2 9.121 9.08 26.024 1.86 36.131-1.11 0-2.23-.093-3.37-.177-4.33-.177-8.44-.446-11.64-.269-7.22-4.026-12.02-7.243-13.38-5.811-.9 1.069.71 5.095 5.12 10.106 4.35 4.918 11.46 10.46 20.54 13.946 7.79 3.041 15.33 3.85 21.26 3.403 9.01 5.002 16.56 13.417 20.64 23.607 6.01 14.662 4.88 32.997-2.82 46.776z"/></svg>