<svg xmlns="http://www.w3.org/2000/svg" viewBox="0 0 1500 1500" width="150pt" height="150pt" xmlns:v="https://vecta.io/nano"><path fill="#040606" d="M1097.44 782.544c7.59-16.455 4.74-35.835 7.52-53.331.46-.642 1.17-.251 2.14.825 5.98 7.368 12.22 17.27 15.95 26.322 4.57 12.896 6 11.543 6.88-1.71 1.53-34.445-11.14-71.824-30.1-100.177-3.03-7.62 25.9 15.96 28.74 18.13 1.44.711 2.83 1.18 2.11-1.459-14.43-41.327-58.22-81.796-99.54-99.683-2.71-.919 5.35 6.414 9.44 10.867 1.58 1.57 31.6 33.559 18.79 28.11-7.45-3.168-37.38-15.779-16.79.503 15.82 15.17 35.63 42.855 39.83 61.592.5 6.596-7.34-.85-9.8-2.03-3.73-2.457-8.98-5.52-12.65-6.979-2.95-1.214-4.41-1.388-3.91.07 25.51 32.597 36.55 75.201 34.55 117.136.04 12.149-.89 20.377 6.1 3.592l.74-1.778zm-31.35 532.246c.4-24.72 10.97-49.07 36.52-57.78 6.26-3.25 17.67-3.36 19.24-11.13-.07-10.53-8.09-37.69-17.21-50.48-4.17-2.91-5.24 13.38-11.44 5.67-10.62-13.83-19.66-36.79-24.29-52.34-2.28-2.63-5.56 3.79-8.37 4.74-1.32.5-2.64.12-4-1-8.8-9.73-13.93-24.33-18.84-37.18-.92-1.78-2.35-4.98-4.7-3.49-2.86 1.62-5.38 8.11-8.87 3.66-8.02-11.36-15.89-28.57-22.48-42.01-1.96-4.12-3.566-6.98-4.382-6.33-3.853 19.59 2.101 49.76 1.493 70.32.356 5.89-10.97-5.56-14.676-8.23-1.927-1.41-3.133-1.7-3.671-.07-.711 9.79.894 26.79 1.103 38.04.355 7.55.963 13.91-1.675 12.59-2.812-.86-10.649-9.69-14.78-11.68-1.571-.75-1.822.38-1.822 2.9.182 9.98.928 29.43 1.466 41.3.139 34.37 7.368 66.48-21.02 88.03-8.583 8.15-21.878 6.74-36.129 7.45l-70.679.61c-10.613-.72-17.452 1.25-19.735-1.36 6.275-16.73 11.543-42.61 11.968-62.48 3.177-13.4 14.754-26.8 19.527-39.51 15.778-21.48 31.668-39.19 36.338-68.22 1.744-7.8 4.521-14.25 9.329-20.2 14.329-15.78 19.735-47.53 19.136-73.25.105-8.95 1.493-16.78 5.234-24.66 8.765-18.732 11.013-57.956 7.229-84.528-.46-5.454 1.71-3.678 3.923-1.71 12.254 10.152 10.188-45.292 10.406-53.261.138-14.61-.859-28.079-2.856-41.079.035-2.57 2.856-.322 6.77 4.313 3.887 4.417 6.916 7.941 8.123 6.726 2.603-4.522 2.248-9.469 3.211-15.457 3.272-33.343.816-58.494-6.241-85.789-2.455-9.832-4.13-16.063 7.343-2.49 2.708 2.603 13.642 18.876 13.998 11.074 1.068-13.565-.251-29.455-1.744-43.497-2.031-22.903-11.612-51.543-16.741-72.319 2.916-1.138 23.406 26.079 29.568 37.231 1.102 1.709 3.099 4.703 3.272.46-.321-35.903-22.477-76.129-48.019-109.976-2.603-3.662-5.094-7.16-6.092-8.974-4.383-8.262 29.316 15.604 27.251 13.183 2.1-.069.789-1.709-.495-4.842-13.79-31.712-48.635-72.501-73.213-91.274-1.883-1.892-5.624-3.636-3.28-5.919.754-.563 2.108-1.136 3.888-1.596 39.262-9.087 83.323-9.269 121.764 3.384 1.89 1.033 2.6 2.204 1.64 3.377-1.04.962-.42.824-4.56 2.994-5.701 2.959-9.294 5.806-1.03 6.882 30.85 2.525 73.96 18.555 96.86 34.94 5.13 4.703-1.1 5.667-9.23 7.376-10.15 2.179-13.79 3.889-4.9 5.772 32.63 6.596 70.92 22.66 90.55 48.236.68 2.855-26.04-2.491-17.56 5.45 26.43 16.212 53.05 36.451 67.69 64.309.7 6.023-24.55-2.925-19.42 5.198 18.88 15.109 41.72 36.841 52.55 57.644.56 1.457 1.88 4.096.75 5.346-1.07 2.1-8.69-.252-13.08.034-8.62 1.354 7.41 14.607 9.38 18.634 13.49 19.023 26.63 37.013 26.57 52.436-2.64 3.029-10.2-1.883-13.43-1.71-4.85-.46-2.89 3.455-1.28 6.309 13 20.699 21.76 44.175 22.76 66.114-.18 2.144-.96 3.064-2.74 2.708-2.71-.278-19.42-13.105-16.5-4.878 11.51 27.431 17.41 57.465 16.46 88.28-.71 5.487-10.22-7.945-14.68-10.966l-1.67-1.005c-1.72-.572-1.18 2.067-1.28 3.03 4.2 23.153 11.71 52.049 7.48 72.35-2.42 5.63-7.56-4.27-10.62-6.94-5.73-5.947-11.15-12.256-10.26-6.628l15.35 80.158c2.71 14.17.57 13.85-11 4.24-14.19-10.91-6.53 3.24-3.24 13.47 1.92 7.8 26.51 62.72 12.14 55.75-8.37-4.16-18.84-14.64-11.57 2.57 14.81 32.24 17.56 63.23 16.13 99.59 1.5 29.25-15.95 50.98-43.42 59.97-4.96 1.61-7.2 2.17-11.34 2.42-26.1.97-142.78 3.41-153.83.22l-.32-1.25zM687.216 310.512c-8.401-24.117-42.708-38.515-62.843-20.663-4.66 4.417 4.921 7.906 8.731 8.514 17.956-4.027 34.341-4.912 43.107 15.247 2.031 4.487 9.086 7.126 13.07 6.094.894-1.034-.955-6.059-1.631-8.054l-.434-1.138zm-186.426 7.056c1.423-.286 5.667-7.984 7.628-10.943 9.078-12.324 25.68-12.142 39.045-8.401 8.297.069 19.128-2.786 10.363-8.445-28.145-19.631-58.954-.894-70.393 29.499-2.065 2.491 13.504-1.822 12.714-1.432l.643-.278zm163.271 97.539c-2.239-31.243-5.702-58.745-19.701-79.27-15.674-21.654-37.118-41.788-64.057-33.309-34.835 12.255-45.206 72.501-48.479 106.878.139 8.305-2.638 18.919-.286 26.652 1.493 1.493 8.011.495 12.151.495 5.771-.573 16.098.103 21.193-1.927 2.993-1.354 8.695-5.373 12.506-7.724 6.231-4.209 13.286-8.089 19.197-12.688 3.029-2.673 2.889-6.735 2.603-11.682.356-9.616-9.728-11.864-15.179-17.67-19.7-26.044 3.315-42.291 30.176-39.834 10.223.607 24.508 1.249 30.071 10.795 4.556 8.124 2.526 24.874-6.309 31.279-6.734 4.885-13.504 5.415-13.608 15.43-.252 2.491-.139 5.415.468 7.872 2.665 6.838 11.326 10.292 17.271 16.141 4.495 4.453 8.661 9.33 14.215 11.613 12.151 6.518 7.238-13.538 7.916-19.848l-.148-3.203zm-34.411 48.627c2.56-1.641 8.653-4.556 8.444-8.123-1.788-6.874-10.119-12.714-16.394-15.847-16.202-8.592-38.081 1.952-52.184 16.671-1.857 1.206 1.779 2.95 3.454 4.522 14.997 10.727 39.366 10.509 55.465 3.384l1.215-.607zm-75.886 865.976c7.698-103.13 94.198-26.82 99.223-142.88 2.17-18.71 3.271-47.6 5.094-64.55.313-2.72.677-4.86-.72-4.96-4.339-.56-12.037 11.76-13.712 6.61-.538-14.99 2.924-28.67 8.054-44.08 4.382-13.13 10.258-29.79-6.093-10.63-13.113 17.77-8.305-49.63-7.021-62.38-.356-6.12 7.195-28.281.538-22.694-3.671 2.39-7.698 8.301-11.863 8.409-13.999-13.722-12.437-47.351-10.155-66.228.573-3.453 3.099-13.788-3.28-8.409-32.38 26.796-7.976 69.399-9.65 102.752-4.67 6.55-11.76-21.374-14.998-.47-1.432 7.09-14.97 43.62-20.238 35.23-1.996-3.71-2.673-19.74-7.55-19.45-6.205 12.19-11.76 35.91-26.471 42.29-3.384 1.42-1.891-30.82-9.338-16.7-2.881 5.8-6.014 14-9.867 19.02-2.777 5.59-30.028-14.19-32.771-10.88-1.995.75 5.017 10.7 9.938 17.22 18.207 20.7 61.809 49.95 57.53 72.1-1.562 6.95-19.518 11.4-20.022 19.57.113 2.49 2.387 4.2 5.208 3.78 1.961-.44 1.597-.11 6.335-2.04 11.221-6.1 18.069-4.28 13.183 9.52-2.916 5.02-10.935 8.47-16.203 11.44-9.234 3.97-10.154 13.44.781 10.99 5.806-1.07 8.653-2.88 12.15-2.7 1.597.14 2.274 1.09 1.849 2.84-1.25 4.64-7.299 11.79-12.116 14.62-62.911 23.39-130.171-18.11-168.643-70.01-38.516-48.41-45.814-116.27-16.003-170.047 3.35-8.193-20.447 10.269-20.586 5.769 3.992-18.478 19.345-34.624 29.742-50.579 4.565-6.525 7.203-9.265 1.857-8.119-5.554 1.17-13.217 3.237-18.208 4.051-2.56.324-2.673-.423-1.493-2.59 10.579-17.923 25.29-38.194 34.88-57.464 1.849-4.6 8.297-15.822 2.665-15.145-4.809 1.172-17.133 16.459-16.811 5.589.425-21.297 11.577-63.909 16.811-90.448.112-1.814-1.207-1.537-3.559.286-2.422.885-10.683 12.22-13.895 12.323-5.588-27.354 5.632-54.111 13.079-82.151.174-1.64-.72-1.493-2.604-.173-4.095 2.629-12.93 12.253-14.467 9.754-2.49-13.105 2.031-30.488 5.094-48.444 1.997-6.987 8.02-41.189 14.363-37.553 4.167 9.408 10.754 23.476 17.558 33.413 7.663 10.44 27.65 44.817 25.723 18.815.251-1.25.964-1.215 1.927-.147 3.029 3.853 6.265 10.657 9.798 14.97 13.538 17.879 38.793 41.64 57.635 44.175-12.61-12.046-27.997-31.356-38.611-46.848-15.717-23.336-29.75-56.862-40.191-85.007-4.66-11.221-4.097 14.215-4.235 16.351-.035 2.109-.86 2.43-2.638 1.285-22.192-20.413-31.599-54.937-32.702-83.394-.573-6.344-.216-12.975-2.03-18.346-3.811-7.629-11.725 17.947-15.57 7.689-5.346-22.192-1.857-56.004 7.16-79.835 3.029-8.731-5.485-3.168-9.798-.608-17.349 9.053 6.665-47.984 9.19-51.472 5.632-10.866 13.47-20.811 19.31-31.53 2.456-9.338-17.851 4.591-17.808 0 4.2-25.15 31.668-53.764 52.367-69.438 13.321-10.866-15.144 1.215-17.384-2.595-14.753-11.976-25.047-30.288-25.012-50.058-1.848-77.057 84.964-78.516 117.387-15.778 1.814 3.593-4.347 5.451-10.796 11.109-2.135 1.927-4.634 4.21-6.63 6.31-8.192 8.73-8.262 10.969 2.673 4.703 23.372-14.892 50.735-21.662 78.698-16.671 11.048 2.421 19.023 10.119 29.247 5.771 6.986-3.063 6.839-2.352 12.254-4.495 23.016-7.941 46.674 2.568 67.659 13.79 9.615 5.198 21.158 11.69 7.62-3.133-4.67-7.273-20.161-11.612-22.157-18.989 9.364-31.313 47.377-53.044 76.737-38.516 33.594 16.923 38.975 61.211 18.312 92.098-10.406 15.491-10.189 14.961-26.506 10.44-3.818-.147-.32 3.88 1.207 5.485 18.459 19.345 41.189 38.724 47.915 64.552-1.528 3.453-13.53-1.537-16.845-.894-9.695-2.135 12.254 27.077 12.106 31.312 12.185 27.113 14.685 57.539 10.796 88.323-2.065 8.331-7.688-4.886-11.472-8.124-14.103-16.359-4.695 7.838-5.095 15.206 3.211 28.821-5.728 64.239-19.805 92.592-.963 2.743-4.521 9.408.07 5.841 21.523-16.282 34.063-39.896 41.614-65.012 13.391 38.151 4.704 100.75-20.916 123.046-2.994-1.527.643-25.793-5.909-18.382-12.759 25.081-23.546 63.45-39.332 84.86-6.986 11.152-19.024 21.592-25.438 32.241 27.651-7.056 49.877-31.816 66.479-55.535 6.023-1.57-1.423 20.3 2.283 18.555 22.685-15.89 34.662-47.663 38.437-75.312.712-2.387.53-8.228 1.709-12.428 1.528-4.887 4.487 1.457 5.807 3.67 4.634 9.79 7.377 14.39 9.086 2.274 2.994-18.841 1.562-62.773-2.178-75.669-.712-8.548 14.684 16.282 16.498 15.891.747.356 1.285 0 1.527-.998.434-1.997.218-6.162.183-9.191.138-32.952-20.091-69.897-30.107-102.208.252-2.066 3.958.321 5.208.746 4.339 2.1 11.109 6.561 6.552-2.812-5.233-13.147-17.922-42.499-21.445-48.773-.572-1.71-2.317-3.238.104-3.454 20.838 6.057 48.913 27.927 60.17 45.848-.105 4.314-12.29-.781-14.78 1.857 18.06 27.538 49.233 48.879 59.778 78.803-.104 2.282-4.521-.286-10.119-3.029-5.234-2.638-12.932-5.702-18.772-7.698-10.979-4.027-4.452 1.779-.356 6.483 24.648 26.47 51.438 60.777 53.755 96.723-6.803-2.812-10.44-9.477-16.098-12.827-25.724-19.232-13.044-2.169-4.496 11.794 9.052 8.444 45.641 106.982 18.989 81.302-4.452-3.098-22.156-17.461-14.928-5.025 7.629 14.138 14.928 29.924 18.668 45.667 2.96 8.158 10.302 63.484-2.595 40.399-4.452-6.657-10.83-14.389-16.428-20.482-6.162-6.587-9.868-10.188-8.722-6.231 10.579 29.248 20.447 58.277 19.666 89.52-.504 11.048 2.065 26.583-4.461 35.058-4.626-2.495-13.461-20.807-19.232-24.721-2.89-2.856-4.417-3.567-3.992-.747 14.285 41.714 23.05 89.347 13.86 133.302-3.133 11.655-4.245 10.26-11.118-1.635-3.133-4.848-18.989-24.755-13.712-9.472 11.751 28.251 24.543 91.521 4.062 115.711-2.856 1.03-7.95-9.66-12.896-13.15-7.733-6.67-.999 25.29-2.639 30.14-1.32 20.78-2.925 45.28-17.852 60.17-3.133.89-7.334-12.85-11.005-17.09-1.388-1.93-2.351-2.33-2.959-.7-2.708 16-1.354 36.02-9.33 50.98-7.663 15.97-7.949 8.17-18.78-.45-1.849-.97-2.778-.1-2.778 2.25.218 4.55 1.892 11.83 2.387 18.17 7.056 46.45-6.022 101.18-56.393 112.9-24.544 4.12-61.271 1.87-89.885 2.74-21.584 1.52-72.068-1.08-100.281 0-4.956.6-5.165-2.39-5.095-6.11l.104-2.7"/></svg>