<svg xmlns="http://www.w3.org/2000/svg" viewBox="0 0 1500 1500" width="150pt" height="150pt" xmlns:v="https://vecta.io/nano"><path d="M1079.32 371.028c5.07 0 9.21 8.66 9.21 13.711s-4.14 9.14-9.21 9.14c-5.09-.001-9.19-4.093-9.19-9.14s4.1-13.711 9.19-13.711zm-18.4 52.553c0 5.048-4.11 9.139-9.21 9.14-5.08 0-9.19-4.089-9.19-9.14s4.11-13.71 9.19-13.71c5.1 0 9.21 8.66 9.21 13.71zm-55.12 0c0 5.049-4.11 9.141-9.195 9.14s-9.205-4.091-9.196-9.14c0-5.05 4.114-13.71 9.196-13.71s9.195 8.66 9.195 13.71zm27.52-31.987c0 5.048-4.12 9.14-9.19 9.141-5.09.002-9.21-4.091-9.2-9.141 0-5.049 4.11-13.709 9.2-13.709 5.06 0 9.19 8.66 9.19 13.709zm-55.038-6.855c0 5.048-4.124 9.141-9.205 9.14-5.072.002-9.196-4.092-9.196-9.14s4.114-13.711 9.196-13.711 9.205 8.66 9.205 13.711zm87.628-124.879c2.2-.674 4.47-1.016 6.74-1.016 12.62 0 22.83 10.133 22.83 22.633-.02 2.564-.47 5.107-1.35 7.518 8.07 6.426 12.77 16.147 12.78 26.426 0 9.004-3.61 17.642-10.03 24.006a34.41 34.41 0 0 1-24.23 9.951c-6.58-.011-13.03-1.899-18.57-5.44-17.2 14.793-42.72 14.793-59.914 0a34.55 34.55 0 0 1-18.585 5.44c-9.079.005-17.79-3.575-24.208-9.951-6.427-6.359-10.038-14.997-10.04-24.006.027-10.268 4.736-19.972 12.799-26.391-.891-2.422-1.355-4.976-1.384-7.553 0-12.5 10.221-22.633 22.833-22.633a23.06 23.06 0 0 1 6.834 1.039c8.711-14.636 24.555-23.64 41.715-23.674 17.18 0 33.05 8.992 41.78 23.651zm-133.624-32.791c.001 5.049-4.118 9.141-9.199 9.14s-9.199-4.091-9.198-9.14 4.117-9.142 9.198-9.14 9.2 4.092 9.199 9.14zm-32.994 41.063c-2.501-.437-4.17-2.806-3.729-5.29.612-3.464 4.767-4.971 7.48-2.713 1.259 1.047 1.86 2.683 1.577 4.291-.442 2.486-2.826 4.147-5.328 3.712zm249.168-22.782c1.22 0 2.4.491 3.26 1.348.87.857 1.36 2.011 1.36 3.222 0 1.222-.49 2.377-1.36 3.234a4.64 4.64 0 0 1-3.26 1.336h-4.62c-2.53.002-4.61-2.046-4.6-4.57 0-1.211.49-2.365 1.35-3.222s2.03-1.345 3.25-1.348h4.62zm-23 0c1.22 0 2.4.491 3.25 1.348.88.857 1.36 2.011 1.36 3.222 0 2.524-2.05 4.572-4.61 4.57h-4.59c-1.23.001-2.4-.48-3.25-1.336-.88-.854-1.35-2.019-1.35-3.234s.47-2.365 1.35-3.222c.85-.86 2.02-1.345 3.25-1.348h4.59zm12.46 10.488a4.51 4.51 0 0 1 1.35 3.222v4.571c0 1.212-.48 2.375-1.35 3.233-.85.856-2.03 1.337-3.24 1.337-1.23.002-2.39-.479-3.27-1.337-.85-.858-1.33-2.021-1.33-3.233v-4.571a4.57 4.57 0 0 1 1.33-3.222 4.67 4.67 0 0 1 3.27-1.348c1.21 0 2.4.492 3.24 1.348zm0-22.849a4.51 4.51 0 0 1 1.35 3.223v4.57c.01 2.524-2.06 4.571-4.59 4.57-1.23 0-2.39-.48-3.27-1.337-.85-.857-1.33-2.02-1.33-3.233v-4.57c0-1.212.48-2.365 1.33-3.223.88-.86 2.04-1.345 3.27-1.347 1.21 0 2.4.491 3.24 1.347zm17.74 54.316c1.01.694 1.71 1.76 1.91 2.958a4.57 4.57 0 0 1-3.73 5.29c-2.5.435-4.89-1.22-5.33-3.702a4.64 4.64 0 0 1 .76-3.416c.69-.993 1.76-1.671 2.95-1.885a4.62 4.62 0 0 1 3.44.755zM187.046 500.91h-9.987c0-10.254 4.329-15.878 7.656-20.508 2.998-3.968 5.66-7.276 5.66-14.223s-2.33-10.254-5.326-14.554c-3.329-4.301-7.658-9.924-7.658-20.508 0-10.254 4.329-15.878 7.658-20.178 2.996-3.968 5.659-7.277 5.659-14.224h9.986c0 10.254-4.328 15.879-7.656 20.177-2.997 3.969-5.66 7.277-5.66 14.225s2.33 10.254 5.66 14.223c3.328 4.301 7.656 9.924 7.656 20.508s-4.328 15.878-7.656 20.508c-3.329 4.3-5.992 7.277-5.992 14.554zm59.585-1.984h-9.985c0-10.254 4.328-15.878 7.657-20.508 2.995-3.969 5.658-7.276 5.658-14.224s-2.33-10.254-5.658-14.224c-3.329-4.301-7.657-9.923-7.657-20.507 0-10.254 4.328-15.879 7.657-20.178 2.995-3.968 5.658-7.276 5.658-14.223h9.986c0 10.254-4.327 15.876-7.656 20.177-2.997 3.969-5.66 7.276-5.66 14.224s2.33 10.254 5.66 14.223c3.329 4.301 7.656 9.924 7.656 20.508 0 10.254-4.327 15.878-7.656 20.507-3.328 3.97-5.66 7.278-5.66 14.225zm-122.501 0h-9.986c0-10.254 4.329-15.878 7.657-20.508 2.996-3.969 5.659-7.276 5.659-14.224s-2.33-10.254-5.659-14.224c-3.328-4.301-7.657-9.923-7.657-20.507 0-10.254 4.329-15.879 7.657-20.178 2.996-3.968 5.659-7.276 5.659-14.223h9.986c0 10.254-4.328 15.876-7.657 20.177-2.996 3.969-5.659 7.276-5.659 14.224s2.33 10.254 5.659 14.223c3.329 4.301 7.657 9.924 7.657 20.508 0 10.254-4.328 15.878-7.657 20.507-3.329 3.97-5.659 7.278-5.659 14.225zm112.516-226.913c0 23.017-18.779 41.678-41.943 41.678s-41.944-18.661-41.944-41.678 18.778-41.678 41.944-41.678 41.943 18.659 41.943 41.678zm-35.952 49.947v48.624c.015 3.294-2.676 5.968-5.991 5.954-3.316.015-6.007-2.66-5.993-5.954V322.29c1.999.331 3.995.331 5.993.331s3.993-.331 5.991-.661zm-45.606-18.522c2.331 2.977 4.993 5.622 8.323 8.268l-34.287 34.07a5.85 5.85 0 0 1-8.321 0c-2.33-2.315-2.33-5.955 0-8.27l34.285-34.068zm113.515 34.068c2.328 2.315 2.328 5.955 0 8.27a5.85 5.85 0 0 1-8.323 0l-34.287-34.07c3.097-2.415 5.891-5.192 8.322-8.269l34.288 34.069zm30.958-65.162c.015 3.294-2.677 5.969-5.992 5.954h-48.601c.333-1.985.333-3.969.333-5.954s0-3.97-.333-5.955h48.601c3.329 0 5.66 2.647 5.992 5.955zm-155.124 5.623H95.836c-3.315.014-6.006-2.66-5.992-5.954-.014-3.294 2.677-5.969 5.992-5.955h48.601c-.333 1.985-.333 3.971-.333 5.955s0 3.968.333 5.954zm81.556-45.316l34.287-34.07a5.85 5.85 0 0 1 8.323 0c2.328 2.315 2.328 5.953 0 8.269l-34.288 34.069c-2.329-2.976-4.992-5.953-8.322-8.268zm-105.19-25.801a5.76 5.76 0 0 1 0-8.269 5.85 5.85 0 0 1 8.321 0l34.287 34.07a49.1 49.1 0 0 0-8.322 8.268l-34.286-34.069zm67.907 15.546v-48.293c-.013-3.295 2.677-5.967 5.993-5.954 3.315-.013 6.006 2.659 5.991 5.954v47.963c-1.998-.332-3.995-.332-5.991-.332s-3.995.332-5.993.662zm989.94 501.563l1.08 1.074v334.847H939.339c43.744-19.69 72.741-32.09 86.901-37.12 1.79-.79 3.56-1.62 5.31-2.49l-9.34-1.56-6.83-1.17-75.894-21.932c-7.716-1.758-20.545-2.686-38.338-2.833-3.785-1.367-8.454-2.735-14.057-4.151-8.356-1.954-15.336-3.468-21.135-4.591-23.84 9.132-46.057 14.355-66.504 15.528-3.539.347-7.422.539-11.552.539-10.174 0-22.166-1.077-35.979-3.126-3.44.394-7.176.587-11.108.587h-.394c-3.391 0-8.552-.491-15.434-1.462l-37.749-7.231c-22.609-4.591-43.254-9.329-62.03-14.214-37.503-9.719-67.338-19.877-89.556-30.476-11.109-5.324-20.299-10.745-27.574-16.265-1.131-1.611-1.474-2.588-1.081-2.929 7.716-.978 13.713-3.809 17.99-8.596.147-.049.294-.049.491-.049 1.229 0 3.047.489 5.357 1.514h.59c.738 0 1.278-.098 1.671-.342l6.783-10.11c1.18-1.612 1.966-2.442 2.261-2.442.148-.147.443-.245.786-.245 1.279 0 3.638.977 7.079 2.931a3.81 3.81 0 0 0 .737.048c.491 0 .884-.097 1.278-.292l8.946-12.992c.196-.049.344-.098.541-.098.442 0 .786.244 1.08.683l3.736 10.355c.197.342.394.537.59.537s.442-.146.689-.44c.54-1.172.589-6.935.196-17.29 3.932-16.508 6.636-30.624 7.963-42.395l.049-4.346 11.502 37.412c2.064 6.349 3.588 9.866 4.521 10.55a1.36 1.36 0 0 0 .689.195c.296 0 .541-.097.785-.293 3.245-4.445 5.506-6.887 6.735-7.375a4.02 4.02 0 0 1 1.622-.341c.296 0 .541.049.836.097.737.097 2.261.781 4.62 2.051h.296c.344 0 .687-.146 1.08-.342 4.523-7.325 7.274-10.94 8.307-10.94.098 0 .197.049.246.098l8.749 9.914c1.819-16.118 3.491-26.961 5.063-32.577 4.424-17.582 7.422-26.667 9.143-27.253h.196c.639 0 1.377.586 2.26 1.758 5.408 16.069 9.488 25.153 12.289 27.303l8.553-10.16c4.326.489 9.241 2.686 14.648 6.544l6.143-2.051c3.441 2.198 5.703 3.322 6.686 3.322.147 0 .245 0 .343-.049 2.261-14.018 5.063-22.321 8.356-25.007 3.097-4.543 8.357-8.157 15.828-10.697.393-.098.786-.147 1.179-.147 4.031 0 11.059 4.64 21.087 13.871 3.637-4.933 5.849-7.375 6.684-7.375.099 0 .148 0 .197.049 6.783 2.735 11.108 4.104 12.976 4.104.196 0 .442-.05.59-.099 3.735-9.23 6.586-13.87 8.453-13.87a1.19 1.19 0 0 1 .591.145c7.914 11.918 12.78 17.877 14.697 17.877a.76.76 0 0 0 .492-.196c4.718-16.655 8.798-27.986 12.288-34.091l13.075 22.467c1.032 1.709 2.31 2.539 3.685 2.539.247 0 .493 0 .689-.048 5.112-27.791 8.602-43.665 10.42-47.62 2.36-7.962 4.965-12.406 7.766-13.286h.049c1.082 0 1.917.88 2.507 2.589l10.225 29.403c4.079 5.372 7.815 8.058 11.206 8.058a8.01 8.01 0 0 0 1.082-.097c-1.082-4.689.098-23.981 3.588-57.828.491-3.077 1.278-4.64 2.458-4.64.196 0 .393 0 .589.098h.099c1.523.439 3.539 2.442 5.947 5.909 4.522 7.913 10.813 17.534 18.875 28.866 4.031 5.519 8.356 10.451 12.976 14.847 1.032.977 2.458 2.003 4.326 3.077 5.16-14.116 9.339-31.893 12.435-53.432 12.583 7.18 21.775 13.676 27.627 19.536.242.049.494.098.736.098.542 0 .929-.194 1.229-.586l4.075-9.084c.3-.341.687-.489 1.132-.489.349 0 .736.099 1.181.293 0-.049 0-.098.049-.098.445 0 4.23 4.934 11.305 14.848.987 1.026 2.062 1.564 3.34 1.661 1.326-.342 2.168-1.318 2.458-2.93 1.481-9.133 3.339-17.193 5.701-24.127.784-2.15 1.868-3.224 3.291-3.224 8.799 8.059 14.161 13.43 16.078 16.215 3.194 3.858 5.603 7.57 7.283 11.086.53.586 1.17.881 1.76.881a2.06 2.06 0 0 0 .79-.148c1.92-.488 3.19-1.464 3.93-2.833 1.87-15.335 5.7-25.445 11.5-30.281l19.22 20.318c.35.294.65.44.98.44.4 0 .85-.244 1.27-.782 2.71-4.884 4.15-9.475 4.29-13.773-3.64-.635-5.16-7.424-4.58-20.318l10.56-23.591h.21c1.14 0 3.15 2.295 6.1 6.887 8.44 22.663 15.04 35.654 19.71 38.975.73.733 1.46 1.075 2.2 1.075.2 0 .36 0 .55-.049 2.94-2.442 6.43-4.64 10.41-6.495.9-.93 1.2-1.809.9-2.785-3.16-2.393-4.93-5.275-5.42-8.596l1.98-18.951c1.56-7.618 5.4-13.724 11.5-18.267 1.07 9.524 9.93 23.053 26.53 40.441l-.33-20.074c6.81-18.805 9.78-31.162 8.89-37.169.92-3.712 3.89-6.154 8.7-7.375h.11c.13-.098.24-.147.37-.147 1.48 0 5.27 5.08 11.31 15.239 3.41 10.892 6.69 20.22 9.93 27.84 2.47 6.641 6.45 13.626 11.85 20.904.55 1.708 1.04 3.224 1.42 4.639l-.01.011zM897.747 1025.15c6.389.89 9.929 2.79 10.517 5.73 1.621 4.93-8.404 12.16-30.081 21.77-4.178 1.97-9.831 4.36-16.958 7.23H18.214V601.7c2.753-6.839 6.242-14.995 10.568-24.617l4.08-8.889c10.421 18.022 19.66 47.717 27.722 89.087.491-11.674 4.915-27.107 13.172-46.4 2.459.049 4.915 2.784 7.373 8.254 1.868 2.539 4.867 13.627 9.044 33.212l18.875-47.669c2.408-5.225 4.571-7.863 6.635-7.863.247 0 .492 0 .738.098 6.734 11.673 11.748 24.469 15.041 38.242 4.571 24.86 5.996 43.762 4.276 56.656l10.027-20.659c5.849 3.418 10.716 10.109 14.648 19.927l28.95-42.395c9.831 11.918 14.352 39.709 13.664 83.323.246.44.54.684.886.684.442 0 1.031-.439 1.622-1.268l10.124-20.661c.443-.587 1.032-.879 1.623-.879.737 0 1.573.439 2.555 1.27 14.057 20.758 20.203 38.633 18.482 53.677 3.097-15.093 6.832-22.613 11.207-22.613.541 0 1.13.145 1.721.39 5.308 3.126 11.157 18.756 17.596 46.986l15.286-30.769c1.425-2.345 3.047-3.518 4.866-3.518h.442c1.72.879 3.589 4.639 5.653 11.234l8.307-4.298 10.42 13.187c2.654-1.319 5.21-1.954 7.766-1.954 7.667 0 14.942 5.861 21.823 17.583a17.27 17.27 0 0 1 4.473-.586c4.276 0 8.7 1.563 13.37 4.64 5.013-7.132 8.945-10.698 11.796-10.698.394 0 .787.049 1.13.197 9.781 9.621 15.976 22.857 18.532 39.756l11.157-6.839c3.687 1.075 9.192 7.083 16.516 18.023 7.617.782 12.189 1.759 13.663 2.882 8.848 5.666 14.107 15.044 15.729 28.182.148.048.295.048.492.048 1.229 0 3.047-.928 5.407-2.734l16.564-14.652c6.242 21.93 9.388 39.952 9.388 54.068l6.095 14.604c.147.145.295.194.491.194.345 0 .689-.292 1.082-.83l7.176-15.043c.689-.733 1.426-1.124 2.065-1.124s1.179.293 1.72.977c.246 10.013 1.622 20.709 4.178 32.089.737 3.614 2.212 6.349 4.473 8.352l4.325 2.637c4.768 2.344 11.06 3.712 19.023 4.005l10.322 6.203 11.109 2.344c9.83 5.959 21.578 10.306 35.242 13.041 7.323 4.104 12.338 6.643 15.04 7.571 46.745 11.233 77.122 19.436 91.08 24.715l67.733 8.3h1.179c12.337 0 29.736-1.85 52.199-5.66 4.718-.29 8.651-.45 11.6-.45 2.801 0 4.817.16 6.045.4 3.933.54 6.39 1.22 7.324 1.95 3.981 7.52 7.52 11.92 10.469 13.09 25.807 2.05 41.239 3.51 46.155 4.44h-.001zm-91.763-536.023c-38.387-39.074-64.635-67.548-78.888-85.423l-2.163-3.42c13.075 2.834 24.822 7.425 35.34 13.774 23.054 14.652 45.369 31.795 66.897 51.381 22.954 15.434 42.27 27.545 58.098 36.337l59.523 60.955 15.681 17.191 27.276 24.666c9.341 5.029 16.322 9.181 20.902 12.356l81.78 62.274c-.83.439-2.52 3.369-5.02 8.938a210.44 210.44 0 0 0-8.74-4.006c.97 5.763 2.21 11.966 3.69 18.657l-1.28 6.056c-.2.048-.4.097-.53 0l-12.06-14.701c-1.77-1.172-3.72-2.686-5.89-4.443l-10.43-9.086-9.68-16.948c-3.19-4.346-6.84-7.961-11.06-10.793-4.31 10.257-6 17.583-4.96 21.978l13.17 27.302-8.51 19.439c-.44.293-1.02.243-1.81-.195-12.78-8.499-19.81-13.432-21.04-14.848-1.08-.733-2.01-1.075-2.75-.977-.74-.244-2.16.977-4.225 3.761-1.674 6.936-3.291 11.331-4.82 13.235-1.723 1.954-3.591 2.541-5.75 1.809 2.362-3.518 3.291-6.301 2.953-8.255-1.917-2.833-5.605-7.375-10.967-13.676-1.133-1.172-4.869-4.054-11.16-8.644-.833-.684-1.52-1.661-2.014-2.98 4.869-14.506 7.618-24.177 8.208-29.109l-.88-30.478-3.098-4.933-7.617-9.622-11.606-25.055-1.965-2.54c-42.464-43.469-70.136-70.625-82.916-81.321-11.845-8.303-20.547-13.138-26.198-14.555 40.895 42.246 69.993 75.166 87.246 98.707 10.715 18.022 18.974 37.998 24.772 59.977-6.437-8.304-20.054-20.807-40.894-37.608l-14.255-15.826-52.642-76.094c-1.573-1.269-1.966.196-1.278 4.396-.148 1.515 2.507 11.185 7.913 29.111-.147.732-1.867-.684-5.112-4.25-10.075-12.601-23.838-33.455-41.239-62.516l-.002.002zm-25.509 102.994c-1.13-.538-1.867.098-2.162 1.953l.885 28.963c-5.113-11.234-9.339-19.145-12.633-23.639-5.161-7.375-12.682-16.656-22.512-27.84-2.773-3.931-5.159-8.118-7.127-12.503-2.555-7.961-5.849-26.13-9.928-54.556-4.425-18.217-8.258-31.6-11.403-40.147-1.87-4.787-4.278-8.596-7.374-11.429-1.721-2.345-5.555-4.102-11.502-5.372.049.927.099 1.807.049 2.588-1.229 10.452-1.868 17.192-1.917 20.22-.196 2.1-.05 5.617.443 10.501 2.752 16.069 5.996 29.793 9.83 41.173.197-.049 1.327 9.476 3.391 28.572l4.621 22.564c.246 2.932.049 4.836-.59 5.716-.836 1.025-1.72.928-2.654-.294-1.966-1.709-6.586-10.793-13.812-27.204-3.096-4.786-4.964-6.349-5.751-4.688-.098.293 0 .879.197 1.758l4.964 20.367c.934 4.298 1.572 7.521 1.965 9.768 2.655 15.043 4.032 25.446 4.081 31.161a130.9 130.9 0 0 1-1.081 15.727l-4.129 17.436-2.458 17.534c-.491 1.27-.884 1.855-1.228 1.514-.738 0-1.525-1.661-2.409-4.933-1.77-6.74-2.9-12.748-3.392-18.023-.344-3.272-.54-6.788-.639-10.5.197-5.373.639-11.185 1.376-17.437.098-1.465.049-3.711-.146-6.74-4.769-29.597-7.816-57.242-8.995-82.884-.64-12.698-.591-22.515 0-29.499.098-2.052 1.375-12.357 3.784-30.77.442-4.445.591-7.571.442-9.377l-1.474 6.642c-.885-13.284-1.622-20.709-2.212-22.223-1.131-3.761-4.03-9.524-8.798-17.339-.836-1.709-1.721-3.907-2.507-6.691-.196-.929-.099-5.47.246-13.724.147-1.71.393-2.638.738-2.785h.049c4.128 10.208 6.635 15.679 7.47 16.558 2.735 3.237 5.406 6.527 8.012 9.866.344-.244.786-.44 1.228-.636 4.032-1.268 7.964-2.001 11.798-2.148h.59c9.634-1.172 28.311 11.526 56.034 38.194l15.729 20.856c3.293 4.444 6.389 8.937 9.24 13.48 13.074 28.426 20.005 42.443 20.693 42.101 1.769 3.613 18.382 19.682 49.84 48.255l30.523 35.361c13.763 17.193 21.628 27.839 23.594 31.893 2.997 5.275 5.357 10.013 7.078 14.311.835 2.832.59 4.053-.787 3.662-.589 0-1.721-.487-3.294-1.367-23.101-17.583-35.536-26.277-37.207-26.179-15.779-4.738-29.049-7.131-39.814-7.083-3.047-.682-5.85-1.709-8.454-3.076l-40.502-37.608h.001zM384.162 710.165c-1.278 1.904-3.293 4.102-5.899 6.691l-21.725 19.927c0 .438 1.523.244 4.621-.489l31.359-10.06c2.26-.148 3.292.439 3.096 1.757l-.247 1.172-9.977 13.09c-9.732 16.019-16.122 25.982-19.169 29.988-4.179 5.519-9.438 10.988-15.828 16.361-3.243-7.13-7.668-12.991-13.27-17.534-2.213-1.27-5.359-2.784-9.586-4.492-8.158-6.595-13.565-10.258-16.122-11.039l-3.047-.685-6.586 1.563c-4.572-2.782-7.815-4.64-9.781-5.665-2.311-1.074-4.031-1.563-5.162-1.514-4.079.782-8.552 3.859-13.418 9.231l-8.848-5.47-8.061-19.341c-.786-.976-1.966-2.198-3.539-3.615 11.257-3.076 24.234-5.616 39.028-7.569 5.21-1.369 10.765-3.322 16.712-5.959l55.641-26.667c2.9-1.662 14.696-9.867 35.389-24.715l15.041-9.426.983-.293h.246c.245 0 .589.146.983.342l-11.109 16.509c-10.322 19.341-17.597 31.941-21.725 37.9v.002zm-21.431-19.677v-.049h.05l-.05.049zm170.162-62.565c8.454-24.664 13.81-42.2 16.023-52.554l6.046-50.502c-10.912 7.619-24.134 29.598-39.568 65.936-.49.244-.737.097-.787-.489l.591-22.369c.245-3.468 1.032-8.303 2.359-14.555-4.079 10.208-14.253 25.25-30.523 45.226-3.393 2.541-16.32 8.938-38.684 19.195-2.456 1.27-8.06 5.226-16.81 11.771 7.373-11.087 15.483-21.392 24.331-30.868 5.849-3.565 12.582-8.645 20.25-15.238l14.844-17.094c6.438-10.941 14.303-22.32 23.445-34.238l37.994-41.661 69.895-59.587a4.3 4.3 0 0 1 1.967-.928h.195c5.408 3.516 5.604 14.066.69 31.649-6.095 21.148-12.485 41.466-19.169 60.954-10.765 26.228-21.186 50.014-31.31 71.356-4.67 12.408-9.487 35.118-14.451 68.135l-10.518 34.188c-6.488 15.093-20.84 37.901-43.058 68.476-.393-.049-.343-1.025.246-2.979 3.932-9.084 6.635-16.069 8.109-20.953 2.114-6.642 4.032-13.773 5.752-21.49l2.36-16.312c.442-20.025 1.032-33.164 1.867-39.415l7.914-35.655v.001zM139.296 646.87c-2.309-14.359-4.669-24.665-7.127-30.965 8.455-2.54 25.412-11.527 50.873-26.863 40.454-23.493 68.815-41.272 85.133-53.335 40.645-27.547 77.116-58.024 109.409-91.48 4.375-3.223 8.012-4.884 10.912-4.933h.148a1.87 1.87 0 0 1 1.671.44c2.948-.879 8.895-.342 17.989 1.758 3.834 4.494 19.071 10.403 45.712 17.729 14.01 4.103 26.689 6.107 37.897 5.959 3.932-.049 7.471-.488 10.617-1.172l26.346-11.771 66.258-35.996c8.257-5.47 19.268-14.163 32.932-26.081 5.407-3.907 9.733-6.788 13.026-8.741 3.391-2.493 11.157-3.713 23.347-3.811l4.915-.049c18.04-.488 29.688 1.612 34.997 6.35l-41.926.683c-9.143 1.759-15.287 3.761-18.383 5.91-2.9 1.563-5.309 6.203-7.176 14.017l-20.055 10.598c-6.488 8.256-10.715 12.943-12.633 14.116l-53.231 37.51-26.396 22.859c-7.864 10.892-13.369 17.73-16.416 20.464-7.026 6.49-14.875 12.04-23.349 16.509-.786-.488-.245-2.49 1.672-6.056 10.371-19.83 16.564-30.867 18.58-33.065.492-.439.737-.587.688-.341 7.471-8.206 12.19-13.139 14.254-14.653 3.629-3.303 7.4-6.449 11.305-9.426 3.83-2.879 7.731-5.663 11.698-8.353l-3.441 1.809c-1.129.487-2.26.976-3.489 1.366-10.863 2.834-16.516 4.397-17.056 4.787-12.976 7.131-22.169 11.82-27.575 14.067l-10.813 5.86c-9.733 7.718-23.299 16.46-40.65 26.278-.541-.197-.541-.684-.049-1.369l11.945-16.801 1.966-3.516c1.672-2.882 3.294-7.814 4.817-14.8-5.063.928-11.059 3.126-18.039 6.546-2.655 1.466-11.108 8.157-25.363 20.074l4.423-14.017 9.536-16.655c.541-1.514.541-2.686.049-3.565-.099-.636-1.966-2.003-5.504-4.005-.394-.294-4.671-1.71-12.879-4.299-5.897-4.493-10.666-6.935-14.205-7.375-1.671-.39-4.226-.39-7.57 0l-21.283 43.128.69 21.001c-6.98 6.692-14.354 15.531-22.12 26.472 1.818 2.443 9.487.733 23.102-5.08 6.34-2.638 20.349-9.671 42.025-21.197 3.096 1.271 1.671 4.446-4.326 9.621l-18.776 13.384c-46.842 19.536-74.073 32.039-81.74 37.509-2.556 1.173-18.58 13.969-47.973 38.39l-40.402 23.687c-2.311.685-2.508-1.122-.591-5.42l24.281-40.051c1.819-3.077 1.573-4.64-.737-4.591-16.909 15.092-29.394 25.055-37.455 29.939l-33.375 18.316-31.11 12.696z"/></svg>