<svg xmlns="http://www.w3.org/2000/svg" viewBox="0 0 1500 1500" width="150pt" height="150pt" xmlns:v="https://vecta.io/nano"><path d="M1387.9 616.534c-3.31 7.61-10.1 13.229-16.61 13.798-.32 0-.71.071-1.07.071-4.37 0-8.35-2.312-10.98-6.401-5.34-8.463.1-23.256 8.17-29.123 6.23-4.481 13.7-3.307 18.82 3.093 3.98 4.979 4.62 11.699 1.67 18.562zm-23.12 60.594c-3.69 3.556-8.71 5.476-13.58 5.476-2.38 0-4.69-.391-6.83-1.244-7.5-2.916-12.02-10.064-11.55-18.527.39-8.854 6.04-16.393 14.08-18.669 8.18-2.276 16.25 1.103 20.69 8.784 4.66 8.072 3.56 18.135-2.81 24.18zm-26.88 46.37c-4.12 3.734-9.17 5.227-14.19 5.227-5.62 0-11.16-1.92-15.25-4.907-7.68-5.583-10.07-14.295-6.19-22.616 3.02-6.65 10.24-11.948 18.28-13.37 7.22-1.352 13.94.533 18.52 5.156 3.77 3.84 5.87 9.138 5.69 14.935-.1 6.08-2.59 11.77-6.86 15.575zm-28.27 25.105c-1.64 7.752-8.14 14.188-16.11 15.931-1.53.391-3.13.569-4.69.569-6.08 0-12.34-2.525-16.68-7.148-4.66-4.765-7.22-11.841-6.76-18.811.57-8.925 4.84-15.717 11.6-18.562 7.39-3.2 16.75-.996 24.36 5.369 6.79 5.797 10.02 14.615 8.28 22.652zm-50.96 25.354c-1.49 7.965-7.75 14.971-15.57 17.353-1.99.533-4.05.853-6.19.853-6.01 0-12.09-2.453-16.28-6.827-3.35-3.449-5.55-7.965-6.44-13.121-1.74-10.313 3.02-22.296 11.16-27.773 8.15-5.511 17.96-2.631 26.82 7.788 5.4 6.401 7.86 14.473 6.5 21.727zm-46.05 49.606c-1.17 1.209-3.16 1.991-4.83 1.991-.21 0-.46-.071-.71-.071-5.02-.676-11.31-1.529-16.61-5.156-5.01-3.307-8.46-8.784-9.71-14.935-1.6-8.428 2.67-21.763 10.63-26.457 5.05-2.951 10.96-2.276 16.01 1.92 5.83 4.979 8.07 13.762 8.89 20.269 0 .107.99 17.78-3.67 22.439zm-36.59 9.885c-1.67 6.579-8.25 12.517-15.64 14.082-2.14.391-4.27.64-6.3.64-4.69 0-9.14-1.031-13.01-3.165-6.4-3.52-10.95-9.708-11.95-16.606-.96-6.792 1.67-13.3 6.9-16.464 9.42-5.761 29.19 1.244 35.45 6.969 4.34 3.947 6.01 9.281 4.55 14.544zm-106.92-78.231c-23.08 9.886-36.59 17.566-37.66 16.002-1.07-1.423 10.99-12.126 33.42-24.465 22.41-12.659 55.23-25.71 90.5-40.467 35.31-14.828 65.33-31.648 84.63-47.152 19.53-15.291 29.23-27.63 30.91-26.385 1.31.853-5.84 15.61-24.72 33.497-18.7 18.206-49.57 37.16-85.48 52.272-35.92 15.078-68.78 26.492-91.6 36.698zm54.9 171.895c-2.31 3.165-5.87 4.907-10.03 5.014h-.18c-5.4 0-10.49-2.596-14.01-7.076-3.73-4.73-5.08-10.917-3.66-16.464 1.07-4.09 3.41-7.681 6.79-9.85 3.88-2.632 8.96-3.201 13.09-1.529 3.98 1.564 7.11 5.049 8.67 9.672.75 2.133 4.2 13.121-.67 20.233zm-37.09-66.887c-2.74-3.023-4.09-6.828-3.73-10.953.35-7.112 5.54-14.935 15.36-23.398 1.67-1.529 4.27-1.849 6.36-.782 7.54 3.52 13.73 9.707 17.43 17.175 2.63 5.263 3.23 10.099 1.74 14.437-1.92 5.547-6.51 9.246-12.91 10.597a26.05 26.05 0 0 1-5.05.498c-7.29 0-14.97-2.881-19.2-7.574zm-21.87 69.803c-1.67.462-3.34.747-4.98.747-4.34 0-8.57-1.743-11.91-5.05-5.33-5.511-7.57-14.366-5.44-21.442 1.85-5.796 6.33-9.815 12.34-11.059 10.84-2.027 19.09 6.507 21.37 15.611 2.38 9.814-2.28 18.526-11.38 21.193zm-11.23 50.317c-3.35 6.01-9.18 9.352-16.26 9.352h-.92c-11.09-.498-19.24-8.961-19.77-20.66-.53-10.028 5.37-21.051 17.56-22.723 7.12-.995 13.7 1.921 17.89 8.037 5.16 7.396 5.76 18.349 1.5 25.994zM1014.2 875.16c-4.69 0-9.53-2.098-13.33-5.903-4.448-4.339-6.76-10.277-6.191-15.86.569-4.836 3.2-8.534 7.361-10.632 6.15-2.916 14.58-1.067 19.63 2.133 6.19 4.054 9.49 10.882 8.43 17.282-1.14 6.614-7.01 12.02-13.98 12.873-.6 0-1.24.107-1.92.107zm-5.51 86.907c-7.5 21.301-22.261 36.342-34.315 43.913-12.233 7.76-21.158 9.04-21.763 7.51-.782-1.89 6.507-6.15 15.966-15.045 9.566-8.57 21.123-22.616 27.559-40.787 6.403-18.207 6.183-36.306 4.263-49.072-1.916-12.802-4.832-20.696-3.089-21.656 1.422-.889 7.649 5.796 12.229 19.487 4.63 13.405 6.69 34.457-.85 55.65zm265.67-504.093c1.42-.96 7.71 5.405 14.68 17.78 7.01 12.41 13.98 31.328 16.39 53.055 2.42 21.798-.28 41.711-4.44 55.402-3.98 13.69-8.75 21.193-10.35 20.589-3.77-1.174 6.37-33.96 1.53-74.533-4.2-40.574-21.26-70.266-17.81-72.293zM939.455 950.582c-4.303 5.227-11.877 8.712-19.558 8.712-4.338 0-8.783-1.103-12.552-3.734-8.108-5.476-8.499-12.233-8.001-15.789.96-7.325 7.361-14.046 15.824-17.033 8.214-2.809 16.464-1.244 22.082 4.196 7.254 7.219 8.108 16.465 2.205 23.648zm-119.943-15.967c-12.517 16.073-32.928 26.03-53.375 26.03h-.391c-9.565-.071-19.131-2.205-27.772-6.259-21.016-9.707-36.128-30.901-38.369-54.015-2.24-22.367 7.788-45.303 25.532-59.064 2.063-2.063 4.303-3.876 6.721-5.476 1.138-.818 2.418-1.103 3.769-1.209 7.397-3.77 15.504-6.152 23.79-6.934-18.42-1.032-35.347 3.804-47.081 8.676-13.442 5.618-21.194 10.952-22.438 9.423-1.245-1.28 4.551-9.423 18.064-17.779 13.406-8.25 35.417-16.322 60.416-12.909 12.41 1.672 23.967 6.223 32.857 12.909 8.854 6.578 14.864 14.721 18.384 22.047.889 1.813 1.6 3.555 2.24 5.298 4.374 6.223 7.681 13.121 9.637 20.731 5.156 19.842.569 42.316-11.984 58.531zm-35.417 42.956c-14.935 4.339-38.582 4.659-60.522-7.289-21.834-12.091-34.173-32.253-38.512-47.188-4.516-15.291-2.631-25.176-1.066-25.176 2.098-.142 3.662 8.996 9.85 21.691 5.974 12.553 17.851 28.839 36.164 39.009 18.42 10.028 38.44 11.379 52.308 9.708 14.082-1.6 22.616-5.121 23.54-3.307.925 1.315-6.471 8.179-21.762 12.552zm-221.963-50.068c-7.752-5.547-8.748-14.081-5.441-15.575 3.307-1.707 8.25 1.352 13.193 4.765 4.871 3.521 9.245 7.183 8.819 10.882-.356 3.662-8.712 5.44-16.571-.072zm857.978-471.876c-5.04-8.072-13.62-14.97-22.9-21.371 5.09 13.584 7.68 26.314 9.21 36.2 2.24 14.472 2.24 23.576.5 24.002-1.85.391-5.15-8.178-9.71-21.833-4.48-13.62-10.09-32.537-20.3-50.957-.32-.569-.64-1.067-.96-1.565-1.35-.889-2.67-1.742-3.91-2.702-38.12-27.061-79.02-55.153-124.46-75.138-37.87-16.784-66.68-25.425-96.12-28.91-6.58-.782-13.12-1.351-19.7-1.849l-14.76-1.351c-1.56.213-3.2.213-4.94-.178-.78-.213-1.67-.498-2.52-.711-4.63-.569-9.21-1.245-13.8-2.134-1.17-.071-2.28-.249-3.48-.284-45.66-3.947-82.75-6.899-82.75-10.704 0-2.489 17.78-4.694 43.91-4.516-1.03-.604-2.17-1.173-3.23-1.849-.96-.676-2.03-1.245-3.06-1.849-3.63-1.351-7.15-2.631-10.81-3.805-29.05-9.423-51.74-11.628-71.475-6.97-21.692 5.157-40.361 18.634-60.167 33.035-2.027 1.529-4.09 2.916-6.117 4.339 24.963-4.659 43.205-4.481 43.419-1.85.569 3.77-30.226 10.597-67.208 21.265-3.769 1.031-7.574 2.134-11.201 3.236-47.543 26.563-101.843 41.391-156.391 42.778-.392 0-.783.071-1.174.071-17.638 1.672-42.671.889-68.914-6.294-13.122-3.627-25.426-8.001-36.022-13.903-10.668-5.797-19.309-13.264-24.857-20.767-5.618-7.432-8.285-14.686-9.245-19.771-.96-5.157-.32-7.966.498-8.144 1.956-.391 4.445 10.277 15.859 21.798 4.161 4.161 9.566 8.25 15.824 11.984-2.667-5.583-4.089-11.557-4.018-17.566.178-14.402 9.032-28.768 23.292-37.48 4.409-2.809 9.174-4.765 13.904-6.401l-23.897 1.245c-8.996.675-15.717 2.453-19.913 4.836-4.267 2.169-6.294 4.409-7.147 3.876-.712-.356-.214-3.77 3.947-8.037 4.125-4.338 12.054-8.107 21.691-9.992 19.096-3.485 44.947-6.33 73.893-7.539 34.066-1.315 64.15.356 83.174 2.596 43.205 1.458 86.339 7.859 127.872 19.665 20.412-14.9 41.641-30.013 67.457-36.093 7.112-1.636 14.579-2.596 22.225-2.881-98.892-47.258-210.051-66.887-319.788-55.402-36.911 3.876-66.07 10.526-91.566 20.874-30.368 12.268-61.056 26.35-74.071 50.815-17.175 32.252-22.936 69.732-16.286 105.576 4.338 23.398 14.153 46.192 28.412 65.821 7.361 10.17 15.362 19.024 23.825 26.492 8.392 7.396 21.62 12.339 32.11 16.286 28.519 10.526 61.59 16.358 103.906 18.278 81.822 3.556 165.992-8.463 243.512-34.849 3.876-2.987 7.93-6.436 11.699-10.49 5.263-5.12 9.53-10.49 13.122-15.504.96-3.982 2.311-7.965 4.053-11.77 4.588-10.277 11.806-19.7 20.625-27.381 17.922-15.575 40.568-21.833 59.988-22.296 10.56-.32 20.41.783 29.3 2.703.71-.178 1.28-.285 1.99-.391 7.19-1.529 15.44-3.378 24.75-3.663 18.71-.604 34.92 5.796 44.63 12.517 9.92 6.685 13.94 13.086 12.77 14.366-1.28 1.529-7.29-2.133-17.14-6.116-9.78-3.912-23.69-7.788-39.23-7.396 9.92 4.587 17.5 9.601 22.48 13.69 6.18 5.049 8.89 8.748 8.11 9.708-1.61 2.418-16.11-7.112-41.57-13.904-12.73-3.272-28.31-5.69-45.13-4.338-16.78 1.351-34.563 6.934-48.644 19.202-7.041 6.116-12.695 13.37-16.393 21.051-1.814 3.876-3.13 7.681-4.196 11.842-1.032 4.196-1.885 8.854-3.094 13.69-1.245 4.836-2.987 9.886-5.654 14.579-2.703 4.481-5.867 8.037-8.712 11.131-5.228 5.476-9.424 9.636-12.731 14.081-1.458 4.979-2.026 11.45-1.706 19.807l.177 2.24c.569 14.9 1.245 31.755-8.818 45.801-6.721 9.53-17.14 16.144-32.04 20.411-4.196 1.209-8.463 2.134-12.623 3.094-4.196.96-8.25 1.813-12.055 2.951l30.723 2.596c3.841.32 7.326 2.525 9.317 5.903.64 1.245 1.031 2.596 1.28 3.876 14.331-10.17 25.07-16.215 26.741-14.188 2.311 2.809-14.402 20.198-37.48 39.222-6.721 7.361-12.623 15.504-17.424 24.252-1.209 2.24-1.814 3.876-2.062 4.978a10.3 10.3 0 0 0 1.671-.142c7.432-1.174 14.402-6.685 20.233-11.913l4.161-3.733c4.8-4.517 9.708-8.997 15.468-12.873l3.698-4.658c15.362-17.958 31.542-28.661 33.96-25.994 1.849 2.062-3.876 10.454-12.802 21.549 7.859-.569 15.327 1.173 21.621 5.049-.178-8.854 1.102-14.793 3.129-15.042 3.769-.32 8.392 15.824 12.766 35.702.071.463.142.96.249 1.387l.675 1.778c.676 2.063 1.28 4.089 1.849 6.045 1.245 4.161 2.383 8.037 4.019 11.166 1.778 3.414 4.267 5.903 6.365 6.223 3.378.569 5.832.853 7.467.924l4.979-34.35.746-8.606c1.956-21.655 4.8-39.506 8.53-39.506 2.24 0 4.2 6.827 4.98 17.104.25-.142.39-.32.68-.498 8.92-5.725 21.05-5.512 32.5.747 5.23 2.845 9.49 6.329 13.69 9.636l4.98 3.983c5.16 3.769 9.25 5.69 12.62 5.725 2.6 0 4.31-1.351 4.55-1.849.08-.569 0-2.525-3.87-8.072-5.05-7.467-10.78-14.473-16.72-22.011-7.89-9.815-16.07-19.985-22.93-31.257-14.33-23.398-18.35-46.654-11.88-69.093a11.72 11.72 0 0 1 4.91-6.507c-2.31-1.671-4.34-3.414-6.19-5.156-10.2-10.064-12.09-19.06-10.59-19.7 1.74-.96 6.4 5.725 16.6 12.339 9.99 6.792 26.03 13.086 44.56 13.619 18.81.569 36.02-3.236 48.72-5.689 12.73-2.596 20.87-3.734 21.47-1.992.57 1.743-6.47 6.01-18.81 11.024-1.28.462-2.63.996-3.94 1.493 1.49 1.352 2.77 2.987 3.44 5.014 4.45 13.513 19.1 23.221 33.11 22.154 1.24-.036 2.42 0 3.56.356 1.74-4.623 3.62-8.712 5.68-11.948 5.13-8.428 9.96-12.482 11.42-11.486 2.6 1.707-3.66 14.899-7.36 33.71 9 22.367 14.69 56.149 2.42 83.459-11.06 24.892-34.96 46.05-52.92 59.42-25.95 19.131-55.26 32.644-83.49 45.836l-18.13 8.428c-31.653 15.077-67.426 33.355-91.144 60.487-.427.391-.818.747-1.209 1.031 4.16 1.956 8.143 4.658 11.806 7.894 11.272 10.384 16.464 22.794 19.237 31.435 2.667 8.783 3.13 14.366 1.494 15.184-1.743.711-5.299-3.84-10.028-11.237-4.765-7.29-10.775-17.389-19.7-25.496-4.623-4.303-9.601-7.29-14.437-9.139-.925 1.458-1.885 2.987-3.165 4.481-.249.355-.533.462-.782.782 1.209.889 2.382 1.6 3.485 2.525 15.006 11.948 26.136 25.496 32.465 36.164 6.437 10.703 8.57 18.171 7.112 19.06-3.413 1.991-19.806-22.758-47.792-44.77-6.4-5.12-12.837-9.565-18.846-13.513-75.6-23.576-159.485-25.14-226.622-3.947-1.209.392-2.382.463-3.485.569-2.916 1.778-5.725 3.77-8.107 5.832-4.267 3.698-8.072 7.574-11.593 10.775-7.076 6.4-12.908 8.996-14.046 7.574-1.102-1.529 1.92-6.152 6.899-13.868 2.525-3.77 5.689-8.464 10.205-13.229 1.494-1.813 3.414-3.449 5.299-5.12 0-.071 0-.071-.071-.107-5.37-16.677-22.545-29.621-40.823-30.866-8.534-.675-17.566 1.174-25.887 5.228-1.174.533-2.276 1.244-3.485 1.884 3.165 12.304 6.401 25.923 6.97 40.965.462 10.668-.96 21.336-4.09 31.115 6.792-3.485 13.406-5.548 19.131-6.508 13.193-2.062 21.194.534 21.052 2.241 0 1.955-7.681 2.809-18.598 6.827-5.476 2.134-11.735 5.014-17.886 9.281-6.33 4.089-11.806 9.815-18.527 16.855-3.307 3.414-6.899 6.899-10.881 9.815-3.912 2.916-7.859 5.191-11.486 7.183l-13.975 7.432c-5.298 8.036-7.183 14.508-6.401 21.3 1.956 16.429 11.877 32.075 25.923 40.716 7.646 4.836 16.678 7.823 26.243 11.023l6.01 2.027c6.898 1.28 14.153 2.134 22.011 2.454 17.993.782 38.191-.783 60.025-.498 22.011.356 42.529 3.769 60.771 6.685 18.314 2.987 34.6 5.654 48.326 7.112 27.416 3.094 44.592.64 44.912 2.703.462 1.458-16.749 7.396-45.481 6.685-14.26-.214-31.115-1.956-49.57-4.338-18.313-2.276-38.298-5.157-59.171-5.441-11.948-.178-23.861.071-35.311.178 11.343 3.591 22.794 7.005 34.279 9.779 31.257 7.607 64.15 10.737 96.082 13.727l23.399 2.42c10.703 1.06 21.371 2.59 31.826 4.09 4.907-.15 10.134-.22 15.752-.22l32.822-.1c11.415-.29 21.94-1.46 31.044-4.16 9.032-2.64 16.606-6.69 22.331-10.85 11.521-8.57 15.255-17.496 17.14-16.784.853.249 1.031 2.951-.32 7.361-1.387 4.338-4.73 10.523-10.668 16.463-5.832 6.01-14.26 11.7-24.679 15.47-8.249 3.02-17.531 4.73-27.096 5.51 3.343 1.39 6.685 2.99 9.921 4.48 4.481 2.13 8.926 4.27 13.513 6.08 10.063 4.12 20.34 5.09 31.257 6.12 5.938.57 12.125 1.28 18.526 2.34 3.414-.78 6.792-1.77 10.384-2.98 26.634-8.57 42.636-26.21 45.729-23.83 1.352 1.03-.889 7.11-7.752 14.86-4.053 4.59-9.814 9.61-17.104 13.87 11.095-.74 21.371-2.59 29.517-4.65l9.21-2.49c8.85-2.53 18.1-5.05 28.05-5.76 4.88-.29 8.47-.47 11.67-.25-1.14-4.2-1.85-8.18-2.03-11.77-.68-11.24 1.92-17.85 3.66-17.75 1.89.18 2.78 6.69 5.69 16.18 1.6 5.55 4.27 12.16 8.11 18.96 1 .74 2.13 1.35 3.38 2.24l3.23 2.13c14.19 9.32 27.56 18.2 43.14 23.18 17.74 5.69 36.41 15.4 57.28 29.87 38.05 26.28 53.45 75.25 65.75 114.54 5.87 18.78-.42 39.08-17.31 55.86l-2.85 2.74-2.99 2.81c2.17.39 4.31 1.35 6.09 2.99 4.76 4.3 5.19 11.48 1.17 16.32-.53.61-1.1 1.25-1.74 1.78-5.48 5.55-10.17 11.81-14.23 18.53 20.88-3.03 39.97-11.31 53.16-23.4 2.14-2.07 5.09-3.1 8.01-3.1a12.23 12.23 0 0 1 2.52.25c3.77.78 6.97 3.45 8.39 7.01 5.69 13.48 8.96 27.7 9.64 42.31.11.68.11 1.28.18 1.85l15.25-70.72c.78-3.6 3.2-6.55 6.51-8.15a12.03 12.03 0 0 1 10.35 0c8 3.95 16.67 6.4 25.57 7.15-22.3-12.52-39.58-30.65-47.55-50.25-8.28-20.26-16.04-41.14-23.61-61.34l-11.52-30.68c-7.5-19.78-13.94-36.13-22.33-51.92-6.79-12.84-15.93-30.09-27.1-37.06-1.85-1.17-4.55-1.95-7.72-2.84l-5.51-1.74c-6.97-2.38-13.3-5.62-19.41-8.79-1.96-1.03-3.95-2.13-6.01-3.05-15.22-7.65-32.36-16.18-46.62-29.587l-7.04-2.418c-21.48-6.685-40.36-6.116-41-9.921-.32-1.742 4.37-4.267 12.66-5.547 4.05-.64 8.99-.854 14.4-.463-13.51-7.36-24.82-11.023-24.54-14.188.29-1.742 4.98-2.987 12.63-2.205 5.33.569 12.16 2.347 19.3 5.619.4-2.703 1.07-5.441 2.42-8.534 4.77-10.953 13.8-18.598 22.9-25.426l16.43-12.161c-2.99-3.271-5.37-7.147-6.65-11.415-1.99-6.4-1.1-12.623 2.31-17.068 3.17-4.196 8.61-6.614 14.9-6.721 6.33 0 13.3 2.347 18.17 6.721 1.46 1.244 2.71 2.773 3.81 4.267l35.63-26.421 41.14-30.546c9.32-6.934 17.28-15.326 25.64-24.18 5.37-5.761 10.88-11.735 17.1-17.353 17-15.824 33.22-32.857 48.08-50.886 27.74-33.568 51.14-70.337 69.63-109.346 3.16-6.543 6.04-13.193 8.82-19.7l3.59-14.686 3.2-12.41v-.889-2.881c.07-7.183.39-14.295.75-21.335.78-18.74 1.45-36.449-1.85-54.762-3.35-18.954-10.07-35.809-21.06-53.091"/></svg>