<svg xmlns="http://www.w3.org/2000/svg" viewBox="0 0 1500 1500" width="150pt" height="150pt" xmlns:v="https://vecta.io/nano"><path d="M739.435 391.833c2.011-20.463 25.007-35.585 44.602-29.828 14.637 4.093 25.945 15.435 34.476 27.574 2.289 2.914 4.128 6.486 7.388 8.324 5.202.174 10.163-1.63 15.192-2.532 20.359-3.676 41.55-1.283 60.938 5.758 15.504 3.572 31.32 5.585 47.205 6.486 12.832 1.942 24.623 7.665 36.457 12.763 5.821 2.116 12.168 2.046 18.167 3.608 9.58 1.942 18.55 6.104 26.88 11.098 10.75 6.591 23.9 4.613 35.76 7.145 7.04 1.041 14.04 3.781 21.22 2.462 13.49-1.63 27.09-2.879 40.69-3.087 10.22.139 21.85 1.631 29.04 9.781 7.1 8.394 11.86 19.735 9.98 30.834-1.46 4.51-6.39 5.688-9.64 8.255.45 7.907 3.01 15.745 1.94 23.793-1.84 15.087-3.85 31.215-13.38 43.597-3.93 5.931-9.9 9.816-15 14.532-1.46 10.302-2.74 20.88-7.38 30.383-2.53 5.584-5.23 11.515-10.23 15.331-2.01 1.387-4.23-.383-4.82-2.358-2.01-10.579 2.01-21.262.52-31.84-2.64-1.492-5 1.872-6.45 3.641-14.36 19.978-26.44 41.724-35.06 64.824-4.14 12.034-7.85 25.007-4.98 37.735 2.75 9.851 10.35 17.307 13.88 26.846 9.36-3.989 15.58-12.417 22.75-19.25 1.5-1.734 4.54-2.774 5.66 0 1.14 3.711-.1 7.805-1.14 11.481-3.96 9.572-8.92 19.145-16.66 26.221 1.91 4.092 5.2 7.769 5.63 12.451-.15 4.752-3.3 8.498-5.66 12.348-4.3 7.144-8.5 14.878-15.74 19.422-7.11 4.335-15.26 6.451-22.79 9.885.87-2.878 2.18-5.618 3.4-8.358-8.22.936-16.74.485-24.46-2.672-8.78-3.329-15.5-10.162-24.09-13.769-7.778 3.26-14.163 9.087-20.261 14.775-6.347 5.965-9.992 15.469-6.9 23.967 4.753 13.63 9.19 27.434 16.129 40.163-2.701-.59-5.202-1.734-7.454-3.26-.63 3.954 2.014 7.352 1.651 11.168-1.517.867-3.875 2.358-2.462 4.44 2.777 4.995 4.342 10.543 5.354 16.162-4.791-3.017-7.74-8.324-12.665-11.341 1.594 7.213 4.266 14.186 6.242 21.33 8.599 29.204 14.735 59.135 17.626 89.484.83 10.336 4.53 20.082 7.84 29.825 7.76 22.12 20.94 41.7 32.28 62.04 15.12 27.38 26.19 56.86 34.99 86.86 6.28 22.03 10.16 44.68 13.33 67.32 2.7 16.62 4.67 33.86 12.48 49 8.53 12.73 15.37 26.53 21.2 40.7 6.85 16.56 13.8 33.29 17.09 51.02 2.63 13.8-.9 28.28-8.15 40.12-4.75 7.39-11.59 14.64-20.75 15.64-5.19.67-9.85-3.28-11.27-8.11 4.58 1.29 10.41 2.85 14.12-1.24 3.79-4.45 6.9-9.96 7.39-15.84-4.68-.33-9.5-.79-14.07.36-5.53 7.14-12.43 13.22-19.78 18.38-6.28 4.54-14.32 5.2-21.71 3.75 6.06-4.82 13.22-9.67 15.01-17.8 1.78-5.85.74-14.59-5.93-16.68-6.27 8.57-10.95 19.76-21.36 24.46-7.43 4.44-18.53 2.21-22.23-5.98 9.51.19 17.37-7.52 19-16.63 2.88-15.07-9.36-30.61-24.45-31.77-2.98 4.23-4.44 9.42-7.21 13.84-3.95 6.51-9.15 12.3-15.15 16.98-4.406 3.52-10.762 4.48-15.677 1.43 7.797-8.1 15.577-17.73 16.197-29.48 1.1-10.68-4.1-20.86-11.482-28.2-9.888-9.84-8.542-25.36-4.791-37.61-4.743 7.89-10.479 16.38-19.249 19.85 3.779-8.25 6.136-18.63 1.146-26.89-1.042 1.06-2.048 2.19-3.4 2.83-3.086-8.55-5.687-17.52-11.341-24.82-2.186 8.58-2.497 17.94-6.521 25.82-2.67-10.83-5.861-21.7-11.237-31.54-2.428-4.64-8.117-4.92-12.208-7.31-3.296-1.66-5.099-5.03-7.735-7.42-.902 4.43-1.596 9.53-5.168 12.65-1.665-10.29-3.85-21.53-12.035-28.81-2.636 7.46-5.724 15.32-11.689 20.74.521-10.11.625-21.1-5.202-29.83-3.607-5.84-9.122-10.02-14.255-14.36-.555 2.95-.97 5.93-1.422 8.96-5.377-10.24-10.509-20.66-17.134-30.16a50.08 50.08 0 0 0-3.815 3.23c-2.081-3.81-3.156-8.05-4.786-12-3.087-8.42-7.145-16.8-7.561-25.9-.382-4.37.242-8.83-.624-13.12-1.7 4.38-2.879 8.99-4.648 13.32-.694-6.17-.174-12.52-1.527-18.62-1.525-9.51-5.966-18.14-9.85-26.81-.832-.92-.589-3.06-2.011-3.2-3.919 3.57-7.838 7.08-12.071 10.24.694-6.97 1.909-14.46-1.422-20.98-2.184-4.02-5.166-7.96-9.329-9.99-1.665 10.99-4.335 21.77-6.486 32.7-.034 1.21-.555 2.01-1.596 2.47-1.04-9.23-3.363-18.39-7.804-26.58-6.901-13.04-14.392-26.08-17.202-40.76-4.301.4-8.879.98-12.244 3.99-5.237 4.72-8.705 11.15-13.804 16l1.249-11.8c-4.196 1.72-9.954 1.64-12.208 6.32-5.029 9.19-10.545 18.14-16.406 26.81-2.532 3.43-4.96 7.11-8.566 9.5 1.283-6.07 2.844-12.11 2.878-18.35-3.884 3.29-5.827 8.61-8.983 12.7-3.815-2.88-8.948-1.08-10.926 3.05-6.485 11.97-4.578 26.16-3.121 39.13 5.342 34.67 16.926 68.9 37.355 97.69-5.897-3.42-11.342-7.44-16.475-11.95-.244 5.75 2.67 10.91 5.028 15.99 9.123 18.16 13.979 38.14 16.753 58.19 1.456 11.66 3.607 23.47 9.26 33.93 5.931 11.86 15.643 21.15 25.909 29.23-5.168.38-10.093-1.55-15.226-1.43 1.561 7.06 7.77 11.76 13.527 15.37 15.33 9.96 35.099 9.27 50.083 19.91 11.896 8.95 18.382 23.65 20.082 38.26.519 7.53-1.353 16.03-7.319 21.09-2.219-8.5-4.058-18.43-12.035-23.45-5.896-2.75-12.417-.59-18.59-.76.415 8.62-.936 17.34-3.226 25.66-1.283 3.64-2.254 7.9-5.653 10.24-.798-6.39-2.879-12.45-4.717-18.56-2.116 2.09-4.475 3.99-7.283 5.1-11.273 4.67-23.655 5.73-35.725 6.24-2.185 7.66-3.989 16.03-9.399 22.16-3.4-7.53-3.156-16.12-4.926-24.1-6.693-.18-13.665-.07-19.907 2.59-6.382 4.41-8.88 13.25-16.199 16.54.694-4.66 1.804-9.63-.38-14.11-5.134-3.01-11.168-1.52-16.579-.14-18.522 4.83-38.638 8.55-57.263 2.43-10.613-3.02-19.007-11.86-22.059-22.4-4.405-14.85-2.74-30.6-5.548-45.68-1.838-10.57-5.689-20.68-10.129-30.39-2.045-3.53-4.196-8.07-8.532-9.02-4.508 1.36-4.405 7.37-8.15 9.84.52-11.7-3.295-23.64-11.169-32.31-1.179 4.83-1.353 10.02-3.711 14.5.728-13.53-6.971-25.08-12.66-36.66-3.571 4.13-1.283 11.56-5.272 15.58-.831-11.03-5.064-22.42-13.318-29.94l-.381 8.49c-6.243-8.86-9.677-19.45-15.434-28.64-9.677 17.56-22.232 33.26-34.615 48.9-15.503 19.08-30.867 38.26-47.689 56.17-3.018 2.98-4.856 7.94-1.943 11.65 6.66 9.26 19.076 11.71 29.793 10.85 10.683-1.25 21.921-3.01 32.256.86 4.093 1.36 7.596 3.95 11.377 5.97 4.855 1.6 10.265.94 14.913 3.34 10.891 4.6 17.411 16.34 18.244 27.82-.034 2.13-.208 4.78-2.081 6.17-2.636-5.25-6.208-10.93-12.174-12.57 1.422 6.03 3.954 11.93 3.572 18.24-4.474-2.53-8.116-6.2-12.625-8.7.243 3.38.521 6.7.59 10.1-2.601.06-4.37-2.08-6.416-3.3-7.388-5.41-16.059-10.26-25.459-9.85-5.722 2.01-9.78 7.32-15.711 9.01-12.069 3.75-24.902 3.1-37.354 2.62-18.21-.52-36.418-.45-54.627.09-13.561.28-27.123.52-40.613-1-10.128-1.35-21.089-7.1-23.655-17.82-2.359-7.46 1.388-16.35-3.954-22.79-8.845-15.11-8.775-33.48-7.318-50.41 1.733-18.51 8.324-36.01 13.596-53.68 4.37-14.27 7.283-28.86 9.226-43.62-4.37 2.21-8.88 4.2-13.285 6.33 2.463-4.93 3.851-10.32 4.301-15.8-.555-3.14-4.058-3.93-6.486-5.11 1.631-4.52 4.752-8.42 5.48-13.29 2.255-10.02.139-20.53-5.133-29.27-.312.04-1.005.11-1.318.11-6.452 13.38-15.815 25.05-22.614 38.23-4.057 5.87-6.867 12.75-11.723 18.06.452-5.48 1.145-10.93 1.18-16.38-8.15 12.42-19.805 21.75-31.285 30.97-3.676 2.86-7.422 6.61-7.492 11.64-.936 11.88.694 23.81 2.394 35.6-5.064-3.15-9.434-7.34-13.943-11.27-6.173 15.62-13.25 30.88-21.885 45.26-7.319 12.31-14.81 24.88-18.695 38.81-1.907 5.98 3.885 10.31 8.463 12.78 12.833 7.38 29.412 3.88 41.447 13.11 10.96 7.49 14.983 22.16 12.901 34.81-1.004 4.2-2.184 9.13-6.242 11.38-1.977-7.67-5.55-15.01-10.821-20.94-.416-.11-1.25-.39-1.665-.49 1.18 5.02 1.422 10.23 1.006 15.36.174 2.06-1.006 3.43-2.741 4.31-2.288-5.59-4.647-11.63-9.399-15.59-1.595 5.91-4.821 11.28-8.775 15.87-2.392 2.26-4.751 5.16-8.219 5.61-.556-4.96-2.636-10.33-7.388-12.62-4.3-2.19-8.29-4.94-11.618-8.41-3.574 5.31-6.799 10.83-9.609 16.55-1.838 2.92-3.398 6.57-6.798 7.92-.034-6.83-6.034-12-12.659-11.83-15.92.19-31.7 2.58-47.413 5.1-10.196 1.3-21.122 3.04-30.833-1.39-11.099-4.69-17.723-16.31-19.7-27.86-1.735-10.41 1.941-20.67 1.907-31.07 1.526-24.15-4.404-47.79-5.272-71.84.347-2.14-1.734-3.95-3.884-2.93.45-7.8 6.347-13.53 10.266-19.74-3.19.73-6.07 2.25-9.053 3.57 3.954-10.2 9.331-19.76 12.764-30.13 5.584-15.96 8.427-32.71 11.272-49.34-2.462 1.89-3.746 4.71-5.133 7.46-2.602-14.4 2.117-28.96 8.601-41.65 1.874-3.95 4.371-7.66 5.516-11.96-5.342.41-10.753 1.25-16.059.06 7.664-10.29 14.151-21.56 18.035-33.88 2.186-6.8 4.786-13.62 4.786-20.85-2.115-1.31-4.993-4.29-2.705-6.75 5.203-5.97 10.335-12.01 14.776-18.63-3.885 2.67-7.18 6.88-12.209 7.04-5.722.59-13.076-.09-16.301-5.55 8.012.11 15.295-4.34 21.226-9.4 3.919-3.22 5.688-8.92 3.919-13.77l4.405-3.67-3.086.76c.45-7.35-5.273-12.91-10.406-17.31 6.105-2.4 12.139-6.63 14.29-13.11 1.872-9.23-.208-18.9 2.011-28.07a65.44 65.44 0 0 1-12.208 7.74c2.185-6.17 6.694-11.27 8.567-17.61 3.711-8.51 1.838-18.007 4.37-26.747.798-3.226 2.497-6.209 2.983-9.504a131.32 131.32 0 0 0-3.433-.346c2.218-5.722 6.276-10.683 7.352-16.822 1.526-6.971.59-14.256 2.567-21.122-3.399 0-6.694.729-9.954 1.491 10.578-12.105 20.498-25.458 25.318-41.03 2.012-5.862 3.226-12.14 6.867-17.272 1.874-2.915 4.335-5.377 6.417-8.117-4.543.902-9.191.936-13.839.59 4.059-4.336 8.845-8.255 11.273-13.838 3.398-7.596 7.595-15.365 7.318-23.933-6.14 3.018-12.348 5.896-18.972 7.734 6.867-7.976 15.052-14.844 21.816-22.96 11.653-14.047 22.232-28.996 34.926-42.141 4.474-4.959 10.058-9.329 12.174-15.919 1.492-4.613 5.169-7.804 8.047-11.515-2.047.277-4.093.451-6.139.555 2.496-8.428 12.035-11.099 16.822-17.758-3.712-.243-7.493 0-10.995 1.318 10.404-11.134 25.561-15.643 38.637-22.683l.832-1.284c-3.26.036-6.52.139-9.78-.035 7.144-8.045 17.342-12.069 26.706-16.785-5.133-3.817-12.035-4.128-18.174-3.123 1.977-1.596 4.37-2.288 6.799-2.809 12.831-3.191 25.353-7.457 37.596-12.486 35.412-14.463 72.557-25.111 110.675-29.065 10.891-.347 20.914-5.064 31.111-8.324 28.233-9.4 55.98-21.4 79.981-39.262 7.977-6 15.295-12.902 21.539-20.74 5.756-7.354 9.954-15.955 16.682-22.579 6.279-6.417 14.845-9.574 22.544-13.839 25.978-14.117 50.882-30.661 72.558-50.916 5.342-4.959 9.99-10.578 15.226-15.608 7.735-6.902 17.273-11.688 27.332-14.185 4.647-1.214 9.468-2.463 13.56-5.134 12.244-8.254 25.701-14.844 39.921-18.971 8.255-2.428 16.475-5.48 25.077-6.625 4.023 1.734 6.555 5.688 9.781 8.567-4.822 4.995-11.307 8.046-17.203 11.55-25.666 15.226-46.511 38.048-60.663 64.268-4.299 7.839-7.559 16.233-9.572 24.938-2.948-8.602-.173-17.896.417-26.741-8.047-1.041-12.521 6.833-16.719 12 2.81-9.468 8.464-17.827 13.18-26.394l-3.468.832c3.33-10.682 8.74-21.33 17.758-28.301.936-.728 1.665-1.665 2.185-2.775-18.763 8.429-34.372 22.163-50.776 34.302l-56.362 44.36c-20.74 17.689-42.451 36.037-54.14 61.356-4.475 8.463-3.85 18.486-7.838 27.088-2.845 6.589-8.395 11.376-13.77 15.85-7.387 6.382-15.747 11.55-24.314 16.232 5.376-6.625 11.655-13.041 14.255-21.434-7.318 2.393-13.144 7.804-19.804 11.48-7.665 4.266-14.775 9.502-22.787 13.076 3.26-6.243 7.491-12.036 10.336-18.453-5.585.937-11.064 2.671-16.787 3.019 1.526-3.019 4.508-4.857 6.832-7.181 7.666-6.728 13.875-15.121 18.348-24.312-13.457 6.034-26.221 13.491-39.47 19.908-15.538 6.105-32.013 9.156-48.107 13.353-16.89 4.37-34.093 7.874-50.429 14.186-5.653 2.392-11.584 4.787-16.301 8.879-1.908 1.456-1.04 4.023-1.283 6.104-5.099-1.248-10.475.728-14.706 3.608-1.041 2.046 2.047 2.67 3.26 3.572 2.844 1.594 6.902.484 9.052 3.156-16.544 6.242-28.822 19.492-39.678 32.949-4.335 5.897-9.053 11.793-11.411 18.833 5.064-1.04 8.775-5.306 14.012-5.931-6.138 8.671-14.844 15.47-19.735 25.076 6.764-5.93 13.666-13.422 23.481-13.214-6.936 9.4-15.018 18.348-19.492 29.273 4.89-2.912 8.741-7.631 14.359-9.261-2.74 11.62-5.445 23.378-5.584 35.413 0 15.052 3.087 29.931 2.844 44.985.174 19.04-.763 38.637-8.012 56.464 4.058-1.319 7.145-4.301 10.544-6.693-3.606 11.653-8.532 22.855-11.827 34.613 3.606-.762 5.445-4.543 7.873-6.972 10.232-11.722 14.429-28.405 27.643-37.492-3.191 12.833-8.081 25.735-7.665 39.158 2.566-3.746 4.752-7.734 7.596-11.273 1.595 8.255-.59 16.822.936 25.112 1.735 6.381 6.902 12.346 13.839 12.763-.589-12.243-2.81-24.417-2.532-36.694.242-7.25.174-14.88 3.294-21.574 1.318-3.157 4.718-5.063 5.238-8.602 2.324-11.41 6.034-23.619 15.331-31.285l2.774-1.352c-3.33 12.173-8.879 23.758-11.098 36.244.034 4.682.902 9.746-1.909 13.908-3.294 5.03-2.15 11.238-1.942 16.891.554 6.798.07 13.631 1.18 20.395 2.636.694 3.156-2.602 4.301-4.163 2.774-12.278 3.85-24.903 6.416-37.215.52-1.838 1.04-4.37 3.364-4.44 2.982 12.001 2.324 24.521 1.04 36.696-.902 2.948-.276 7.076-3.016 9.017-1.318-3.434-2.256-7.005-3.573-10.439-5.966 10.057-5.03 22.404-5.238 33.643.347 3.434-.554 7.872 2.463 10.3 1.734-3.329 2.601-7.56 5.966-9.676.311 10.162.694 21.052 6.382 29.862 2.705 4.337 6.069 8.707 10.995 10.647-4.128-13.978-6.14-28.405-9.019-42.66-1.491-12.174-.069-24.452 1.63-36.521 1.561-10.198 1.596-20.706 4.475-30.695.902-3.33 2.393-6.52 2.878-9.954 0-3.365-1.145-6.556-2.254-9.677-3.468-1.978-3.815-6.521-3.815-10.094.105-11.965 6.833-22.37 9.746-33.712-2.359 1.561-4.37 3.642-6.694 5.272 4.266-9.363 11.619-17.098 19.249-23.897 3.295-2.705 6.66-5.584 10.753-7.075-10.649 18.694-19.597 39.158-20.846 61.008-1.247 15.192 3.539 29.898 5.446 44.778.589-5.169-1.006-10.233-1.179-15.366-1.144-19.353 2.254-39.643 13.353-55.875 14.22-21.747 37.215-35.308 59.76-46.927 5.687-2.637 11.168-6.036 17.376-7.249-6 9.607-14.15 17.827-19.041 28.129-4.058 8.184-6.381 17.273-6.209 26.428 2.22-1.56 4.787-2.739 7.561-2.046-1.352 3.815-3.295 7.422-4.057 11.411 3.189-1.249 6.312-2.844 9.815-2.706-.277 4.093-4.336 6.521-6.035 10.024-1.908 3.954-5.549 7.319-6.139 11.757 3.747-3.19 7.943-5.826 12.833-6.762-3.851 7.282-10.648 13.734-11.447 22.405 3.539-5.549 8.984-11.273 16.025-11.237-3.538 6.555-8.22 13.283-7.7 21.087 2.254-.867 4.578-1.456 7.041-1.214-6.451 8.636-12.417 18.383-12.66 29.551 3.191-3.4 5.863-8.671 11.099-8.775-4.856 8.948-9.434 18.174-11.168 28.302 2.255-2.358 5.203-3.712 8.464-4.024-3.192 8.948-7.631 17.481-9.713 26.845 2.774-3.086 5.169-7.006 9.677-7.63-2.636 12.694 0 25.875-2.878 38.559 3.468-2.489 4.994-6.719 7.734-9.876 2.289 4.753 1.976 10.166 2.878 15.256.938 8.46 2.012 17.37-1.005 25.57 2.081-1.54 3.815-3.48 5.411-5.49 3.781 5.52.521 12.77.832 18.97 2.983-2.65 6.174-5.08 9.469-7.4 1.456 8.1-3.712 15.28-3.92 23.26l3.711-2.42c1.908 3.95.799 8.31 1.285 12.51 1.906-.82 3.814-1.64 5.895-1.95-.624 6.25-2.879 12.44-1.56 18.77l3.26.6c-1.561 6.53-4.821 13.65-1.7 20.3-.971 12.68-4.335 25.2-3.364 38 .729 19.77 7.387 38.75 16.023 56.32 7.284 14.74 15.747 29.63 17.446 46.3 1.803-23.19-11.48-43.62-18.555-64.89-9.191-24.51-9.815-51.62-4.857-77.11 2.776-16.33 1.701-33.08 4.787-49.35 3.573-19.39 7.423-38.84 13.874-57.54.278-1.412 1.352-2.977.554-4.361-4.37 10.331-11.167 19.351-15.676 29.581.936-12 5.375-23.34 8.081-34.995 4.059-16.614 9.295-33.296 9.261-50.499-3.122 4.786-5.896 10.336-10.545 13.804 1.319-7.11 3.955-13.943 4.406-21.157.103-3.226.901-6.902-1.18-9.676-1.838 3.086-3.78 6.138-5.167 9.468-2.949 7.179-7.214 13.803-9.539 21.26l7.11-.035c-3.121 11.446-9.885 22.094-9.919 34.338 3.815-3.087 5.862-7.874 10.058-10.614-6.417 15.886-8.705 32.986-8.809 50.046-10.406-17.2-14.255-38.044-12.625-57.953 1.145-12.625 10.925-22.163 14.22-33.956-5.514 5.307-11.307 10.371-16.232 16.267-1.769 2.046-3.364 4.37-5.722 5.827 1.317-15.122 4.578-30.244 11.376-43.91 5.895-13.423 14.463-25.423 21.366-38.29-9.471 8.358-17.794 17.966-27.402 26.151 10.753-19.423 23.863-37.354 35.828-56.014-6.173 4.856-11.723 10.509-17.965 15.296-4.023 3.121-7.214 7.422-11.932 9.607 7.422-15.503 18.209-29.308 24.071-45.574l-1.492.277c-5.687 6.555-11.583 13.562-19.283 17.619 6.104-10.231 13.56-19.562 20.324-29.377 4.508-6.832 7.769-14.67 8.601-22.89.208-2.15.07-4.614-1.422-6.312-3.746 11.93-10.647 22.474-18.451 32.081-5.827 6.452-11.238 13.388-17.966 18.903 2.844-14.879 12.763-27.123 17.064-41.482-5.306 8.671-10.821 18.278-19.943 23.307 8.324-13.803 17.723-27.503 21.851-43.319-6.764 7.457-11.932 16.96-20.533 22.648 4.682-9.26 8.809-18.937 11.133-29.065-2.983 1.908-5.652 4.266-8.636 6.174 2.185-3.642 6.486-5.306 8.914-8.81 1.768-3.26 2.775-6.902 3.607-10.544-4.509.452-7.977 4.266-12.625 4.371-.069-1.943.312-3.815 1.249-5.515l14.533-31.874c6.139-12.799 12.833-25.285 18.313-38.395 1.317-3.052 2.427-6.312 4.785-8.775.729 11.341-1.213 22.753-3.78 33.748 5.167-6.279 6.729-15.157 12.729-20.811.347 10.232-3.364 20.117-2.776 30.383l1.042-.59c2.949-22.405 4.231-45.61 13.457-66.592 5.757-13.111 7.387-27.989 15.538-40.026 2.15-2.912 3.572-7.075 7.353-8.184-1.006 9.052-6 20.013.381 27.989 2.012-2.047 4.197-3.849 6.659-5.272-.485 11.203.868 22.649 5.134 33.088 4.197 9.226 11.446 16.476 18.001 24.002 9.503 10.058 20.255 19.561 33.088 25.04-4.475-7.559-9.365-14.913-12.243-23.306-4.613-9.954-5.272-21.192-4.475-31.979.243-3.294 1.664-6.381 3.573-9.017 7.11-10.37 17.376-18.348 23.376-29.551 3.053-4.37 4.752-9.885 9.088-13.214l-8.463 23.377c-.417-.174-1.248-.556-1.665-.764-5.688 8.81-9.087 18.973-11.792 29.101-.208 2.843.034 5.722.104 8.6 5.064-6.833 8.566-14.809 11.931-22.613-.625 7.075-2.221 14.013-3.677 20.949-3.676 21.643-2.843 44.221 3.226 65.378 2.221 5.792 4.266 12.279 9.052 16.545-1.352-7.249-3.919-14.984-.451-22.059.243 0 .73 0 1.006-.035 3.642 10.995 10.232 20.602 14.428 31.354l1.423 1.838c1.388-2.29 1.317-5.826 3.954-7.075 2.012 4.543 6.243 7.388 9.4 11.03 5.41 5.895 11.34 12.589 11.584 21.052 2.705-2.393 4.682-5.48 6.97-8.255 3.261 5.446 5.064 12.764 12.036 14.672-.278-2.047.277-4.405-1.249-6.07-8.775-9.955-18.383-20.117-22.093-33.192-1.977-8.949-.972-18.175.728-27.053-4.89 5.549-9.85 11.549-11.584 18.903-2.116-1.422-2.116-4.162-2.671-6.383-2.219-9.85-1.457-20.255 1.873-29.792 1.561-6.105 5.584-11.759 5.272-18.175-7.873 2.775-12.937 9.607-18.487 15.399 1.11-5.549.902-11.376 2.81-16.786 3.954-12.21 10.197-23.551 16.441-34.718 1.248-2.359 2.6-4.718 2.635-7.458-8.427 2.74-17.515 1.839-26.256 1.665 1.978-2.358 5.203-2.948 7.77-4.508 7.353-3.816 10.925-11.724 15.643-18.14 4.438-6.799 9.744-13.319 12.276-21.157-6.208 5.341-12.381 11.168-20.046 14.394 6.798-10.094 11.549-21.435 18.416-31.528 4.961-7.354 6.625-16.197 10.199-24.139 2.981 1.733 3.432 5.513 3.814 8.635.763 14.603-4.716 28.371-8.116 42.314.139.555.416 1.7.52 2.255l2.047-3.677c-2.567 14.221-6.798 28.198-10.475 42.21 5.515-4.786 10.96-10.336 17.931-12.832-4.299 7.699-9.537 15.121-11.618 23.862 3.919-1.665 7.699-3.572 11.549-5.41-2.081 17.132-10.717 32.394-19.665 46.753 4.37-1.77 7.074-6.07 10.266-9.4 5.619-6.208 9.504-13.735 14.497-20.358-4.127 15.156-9.294 30.625-7.561 46.545.902 5.167 1.769 10.786 5.342 14.879-2.289-20.568 3.607-41.135 13.146-59.205 1.456-2.219 3.051-6.036 6.311-5.237 7.422 6.278 5.341 16.89 8.707 25.111 1.212 3.919 3.815 7.387 7.56 9.087-.034-9.92 2.358-19.528 3.26-29.342-2.15 1.005-4.473 1.005-6.763.831-2.74-12.346.66-24.625 3.537-36.521-9.26 5.341-15.918 15.538-18.278 26.013-2.531-.208-2.601-2.88-2.878-4.821.034-6.486 1.56-12.799 2.497-19.18-5.098.832-8.324 5.133-12.486 7.769 2.705-9.469 8.949-17.307 15.643-24.28 3.537-5.167 7.422-10.091 10.959-15.26-5.792 1.838-9.745 6.556-14.29 10.233 2.845-12.522 10.545-22.995 16.821-33.922 1.631-3.086 3.47-6.242 3.886-9.78-6.937 4.682-13.77 9.85-21.609 12.972 6.105-12.07 16.129-22.128 20.013-35.309-6.381.382-12.07 3.816-18.07 5.688 9.677-17.549 24.349-31.839 40.303-43.597L678.739 531.4c1.387-2.532 4.334-3.468 6.589-5.063 6.07-3.954 12.314-7.665 18.522-11.412-6.487 1.701-12.764 4.162-19.25 5.897 12.382-10.162 26.845-17.377 39.054-27.781 2.706-2.463 6.625-3.851 8.427-7.111-4.958.382-10.022-.208-14.878 1.075 0-.313-.034-1.005-.034-1.352 8.947-4.231 18.589-7.839 25.942-14.671-8.29 1.075-16.682 2.08-24.902 3.572 9.122-6.104 19.18-10.856 27.747-17.897-5.238-2.948-11.203-3.953-16.718-6.277 7.457-3.712 15.364-6.521 22.51-10.891-8.949-8.602-17.932-18.104-20.984-30.556-.624-2.082-.624-4.44-2.011-6.173.554-1.527 1.178-3.123 1.318-4.857 2.739 3.919 5.029 8.498 9.121 11.272-1.318-4.37-3.711-8.29-4.752-12.763-1.144-4.682-.797-9.573-.381-14.325 3.468 2.048 2.532 7.18 5.376 9.746m132.804 14.984c-9.226 1.561-18.417 3.607-27.713 4.821.764 3.156-2.428 4.266-4.579 5.514-9.26 4.752-19.734 6.799-28.648 12.348-3.399 2.081-6.243 5.133-10.058 6.486l.139 1.11c2.116.104 4.232.277 6.381.451-5.479 5.584-14.15 6.589-20.948 10.128 5.099.901 10.335.346 15.503.867-7.838 6.451-17.203 10.647-25.561 16.336-10.544 6.486-19.007 16.162-30.661 20.844 8.532.451 16.51-3.226 24.418-5.966 9.954-4.474 18.868-10.994 27.954-16.995 1.596-.867 3.156-2.461 5.133-1.907-7.11 7.492-15.329 13.838-23.203 20.498-8.151 6.279-14.74 14.289-21.226 22.232l-.104 1.527c4.058-1.318 8.185-2.186 12.417-2.81-4.301 5.341-9.331 10.092-13.215 15.815-3.26 4.718-7.63 9.366-7.977 15.4 3.781-1.56 7.734-2.706 11.861-2.635-10.578 12.763-21.538 25.456-29.827 39.954-.416.486-1.284 1.423-1.734 1.873-.486-11.827 6.693-22.093 8.879-33.4-2.845 1.63-5.307 4.232-8.637 4.648 3.26-5.653 7.353-10.822 9.746-16.96 1.457-4.092 4.717-7.11 6.591-10.926-6.486 3.608-14.602 7.422-16.233 15.469-2.601 10.787-8.462 20.463-11.133 31.25 2.567-2.011 4.925-4.613 8.323-5.168-1.352 14.949-4.646 29.62-9.086 43.944-2.671 8.463-6.694 16.51-7.943 25.388 4.648-3.26 7.422-9.607 13.596-10.265-1.04 8.706-5.133 16.959-6.347 25.735 3.469-3.919 5.376-9.747 10.856-11.342-2.566 13.007-6.347 25.908-6.277 39.262 1.873 7.839 3.295 15.816 3.988 23.862 3.503-7.457 5.341-17.931 14.464-20.705 5.028 5.756 2.323 14.392 2.184 21.365 1.942-1.319 2.775-3.504 3.504-5.655 4.127 3.469-.521 9.886.38 14.395 2.532-1.561 4.475-3.884 6.765-5.758 5.861 9.156 8.219 20.082 11.098 30.452l1.11.694c.902-2.115 2.462-4.266 4.751-4.96 2.393 1.873 1.387 5.514 2.185 8.185 2.324 12.313.555 24.973-4.231 36.453.313-.138.971-.347 1.249-.486 3.78-6.59 8.15-12.867 11.029-19.977 5.619-12.522 7.041-26.325 10.544-39.505-4.232 6.07-8.081 12.59-10.301 19.7-2.358-3.815-.971-8.774-.382-12.936 1.804-10.718 8.22-19.666 12.348-29.481-6.902 5.653-12.314 12.936-18.486 19.353-2.672 2.254-1.042 8.012-4.752 8.706-1.561-8.498-1.318-17.447 2.184-25.424 1.943-6 6.105-10.925 8.464-16.648-6.07 5.689-11.273 12.209-16.232 18.867-1.353 2.844-3.607-.138-3.156-2.011-.209-5.93 2.948-11.411 2.948-17.272-4.578 2.913-7.943 7.215-11.203 11.445-.347-13.387 6.451-25.769 14.012-36.348-10.302 5.897-20.567 12.313-28.371 21.4 2.046-13.631 8.809-26.118 16.439-37.389 4.926-7.354 14.116-9.573 22.406-10.023-1.249 4.681-6.104 7.284-7.005 12 11.411-2.046 22.995-4.995 34.614-2.671-3.122 3.018-6.902 5.272-10.336 7.874 2.359.485 7.491-.867 7.005 3.086-2.427 3.157-5.41 5.896-8.011 8.914-2.809 3.226-7.11 4.37-9.954 7.491 8.949-1.63 17.376-5.514 26.463-6.52 4.961-.311 2.324 5.827 2.185 8.637 8.012-1.735 15.192-5.688 22.302-9.713l.208.348c-5.029 6.728-8.949 15.017-8.324 23.62 6.624-.279 12.035-5.758 18.937-4.683.173 2.601-1.075 4.925-1.907 7.318 7.006-2.67 14.497-5.688 22.163-3.988-2.152 3.017-5.585 4.682-7.908 7.526 6.034-1.769 11.861-4.37 18.174-4.717 2.046-.139 3.502 1.699 3.191 3.711-.868 6.313-4.266 11.827-7.804 16.96 5.48-2.358 10.752-5.271 15.747-8.566.485 5.064-1.181 9.884-3.816 14.15 3.052-1.803 5.619-4.474 9.157-5.375 2.844-6.348 6.762-12.105 10.231-18.071-3.156.867-7.768 2.567-10.023-.763-.556-3.676 2.255-6.694 3.052-10.162-4.648-.555-9.052 1.908-13.562 2.844-1.63-1.11-3.294-1.63-4.543.382.313-.416.971-1.215 1.283-1.63l5.584-1.007-1.63-2.15c-4.44.486-8.74 1.561-13.11 2.394.277-3.434 4.578-4.856 4.717-8.36-7.561 2.29-15.435 3.851-23.342 3.886 2.012-2.914 5.826-3.85 8.012-6.66-7.735-.659-15.504.625-22.892 2.774.278-5.688 4.752-9.642 8.636-13.215l.14-2.114c-4.405-3.018-10.233-3.746-15.435-2.913-3.364 1.63-5.93 5.375-9.989 5.272 1.214-2.359 3.677-3.608 4.89-5.932-3.398-.797-6.831-.381-10.196.243 3.745-4.578 9.745-6.764 15.399-7.734-.658-1.041-1.56-1.7-2.706-2.082-7.769-2.808-14.497-8.081-22.647-9.85-3.538-1.179-7.838-1.04-10.51-3.988 8.082-7.388 19.18-12.867 30.349-10.995-2.566 1.872-6.383 2.012-8.151 4.786 6.832-2.08 13.943-.311 20.913-.624-2.114 1.7-5.063 2.636-6.276 5.237 4.959.659 9.676-.901 14.324-2.289 3.607-1.284 7.422-.208 11.099-.763 9.156-3.538 17.481-8.775 26.116-13.353 2.185 4.092-4.613 1.977-4.821 4.994 4.856-.59 9.364-2.775 14.29-3.052-2.324 3.988-6.486 6.416-9.018 10.232 3.33-1.214 6.833-2.254 9.607-4.544 4.094-3.398 9.366-5.272 12.694-9.607 2.601-3.503 5.724-6.521 8.672-9.746-1.804.417-3.434 1.248-4.578 2.704-2.186 1.042-5.966 1.042-4.44 4.441l-1.144-1.735c-3.053 1.909-6.071 3.885-9.365 5.411 1.977-1.63 2.497-3.954 2.844-6.382 4.197-4.23 9.676-6.936 13.7-11.375l-3.538 1.872-.971-1.63c-1.596.728-3.92.173-4.648 2.116.694.034 2.081.034 2.775.068-1.907 4.51-7.457 5.516-10.439 9.157l-.417-3.087-2.254 2.394c.936-8.22 12.07-10.267 14.774-17.55l1.285.312c3.606-4.475 7.422-9.815 13.491-10.821-.45 1.873-2.393 2.705-3.607 3.988-4.058 3.677-7.63 7.873-11.828 11.377 5.896-2.428 10.094-7.804 14.637-12.105 3.919 1.561 5.168-4.51 9.018-4.578-3.018 4.786-7.839 8.116-10.994 12.833-.868 2.497-3.365 1.11-4.614.069l-.103 5.307c2.566-2.116 5.445-3.746 8.289-5.446-.243 3.052-2.983 4.682-5.064 6.52 4.752-2.392 9.364-5.063 13.978-7.768-1.319 3.746-2.671 7.492-4.51 10.994-.554-.138-1.664-.45-2.184-.59-4.093 2.74-7.18 6.902-11.619 9.019-3.643 3.92-8.568 6.763-11.376 11.376l3.12.242c1.25-3.364 3.053-.104 4.058 1.041l2.741-1.977c.311 1.943 2.323 2.324 3.711 3.191 4.196-4.266 8.497-8.428 12.313-13.042 3.676-3.953 7.04-8.635 12.346-10.473-1.005 4.925-4.022 9.017-6.242 13.422-3.954 6.728-7.11 14.151-12.833 19.63-7.11 6.973-14.568 13.632-22.267 19.943-1.491 1.25-3.156 2.429-3.92 4.267 5.135-1.977 10.579-3.087 15.643-5.376 5.722-2.324 11.342-5.619 17.723-5.653-3.676 4.508-8.15 8.255-11.896 12.694 8.151-5.064 15.886-12.208 26.013-12.278-2.741 3.78-6.209 7.006-8.88 10.891 3.711-.625 7.145-2.497 11.029-2.463-4.958 5.931-12.554 9.607-16.266 16.787 5.342-1.388 10.822-2.185 16.337-1.665.415 8.22-9.019 12.277-15.435 14.809 2.428 2.429 6.451 1.319 9.538 2.395-5.48 5.201-13.388 7.005-18.799 12.312 8.637-1.665 18.175-2.532 26.464.867.104.417.277 1.249.348 1.665-6.868 4.544-14.083 9.087-19.181 15.747 7.144-5.584 17.446-9.469 25.666-3.712-3.782 5.792-11.377 7.804-14.74 13.977 5.688-3.017 11.86-5.827 18.451-5.479 2.671.554 6.556.346 7.561 3.572-5.063 2.288-10.232 5.202-13.284 10.024 3.331-1.77 8.047-2.948 10.301 1.109 2.566 7.18-.867 14.671-2.116 21.782 4.614-3.885 9.746-8.533 16.3-7.839-1.145 2.463-2.396 4.821-3.674 7.179 4.58-1.734 9.333-2.983 14.219-3.086 1.881.208 5.03-.694 5.927 1.561-1.871.311-3.493 1.005-4.676 2.461 1.698.799 3.569 1.492 4.915 2.914 1.364 2.637.601 5.758.916 8.603 2.634-1.215 3.283-5.03 6.203-5.62 6.066 2.498 8.006 9.677 12.416 13.978 6.97 4.439 14.15 8.74 21.78 11.931-1.32-2.012-3.54-3.087-5.21-4.751-2.25-1.84-1.38-5.516-3.99-7.076-5.47-4.336-9.8-9.92-13.8-15.573-5.89-8.602-15.491-14.186-19.9-23.862-3.817-8.324-5.898-17.307-8.188-26.187-3.846-16.439-10.196-32.394-11.584-49.389-1.768-21.226-.312-43.319 8.015-63.124 3.808-8.22 8.913-16.96 17.817-20.255 23.56-10.44 48.42-17.446 73.15-24.487 11.24-2.74 22.2-6.763 33.68-8.324 6.55-.971 13.22-.555 19.85-.728-5.12-3.018-11.01-4.37-16.86-4.786-6.19-.104-12.04 2.149-18.01 3.468 4.09-4.266 7.92-8.844 12.28-12.834-1.32-.762-2.64-1.56-3.85-2.427l2.29-1.526c-4.3 1.699-7.59 5.271-12 6.833.21-4.614 4.13-7.458 6.87-10.648l-1.18-.242c-1.56 1.906-3.99 3.016-6.43 3.12 2.47-3.988 6.84-6.485 9.06-10.613-3.74 1.456-7.28 3.502-11.26 4.336 2.83-2.706 6.2-4.683 9.18-7.215.05-.797.05-2.393.08-3.19l-3.97 2.358c.15-2.428 1.99-3.919 3.78-5.203-3.33-9.919-7.32-20.949-3.95-31.353 1.56-5.827 8.09-7.735 10.68-12.695-16.64 2.254-33.01-3.19-49.66-1.942-21.5.798-44.04 3.19-62.739 14.845-5.898 3.086-6.031 10.648-8.57 16.093-4.399-1.769-6.518-6.347-9.501-9.711-2.116 3.606-4.231 7.422-7.527 10.058-4.37 1.907-8.219-1.7-12.382-2.359-5.306.174-10.128 2.983-15.434 2.914-4.89.347-10.3-1.284-13.04-5.619-2.186-2.913-.694-7.284-2.359-10.128-2.602.277-4.266 3.642-7.111 4.232 1.769-8.325 7.874-15.261 15.262-19.111 8.808-4.266 18.867-5.064 28.509-4.544-1.457-1.56-3.156-2.74-5.098-3.607 1.456-.867 1.977-2.462.208-3.399-3.053-3.121-7.007-5.168-10.96-6.937.659-.208 2.012-.728 2.67-.97l-.035-.555c-2.808-.382-7.422.797-8.74-2.255 15.642.035 31.597 1.839 46.025 8.324 5.898 2.775 10.584 7.769 16.816 9.919 8.116 1.492 16.376-.103 24.416-1.352 3.36-.659 6.87-1.11 9.82-2.983-3.46-1.838-6.83-3.815-10.33-5.549-10.55-5.168-22.647-6.278-34.204-5.41-7.415.207-14.321-2.879-20.98-5.689-28.615-13.388-60.87-20.359-92.397-15.781m235.951 54.939c-3.58 2.428-1.17 7.907 2.08 9.33 3.29-.936 5.16-4.336 7.8-6.416 2.96-3.226 7.71-5.654 8.16-10.475-6.64.313-12.74 3.815-18.04 7.561m-173.071-.694c-.068 4.613 4.787 6.556 8.29 3.919 1.11-2.323 1.838-4.821-.034-7.005-2.776.277-8.464-1.249-8.256 3.086m-184.863 29.273c-7.075 3.088-14.185 7.458-17.584 14.74-3.087 4.822-1.631 10.787-3.469 16.025 13.25-2.984 19.631-15.851 27.574-25.459 2.566-3.78 7.561-5.896 8.809-10.405-5.41.625-10.473 2.741-15.33 5.099m302.644 66.454c-1.17 6.936-.41 14.012 0 20.949.73 4.682.76 9.884 3.85 13.804 5-4.093 6.28-10.856 7.98-16.752 1.25-6.937 2.08-13.978 1.77-21.019-4.65-.346-9.71.348-13.6 3.018m60 12.279c2.64 13.838-1.39 27.851-.14 41.723 3.51-1.526 4.82-5.514 6.49-8.637 3.82-8.982 7.22-18.659 6.45-28.544-4.3-1.422-8.49-3.156-12.8-4.542m-251.691 47.134c-1.527 1.006-3.745 1.457-4.37 3.399 4.855-2.393 9.885-4.717 14.047-8.256-3.574.799-6.451 3.262-9.677 4.857m-350.026 60.28c-5.134 10.648-10.683 21.123-16.094 31.631-2.081 3.296-2.081 8.324-5.861 10.267l.9 7.422c2.672-3.365 4.025-7.457 5.724-11.376 2.532-6.105 5.653-11.931 8.637-17.828 1.282-2.289 2.254-4.924 4.612-6.382-2.012 17.759-13.63 33.61-11.48 51.922.694 10.683 7.63 20.081 7.041 30.973-.693 13.283-6.105 25.978-5.445 39.33.382 4.926 3.537 8.879 6.138 12.834 3.572 5.098 6.694 10.543 8.984 16.371 3.225 7.907 4.127 16.89 9.572 23.792 2.913-1.63 1.735-5.584 2.637-8.254 2.358 2.15 3.224 5.375 4.82 8.08 3.26 6.347 7.04 12.765 7.804 20.013l1.491-.034c1.422-11.203-.659-22.406-.485-33.609 8.774 8.116 16.925 17.931 19.7 29.863.624 1.907.624 4.196 2.011 5.826 2.706-5.758 3.955-12.312 2.568-18.59-2.498-14.636-16.649-23.481-19.841-37.874-3.71-12-.208-24.348-.068-36.523 1.214-13.283 8.185-25.492 8.358-38.914-4.993 8.185-12.902 13.873-19.491 20.637 1.457-8.186 4.785-15.921 9.78-22.544 3.434-5.377 8.914-9.365 11.341-15.365-2.705 1.352-5.41 3.191-8.566 2.532-1.942-3.886 4.127-6.868 2.185-10.926-1.838-4.579-.624-9.538-1.041-14.289-5.549 10.092-15.295 18.659-26.602 21.191 3.677-4.716 8.463-8.602 10.994-14.151 1.839-4.092 4.996-7.804 5.585-12.382-5.272 8.566-12.417 16.025-20.186 22.336 1.561-5.306 4.821-9.816 7.492-14.567 3.121-6.035 5.619-12.417 6.694-19.146-1.735 1.423-2.359 3.642-3.261 5.619-3.469 8.324-9.434 15.192-14.949 22.198 1.25-6.452 3.33-12.764 3.642-19.354.556-8.011-.797-16.162 1.144-24.069.348-5.48 2.324-11.897-1.247-16.718-2.394 2.983-3.607 6.624-5.237 10.058m483.385-6.416c2.262 2.706 4.581 6.346 8.452 6.624-.06.798-.24 2.428-.3 3.26-1.15.902-2.33 1.769-3.504 2.636l-.668-2.324c-1.623 1.18-5.85 1.318-4.505 4.302 1.25 3.26 5.726 1.248 5.869-1.665 1.318-.347 2.598-.799 3.888-1.249 2.76 3.745 5.58 10.092 11.24 8.879l-2.4 2.046c1.31 1.839 2.49 3.849 4.09 5.516 2.01 2.08 5.62 1.664 7.1 4.404-2.84 1.388-5.85 2.289-8.7 3.572-.65 1.769 1.11 3.225 2.61 3.711 4.5 2.255 9.53-.832 12.65-4.023 3.3-3.711-.17-8.498-2.12-11.897-4.95-8.289-8.62-19.388-18.93-22.196-1.13-2.255-2.8-4.683-5.68-4.199-2.99.14-7.708-.831-9.092 2.603m-6.108 2.324c1.145 2.948 2.806 5.688 4.581 8.324l3.884-2.394c-2.462-2.254-4.714-6.971-8.465-5.93m12.66 13.422c-1.179 1.318-2.839 2.288-3.364 4.058.868 1.63 2.08 3.121 3.514 4.404 1.93 1.666 3.94-.693 5.71-1.421-.51-3.399-2.56-6.071-5.86-7.041m8.6 5.654l1.53 2.982c-2.12 1.422-4.23 2.809-6.41 4.127.75 4.543 4.36 2.151 6.69.555l-3.06 3.919c2.71 2.22 5.24.729 7.43-1.213-1.6-2.047-3.19-4.093-4.31-6.382-.45-1.457-.13-3.364-1.87-3.988m-116.187 4.716c-1.594 7.18-2.253 14.776-6.242 21.191 6.07-3.294 10.37-8.947 16.128-12.693 4.475-2.256 1.457-7.631 2.046-11.48-4.128-.417-8.706.277-11.932 2.982m142.027 10.544c-4.22 4.579-8.7 8.983-13.35 13.111 2.84 3.572 6.42 6.832 10.85 8.254 3.12.867 5.86-1.387 7.18-4.092 3.65-6.972 6.14-14.672 6.86-22.511-.06-2.253.71-5.167-1.24-6.831-3.99 3.502-6.7 8.184-10.3 12.069m45.09 13.249c-4.37 2.393-8.35 6.417-13.71 5.792-.99 2.013-2.14 4.093-1.72 6.417l4.4.242a7.5 7.5 0 0 1 2.88-2.913c1.53.694 2.71 1.943 4.02 3.053 7.6.901 13.04-5.724 16.86-11.411 3.57-6.174 7.87-12.522 8.32-19.84-7.04 6.139-12.83 13.908-21.05 18.66m-407.114 15.157c1.213 4.821 5.341 8.22 9.642 10.3-4.058-14.011-1.977-28.647-.105-42.799-6.831 8.948-12.208 20.985-9.537 32.499m328.594-25.354c.69 3.087 2.35 6.07 5.03 7.839 3.43 2.601 6.87 6.763 11.71 4.82-3.63-6.278-10.6-9.398-16.74-12.659m42.38 16.614c2.29 2.498 5.89 4.3 9.37 3.191-.25-2.879.07-5.862-1.15-8.497-4.02-.973-7.11 1.559-8.22 5.306m-45.323-1.249a63.74 63.74 0 0 1 .754 2.566c6.039 5.931 13.319 11.515 22.019 12.313 6.48.66 13.29 1.388 19.7.208-14.05-5.376-28.46-9.642-42.473-15.087m57.733 5.723c1.66.242 3.33 1.492 5.07.867 1.87-1.457 1.5-3.953 1.63-6.035-3.6-1.908-9.36.763-6.7 5.168m-262.892 32.533c7.56-10.163 13.56-21.85 14.566-34.683-10.232 8.358-12.244 22.44-14.566 34.683m4.299 33.677c2.185-3.502 3.123-7.594 4.821-11.306 5.828-14.463 13.389-28.198 22.753-40.614-14.463 13.595-24.487 32.185-27.574 51.92m-105.784-49.493c.763 3.677 2.947 6.798 4.473 10.162a157.4 157.4 0 0 1 11.897 33.748c.798 3.919 2.532 8.532 6.902 9.503-1.11-13.214-2.982-26.845-9.607-38.534a62.7 62.7 0 0 0-13.665-14.879m-123.647 6.001c-.243 7.248-1.63 14.497-4.579 21.122-1.005 2.844-3.017 5.376-3.017 8.498 2.081-1.423 3.953-3.157 6.451-3.85.104 2.393-1.005 4.578-2.15 6.624-3.364 5.688-5.48 12-7.838 18.175-.938 3.19-2.36 6.554-1.526 9.918 3.016-6.45 6.902-13.283 13.11-17.029-2.255 7.422-3.989 15.018-6.07 22.51-1.422 5.653-1.942 11.688-.556 17.446 3.192-2.774 4.198-7.215 6.73-10.544.866 13.665-2.602 27.782 1.838 41.065 2.497 7.562 4.96 15.989 1.56 23.689 4.44-3.643 8.082-9.607 6.105-15.503-2.428-9.157-3.087-19.146.278-28.094 1.075-1.561 1.11-4.683 3.571-4.683 1.493 11.793 4.717 23.725 11.655 33.505 8.463 11.897 19.457 21.607 30.174 31.353 8.394 7.388 9.85 19.424 10.44 30.002.52 11.724-4.475 22.719-10.612 32.36 9.883-9.746 16.855-23.689 15.398-37.909-1.145-10.578-3.746-21.192-9.364-30.279-6.867-14.637-11.931-30.591-11.481-46.927-3.71 3.711-2.878 10.51-6.555 13.839-7.422-13.18-10.578-29.03-6.555-43.84-6.382 2.601-12.208 8.15-13.041 15.295l-.868-.971c-3.78-11.098-.346-22.787 2.603-33.608-4.717 6.693-8.983 14.047-15.123 19.457 3.226-11.238 8.532-21.851 10.648-33.435.555-3.71 1.457-7.664.174-11.34-2.984 8.774-7.77 17.166-14.36 23.688-.172-6.07.451-12.556-2.254-18.174-.381-10.787 1.11-22.753-4.786-32.36m-404.411 20.22c-4.925 6.797-8.81 14.256-12.173 21.92-3.365 7.63-9.019 13.943-12.695 21.434 4.647-1.665 7.873-5.757 11.028-9.363 4.163-5.724 8.949-11.238 11.273-18.071 2.74-7.977 6.174-15.677 8.81-23.655-3.052 1.596-4.197 5.135-6.243 7.735m512.38-6.105c-1.733 7.319-2.427 14.88-2.184 22.441.277 3.018 1.11 6.208 3.225 8.532 3.954-.416 2.844-6.313 4.058-9.087 6.244 6.902 8.984 16.787 16.96 22.128.174-3.572.556-7.11 1.284-10.613 7.734 8.983 15.086 18.763 19.492 29.932.694 1.422 1.109 3.121 2.532 4.023-2.602-9.295-5.931-18.486-11.203-26.603-2.566-3.849-4.613-8.358-8.637-10.924-11.48-6.937-18.346-19.007-25.527-29.829m47.448 16.615c-1.63 6.832-2.324 14.532-7.006 20.047 5.098 7.005 8.532 15.156 9.295 23.862 1.145 4.647.381 10.231 3.677 14.012-1.769-11.203-.659-22.683-1.666-33.955-.832-8.012-.208-16.752-4.3-23.966m-579.632 38.88c-5.203 2.045-12.418-.244-15.99 5.167 4.682 1.422 9.886-.832 14.741-.693-1.803 2.289-3.399 4.752-4.682 7.387-3.157 6.313-7.353 12.417-8.221 19.597-.45 5.653-4.092 10.266-6.762 15.018-8.776 14.185-13.389 31.596-10.441 48.21 4.197-3.781 6.868-8.844 10.545-13.076 5.861-7.56 13.352-13.769 19.041-21.469l-6.625.97-.554 1.701c.658.173 1.976.52 2.6.728-.866-.139-2.636-.347-3.538-.451 2.464-6.485 5.793-12.66 10.232-17.966 6.417-6.902 14.741-11.654 21.748-17.897-3.123-1.664-5.411.52-7.146 2.844.659-4.266 3.295-7.768 4.717-11.758 2.185-6.902 7.908-11.792 10.44-18.52-6.624 3.78-14.464 4.993-20.602 9.642-5.272 3.849-10.475 7.838-15.331 12.173 3.504-10.682 11.897-18.52 17.621-27.92-4.199 1.561-7.804 4.301-11.793 6.313m42.938 16.301c-7.214 2.705-14.879 4.925-20.671 10.335 1.352 2.117 1.491 4.822.034 6.902-5.792 10.857-15.191 18.904-24.035 27.157 2.497.59 3.537 2.186 3.156 4.787 2.983-1.803 5.479-4.405 8.844-5.515-3.677 9.468-9.92 17.723-14.186 26.949 2.774-.728 5.551-1.942 8.498-1.734-6.972 7.596-14.532 14.845-19.492 24.036 1.838-.555 2.844-2.324 4.266-3.469 3.918-3.78 9.295-5.34 13.735-8.392 4.127-2.532 5.688-7.458 8.601-11.135 3.849-5.132 6.833-10.924 11.134-15.711 1.352-1.561 2.809-3.087 3.363-5.133-4.3 1.422-8.254 3.676-12.589 5.03 1.04-3.539 4.613-5.135 7.041-7.631 5.445-5.411 11.965-9.504 17.757-14.498 5.029-4.508 10.475-8.636 16.51-11.758l.276-1.353c-13.664 1.735-27.399 8.083-36.139 19.007-1.145 2.186-4.717 1.318-3.642-1.422 4.092-5.445 9.191-10.058 13.735-15.122 7.04-8.428 18.59-12.52 23.446-22.891-3.295-.069-6.59.278-9.642 1.561m-48.766 99.958c-3.814 7.908-9.294 15.503-10.022 24.522 6.38-5.238 14.497-7.388 21.434-11.689 12.417-7.838 24.625-17.272 31.423-30.66l-40.233 26.914c7.215-8.948 14.325-18.243 18.209-29.203l-1.63-.764c-8.636 4.37-14.948 12.279-19.181 20.88m130.133 2.983c-2.046 7.699-3.815 15.676-2.6 23.723 1.595 12.486 6.034 24.452 11.341 35.801 2.254 3.77 4.093 8.42 8.116 10.64 1.11-7.15-.52-14.287.034-21.468 3.677 4.265 6.348 9.328 10.232 13.418 7.285 7.94 15.92 14.99 25.839 19.32-1.838-3.36-4.404-6.2-6.694-9.23-8.046-10.99-15.017-22.78-21.122-34.954-1.353-2.22-2.185-5.063-4.405-6.485-3.365 1.422-4.022 5.722-6.416 8.22-4.579-10.615-10.023-21.054-12.209-32.534-.659-2.151-.624-4.717-2.116-6.451m-116.64 13.7l-15.677 19.111c-3.608 4.23-7.631 8.601-9.122 14.047 2.706-.937 5.376-1.943 8.116-2.741 2.151-3.642 5.237-6.555 8.185-9.572 6.729-6.52 11.792-14.499 17.966-21.504 2.983-3.919 7.11-6.902 9.469-11.307-6.937 2.739-14.186 5.965-18.937 11.966m-14.324 30.209c-7.977 13.323-15.262 28.335-14.637 44.235 2.635-3.96 4.265-8.47 6.902-12.43 2.914-4.4 6.486-8.33 9.294-12.8 6.037-9.366 10.371-19.907 18.106-28.057-6.971 1.7-13.839 4.786-19.665 9.052m4.023 27.995c-.902 8.7.208 17.49.45 26.23-.173 8.89 4.405 16.81 7.527 24.85 2.498 6.18 3.607 12.77 5.723 19.05 3.711-3.09 2.947-9.46 7.491-11.84 4.404 15.38 8.358 33.58 22.927 42.56-2.429-6.52-4.302-13.25-7.63-19.38-5.273-10.03-8.429-20.92-10.857-31.94-2.254 2.28-3.469 5.72-6.659 6.94-1.769-11.48-1.18-23.08-1.595-34.62-2.811.47-5.515 1.3-8.29 2-2.775-13.83 2.289-27.59 4.058-41.233-4.336 5.753-10.96 10.233-13.145 17.383m-55.529 12.05c-1.838 5.95-2.185 12.26-4.023 18.2-3.295 11.27-8.671 21.74-12.52 32.8l2.324-.76c4.854-9.45 12.52-17.18 16.404-27.08 3.468-8.07 2.289-17.04 4.267-25.44 1.179-6.27 3.954-12.41 3.294-18.94-4.058 6.67-7.664 13.67-9.746 21.22m9.92 57.91c-5.237 2.71-10.961 4.46-16.093 7.49 1.04-4.32 4.786-7.32 7.456-10.72 8.637-9.1 17.828-20.22 16.892-33.61-7.458 9.95-15.643 20.74-27.816 24.87-2.74.73-3.157 3.96-3.434 6.28 1.422 1.55 3.919 2.95 3.537 5.48-.346 4.72-2.463 9.11-3.885 13.59 4.996-1.87 9.469-4.92 14.637-6.27-.971 9.73-10.475 15.64-12.451 25.07 3.78-3.1 7.838-6.01 12.728-6.97-5.202 12.65-12.59 24.65-14.463 38.45-1.144 9.91-6.694 18.4-9.26 27.83 2.844-2.13 5.133-4.78 7.873-7.01-1.456 10.76-5.757 20.9-7.04 31.7 3.018-1.07 3.78-4.88 6.034-7.01 5.064-8.33 7.249-18.1 12.417-26.38 3.989-7.37 9.781-13.53 14.151-20.57-7.422 3.18-13.354 8.69-19.596 13.66 3.607-12.17 13.872-20.74 21.295-30.62-2.359.93-4.751 1.82-7.214 2.38-4.786 1.05-8.323 4.9-13.076 5.94 2.671-11.37 12.175-19.32 19.215-28.12 3.954-4.48 3.746-10.87 6.139-16.1 4.717-10.82 11.134-20.71 17.481-30.56 4.89-7.64 7.561-16.62 7.874-25.67-11.655 15.2-18.244 34.47-33.401 46.87m471.974-43.92l-.105 1.22c-8.218 7.37-14.705 16.48-21.746 24.94-7.872 11.2-16.613 21.7-24.347 32.98.902-6.76 3.607-13.14 4.473-19.94 1.215-8.12 3.331-16.02 5.307-23.97-7.353 9.28-12.59 20.68-22.093 28.12-.173-7.44 1.595-14.81 1.734-22.22l-1.699.86c-6.902 9.17-11.723 19.67-18.002 29.27-6.208 11.55-14.392 21.81-22.821 31.74 13.075-9.01 20.706-24.66 35.204-31.79 5.93-1.82 11.272-5.07 14.811-10.24-2.013 24 .762 48.1 6.034 71.52 2.566 9.5 6.174 18.94 12.07 26.86-8.324-23.82-8.324-50.26-.832-74.29 7.248-23.36 19.561-44.83 33.469-64.81l-1.457-.25m-73.98 115.36c-3.434-3.91-.694-9.42-.66-14.01-5.444 7.32-8.392 16.51-8.427 25.66 1.803-1.42 3.468-3.23 5.931-3.36.485 6.73-1.318 13.32-1.214 20.01 2.185-2.42 4.231-4.99 6.173-7.63 2.88 1.35 1.839 5.11 2.116 7.67-.346 12.66-2.184 25.22-2.983 37.82-.45 6.32 1.909 12.3 3.607 18.25 1.422 4.31 2.428 8.81 4.51 12.88-1.978-7.42-.278-16.16 5.306-21.55 5.446 4.6 10.163 11.04 9.503 18.54-.625 6.96-1.561 14.01-.068 20.97 3.571-4.85 7.317-10.4 6.658-16.75.728-9.06-5.445-16.44-6.832-25.04-.694-6.58.311-13.18.971-19.69-6.348 4.33-11.134 10.47-16.718 15.67.208-17.95.693-35.9 1.63-53.83 2.15-12.76 4.197-25.64 8.151-37.95-7.665 5.9-11.723 14.95-17.654 22.34m475.686-8.36c-6.66 14.88-7.146 31.77-5.584 47.75 2.219 16.18 7.041 32.93 17.82 45.45-11.89-33.26-15.774-70.66-4.361-104.62-3.713 2.9-5.898 7.22-7.875 11.42m-897.543 46.13c-8.255 7.53-11.653 19.08-12.277 29.96 5.307-9.84 10.543-19.83 17.861-28.39 3.954-5.27 9.4-9.41 12.764-15.14-6.729 3.63-12.729 8.47-18.348 13.57m-14.116 54.93c-2.046 2.47-4.717 4.94-5.203 8.25 4.474-3.25 9.886-5.32 13.527-9.71 3.677-4.15 7.562-8.14 11.308-12.24-7.562 2.89-13.84 8.15-19.632 13.7m-.242 13.74c-7.111 14.89-15.607 29.28-19.215 45.54 2.081-.76 2.809-2.99 3.988-4.6 4.682-7.74 9.816-15.3 16.128-21.79 4.891-4.95 10.786-8.7 16.371-12.79-9.365 1.93-16.683 9.05-23.655 15.18 3.92-9.09 9.886-17.03 14.949-25.46.902-1.81 2.498-3.6 2.151-5.75-4.302 2.21-8.498 5.31-10.717 9.67m466.632-.28c2.567 3.02 6.451 4.38 9.191 7.23 8.047 8.39 11.862 19.63 16.961 29.82-1.942-6.9-4.093-13.74-6.867-20.36-2.949-7.91-7.526-15.65-6.902-24.38-3.4 3.64-7.631 6.27-12.383 7.69m-482.83 69.97c.034-8.99 4.648-17.21 5.549-26.08-3.641 1.27-5.86 4.84-7.63 8.09-3.815 12.16-4.231 25.13-3.365 37.75 1.388-2.19 1.701-4.81 2.74-7.15 6.348-15.38 17.655-28.05 29.863-39.08 2.637-2.53 5.966-4.36 8.221-7.35-16.371 5.07-27.054 19.69-35.378 33.82m977.443-13.92c-.51 8.43-.96 16.96-3.42 25.12-2.12 8.32-6.59 15.81-9.5 23.79 10.32-11.23 18.99-25.28 19.69-40.93-.14-2.38.49-5.21-1.11-7.19-1.22-2.28-3.79-1-5.66-.79m40.11 30.67c2.8 8.98 4.5 18.7 1.87 27.96-1.46 5.81-5.14 10.63-7.85 15.88 12.98-6.69 19.74-23.53 15.17-37.47-1.67-3.7-4.35-8.41-9.19-6.37m65.86 4.33c-.2 3.22.42 6.42 1.28 9.5 3.57 13.32.83 27.61-5.02 39.83 6.79-5.52 10.18-14.3 11.99-22.69 1.36-8.92 2.25-18.83-2.26-27.05-1.27-2.53-4.36-.66-5.99.41m-30.04 6.59c6.17 14.39.98 31.02-8.78 42.42 14.95-7.5 23.73-27.58 16.34-43.22-1.42-3.68-6-1.62-7.56.8m-352.279 25.29c-3.087 1.31-2.913 5.52-1.769 8.1 2.879 3.13 7.354 3.99 11.065 5.84 3.537 1.28 6.243 4.12 9.884 5.24-.658-1.81-1.352-3.55-2.046-5.28 2.463.66 3.711 2.98 5.272 4.79 6.312 7.46 10.023 16.83 12.208 26.3 3.018-3.42 2.29-8.38 1.388-12.46-3.052-12.63-12.035-23.1-22.579-30.22-3.884-2.56-8.948-4.75-13.423-2.31m46.095 6.93c14.22 4.16 21.677 18.01 28.267 30.11-2.08-14.95-8.81-31.91-23.828-37.8-4.821-2.19-4.786 4.67-4.439 7.69m-90.976 11.83c3.296 3.72 6.902 7.26 11.135 9.88.311-1.84.658-3.64 1.074-5.41 1.804-.87 2.567 1.29 3.538 2.36 5.376 7.43 8.047 16.31 10.162 25.12.174 1.34.868 2.34 2.047 3.09 2.081-15.48-4.787-30.99-15.712-41.71-2.913-2.62-6.381-5.91-10.648-4.6-4.231 1.89-4.336 8.05-1.596 11.27m-40.336-.36c-1.076 4.83 3.503 7.89 6.867 10.29 2.255 1.31 3.954 3.84 6.728 4.09l.556-4.42c8.22 6.94 9.121 18.53 13.734 27.55 2.844-15.51-5.549-30.53-15.954-41.28-3.711-4.12-11.514-1.86-11.931 3.77m-510.681 5.24c4.023 3.41 7.56 7.41 12.001 10.24 0-1.1-.071-3.33-.105-4.44 11.828 8.09 15.018 23.72 16.232 37.21 4.162-10.54 3.192-23.24-3.573-32.5-5.167-7.2-11.896-14.29-20.706-16.54-3.26-1.46-7.353 3.79-3.849 6.03m-22.926 5.12c10.023 6.03 14.566 17.47 16.544 28.5.346.17 1.04.49 1.387.65.416-4.61.833-9.27.139-13.84-1.666-9.16-7.769-17.64-16.371-21.29-4.473-1.56-5.619 4.54-1.699 5.98m60.038-1.98c5.479 2.86 11.306 5.47 15.745 9.92 4.093 4.11 7.25 9.11 9.712 14.38 1.006 1.64 1.283 3.93 3.122 4.97-.036-4.06.068-8.2-1.388-12-3.052-10.66-13.353-18.25-24.14-19.28-1.491-.07-2.497.61-3.051 2.01zm0 0"/></svg>