<svg xmlns="http://www.w3.org/2000/svg" viewBox="0 0 1700 1500" width="150pt" height="150pt" xmlns:v="https://vecta.io/nano"><path d="M1522.54 558.493l5.16-54.285c2.04-19.784 1.46-39.633.68-59.418-.12-3.703-.91-9.421-3.19-10.558-4.67-2.306-7.17 3.476-10.09 6.238-9.92 9.356-17.65 20.239-22.81 33.103-4.1 10.169-16.47 15.432-14.78 29.498-9.04-4.483-4.07-11.078-7.4-15.821-6.48 7.245-6.08 16.179-6.76 24.917-.47 5.718-.78 5.686-6.64 2.827-2.88-1.43-10.56 3.996-11.79 7.959-4.05 12.865 2.47 25.859-.58 38.821-.85 3.639 1.01 7.472-4.62 8.544-3.95.747-5 4.451-4.6 7.992.97 9.258 2.92 17.997 1.14 27.841-1.77 9.583-4.16 27.256-9.17 37.197-1.17 2.371.78 6.432 1.5 9.648.71 3.216 1.69 6.4 2.56 9.649-6.01 3.248-5.88-3.996-9.43-4.516-.34.617-1.35 1.559-1.16 1.949 7.77 15.659-1.4 33.266 5.46 49.022.49 1.17.45 3.151-.23 4.126-4.93 7.115-2.08 7.667-3.41 14.587-5.55 28.425 17.16 51.361 13.75 78.779-1.5 12.085-5.41 23.845-8.26 35.735-.06.423-.98.78-.92 1.04 4.98 21.766-9.63 43.337-.38 65.168 10.1 23.877 14.65 48.632 12.89 74.784-1.45 21.641-27.41 49.831-49.89 52.851-4.69.62-9.03 3.18-13.59 4.74-2.72.88-5.81 2.18-7.95-.71-2.08-2.73-.04-5.36 1.08-8.03 2.4-5.84 9.86-7.89 11.17-15.81-8.67-.78-11.61 7.89-17.9 9.9-2.22.72-4.95 2.21-6.67 1.5-3.51-1.56-1.94-5.04-.9-7.57 3.18-7.54 6.21-15.23 10.2-22.35 3.18-5.685 5.82-11.013 3.51-18.647-13.04 2.566-11.64 16.47-15.28 23.777-4.63 9.42-7.65 8.61-14.61 6.08-5.89-2.15-12.8-10.918-16.82 2.21-.11.32-.86.71-1.21.65-25.86-3.16-12.9 16.07-11.41 23.71 6.24 31.77 13.65 63.31 16.9 95.64l4.09 43.3c1.78 19.75 8.31 26.09 28.66 26.28 26.51.26 53.07.69 79.55-.26 33.44-1.17 61.99 9 83.24 35.06 9.88 12.11 21.85 16.08 36.08 17.41 6.47.62 13.19.49 18.72 5.75-107.7 1.95-215.38-2.24-325.19 5.43l15.34 16.85c2.18 2.51 5.15 5.33 2.62 8.87-1.79 2.54-5.23 2.08-8.08 1.79-10.99-1.27-21.05-5.75-34.76-11.6 5.32 7.05 8.37 10.59 10.87 14.52 2.09 3.29 8.62 5.69 4.65 10.43-2.96 3.54-8.34 1.47-12.25-.26-7.92-3.47-15.61-7.44-23.31-11.43-5.15-2.63-10.04-5.88-17.62-3.15 4.48 6.88 8.91 13.35 12.93 20.04 1.92 3.25 4.58 7.25 1.47 10.66-3.51 3.86-7.16.19-10.3-1.6-7.58-4.22-14.94-8.83-22.42-13.22-6.36-3.73-13.19-5.68-20.62-5.94-9.88-.36-14.13 2.47-7.96 12.37 1 1.63 1.61 3.51 2.24 5.36 1.04 3.09 3.51 6.73.49 9.43-3.29 2.86-6.73-.13-8.77-2.37-11.12-12.12-24.28-13.13-39.58-10.11-15.17 2.99-29.79-1.43-42.88-9.49-13.29-8.18-27.09-9.51-41.65-4.77-17.28 5.59-32.614 4.22-46.973-8.74-14.489-13.03-33.753-16.14-50.354-8.38-33.201 15.53-67.084 9.52-100.935 7.93-55.845-2.67-111.656-5.17-167.598-2.73-4.678.19-9.584 1.65-15.204-1.34 4.841-6.78 12.703-6.27 18.842-8.96 6.238-2.73 13.028-5.23 2.599-11.92-2.209-1.43-4.645-4.52-4.71-6.92-.358-15.82-8.252-31.42-16.243-41.2-11.176-13.67-4.711-25.24-5.231-38.36-6.14 3.15-4.19 10.65-10.883 13.77-10.395-38.72 10.558-71.5 16.763-108.41-1.137-1.33-3.476 4.78-5.717 2.57-2.859-2.79.325-5.2 1.494-7.47 1.527-3.02 3.509-5.78 5.198-8.71.942-1.65 2.826-4.64 2.436-5-14.618-13.42 8.837-18.74 5.588-30.51l-11.728 11.05c.033-13.32 8.447-20.56 12.345-29.62 1.202-2.77 7.667-7.08-2.404-7.05-2.761.03-.065-4.88 1.235-7.12 3.281-5.91 6.822-11.66 10.038-17.118-.455-4.255-11.792 5.393-5.912-4.743 12.572-21.733 21.603-45.513 30.472-68.286 12.345-31.675 36.32-59.418 37.912-94.373 1.039-22.611 21.701-33.591 24.884-53.701 2.339-14.554 14.099-23.455 20.922-35.215 22.675-39.276 54.025-71.86 81.118-107.693 21.604-28.588 50.419-50.548 76.473-74.946 15.529-14.586 30.408-29.66 44.409-45.643 9.454-10.786 17.348-22.091 16.438-37.457-.097-1.17 1.008-2.794 2.015-3.671 18.679-16.308 26.381-41.55 48.111-56.332 8.12-5.555 14.39-16.438 24.37-21.928-5.69-9.356 14.06-10.493 6.59-20.467l21.8-16.405c-1.49-3.606-6.11 1.364-6.95-2.567-.62-2.826 2.17-3.963 4.09-5.327 2.73-1.95 7.15-3.282 7.99-5.815 1.2-3.671 16.21-2.242 4.29-10.721-.13-.097.55-2.177 1.07-2.307 13.81-2.891 15.66-19.524 27.84-24.299 6.24-2.469 6.07-2.794 12.25-12.963.46-.747 1.47-1.364 2.3-1.721 20.24-8.219 30.35-27.874 46.14-40.673 12.05-9.779 28.79-14.814 41.15-25.047 23.79-19.622 53.7-22.319 81.29-30.83 7.92-2.437 19.85-1.235 28.56-2.859 14.75-2.826 29.1 2.209 43.33-1.527 1.75-.455 3.9-.455 5.6.065 25.39 7.894 51.58 5.815 77.54 6.14 9.75.13 19.72.812 28.29 5.101 37.13 18.484 77.05 30.797 112.79 52.238 9.1 5.458 17.61 11.825 25.05 19.557 8.8 9.096 10.75 18.322 3.24 29.822-8.14 12.41-13.18 26.509-4.93 40.641 4.52 7.797-11.05 2.111-4.93 9.713 3.11 3.899 6.5 8.414 6.32 14.359-5.65 1.04-4.86-6.789-10.61-6.724 3.86 15.398 10.27 30.05 9.67 46.488l-13.48-36.937c-5.56.844 4.52 18.387-9.64 8.673-7.68 10.299-21.64 11.988-29.64 22.059-8.34 10.493-8.74 21.083-5.55 33.786 8.19 32.324 10.52 65.492 12.74 100.285-6.73-2.988-5.26-7.796-5.72-11.402-3.54-28.848-8.16-57.436-15.13-85.602-1.01-4.126.15-11.825-6.4-10.916-6.48.942-12.94 5.361-11.94 13.905 2.12 17.9.83 35.702-.03 53.537-1.13 23.78-4.42 47.138-9.68 70.301-.35 1.819-.61 3.898-4.18 4.548zm-221.37-233.74c-8.48 12.475-22.8 16.178-34.85 23.293-7.96-.747-18.43 6.335-22.51-7.18-.2-.617-3.71-.747-5.49-.292-4.72 1.202-1.56 4.353-1.47 6.855.38 12.832-10.81 24.202-25.53 25.371 2.99-9.356 13.11-12.832 16.31-20.304-22.49-15.236-46.18 2.274-74.36-3.638 15.94-2.209 6.53-12.735 12.24-17.38 6.11-5.003 8.73-13.255 15.68-17.608-34.5 15.886-58.28 43.499-80.72 72.575 9.77-1.527 14.79-11.63 26.02-12.572-4.15 14.781-15.56 23.195-22.81 35.247 8.43 0 10.79-10.135 20.24-9.031-10.09 16.926-27.34 24.462-40.57 39.016 8.15-1.916 11.63-9.096 19.84-7.342-7.07 28.101-33.29 39.959-49.11 62.764 13.22-5.555 20.69-16.438 35.08-21.311-14.87 27.126-40.89 40.966-54.28 65.395 16.08-9.258 31.02-19.784 46.59-29.367 23.13-14.229 40.84-18.355 52.3-11.988-15.95 4.548-30.32 9.551-43.95 16.763-38.96 20.661-73 47.43-102.305 80.339-.91.975-2.079 2.144.487 4.548 37.298-31.317 69.198-71.21 123.378-85.017-10.25 17.64-26.11 23.91-39.66 36.71 12.09-3.931 21.44-7.245 31.02-9.973 4.19-1.138 10.6-4.776 12.35 1.526 1.43 5.231-5.37 6.952-9.46 9.324-4.28 2.469-11.95.747-12.63 7.569-1.46 15.269-13 21.766-23.68 28.978-9.1 6.14-18.65 11.63-28.92 17.933 5.88 2.339 10.33-3.639 15.79 1.169-6.46 8.154-17.44 11.436-23.81 20.824 10.72 3.671 17.22.033 22.97-7.894 8.12-11.143 17.6-21.019 32.48-24.235-21.27 14.002-22.48 40.251-38.66 58.346 10.79.162 14.36-9.811 23.98-11.858-3.7 13.515-14.94 21.181-19.2 32.811 11.43 3.022 14.98 1.235 20.69-14.099 6.86-18.225 19.78-32.291 28.92-50.321 5.38 7.537-2.01 12.54 1.24 18.874l24.58-26.703c-.23 17.737-10.58 30.374-21.08 47.527l37.98-28.36c-3.7 14.326-13.85 21.636-24.43 28.23-25.57 15.984-42.24 38.432-51.88 71.113 16.21-18.972 32.44-32.031 53.17-39.471-24.26 19.46-37.48 44.994-45.57 73.777 10.85-9.324 16.63-23.098 31.86-34.566l-12.92 33.754c11.01-13.417 20.23-27.809 36.22-41.973-2.69 22.026-16.43 35.086-20.46 53.083 8.8-4.775 14.78-11.792 25.82-11.76-6.72 11.825-17.08 20.466-17.83 37.262 18.7-20.629 28.33-44.409 48.08-60.23-5.33 16.243-16.35 30.05-19.6 47.658 5.79-2.729 5.37-11.468 13.65-10.753.81 8.706-5.84 17.38-1.04 26.151 6.82-2.534 7.02-11.532 15.92-11.89l-8.48 23.098c4.26-1.137 5.04-5.49 9.04-4.256.74 6.043-3.91 10.526-5.11 16.016-.38 1.754-1.68 3.509.07 5.231 5.3 5.067 5.3 5.035 3.86 9.356-2.82 8.706-6.07 17.315-4.35 30.407 3.92-24.527 17.63-39.666 30.25-55.682.93 8.609.18 16.698.18 24.755-.03 8.544-.74 17.315 4.45 25.794 4.85-5.425 1.79-14.196 8.85-18.03 6.56 5.36 1.39 13.839 5.16 19.979 2.01-2.046 5.4-5.847 5.69-5.652 7.27 5.652 17.76.714 22.5 3.411 13.26 7.537 15.5-.553 19.01-10.526l11.82 12.637c1.08-3.541 1.15-7.731 2.81-8.446 4.61-2.079 4.58 3.313 6.59 5.555 2.1 2.307 1.2 9.356 6.81 6.075 4.26-2.501 1.61-7.927-.74-10.266-11.4-11.5-14.61-28.1-25.21-39.893-4.26-4.711-2.8-15.301-10.98-14.554-6.5.585-6.34-2.859-7.21-6.075-2.24-8.154.3-17.153-5.75-24.885-3.47-4.45-3.15-10.038-8.21-15.593-10.53-11.533-4.33-42.492 6.3-54.285 1.61-1.787 3.21-4.256 5.8-2.696 1.21.714 1.82 3.281 1.86 5.035.19 7.634.1 15.269.1 22.935 7.67-34.11-.36-69.683 11.85-105.71 6.01 10.233 7.81 19.784 8.13 29.79.75 22.773-2.99 45.286-4.77 67.929-1.01 12.994-2.31 25.989 4.77 37.782 1.43-3.509 1.52-6.855 1.78-10.201 1.59-18.29 9.52-31.025 14.49-23.26.26-15.886-1.14-32.065 7.9-46.651 1.71 26.606-.37 53.57 11.39 80.501 8.26-12.182-.86-22.318.56-32.551 5.82-.617 9.19 6.92 15.28 3.346-3.78-9.973-10.99-18.42-10.24-29.108 5.82-1.949 6.79 6.303 12.05 3.964 1.69-7.147-4.77-15.854 4.29-21.312 7.41 15.724 11.15 33.689 27 46.521 1.43-8.187 1.75-14.294-1.64-20.726-9.58-18.323-18.63-36.937-27.89-55.455-1.04-15.073-3.97-30.537 10.72-45.448 1.98 16.86 7.28 30.147 12.54 45.286 2.07-4.646-2.21-9.324 4.29-12.053 8.53 17.511 27.45 29.108 28.09 51.914 3.61-23.715-11.83-47.333 1.4-74.069l5.23 15.041c.43-8.122-1.49-19.265 1.5-20.791 12.04-6.205 1.95-14.392 5.12-21.474-12.69 4.093-16.73 15.366-25.3 26.087l-2.28-27.581c-9.19 7.244-7.92 19.232-16.76 26.768-2.27-13.027 4.46-23.195 4.98-34.598-7.31 4.906-3.45 14.489-10.3 19.297-1.2-1.981-2.05-3.151-2.64-4.418-8.22-18.485-9.61-40.316-27.31-54.187-6.82-5.361-9.1-12.605-4.66-21.214 5.66-10.915-.18-12.182-9.93-14.132-13.74-2.761-24.4 6.27-36.64 7.765-1.86-7.05 5.88-8.447 5.13-14.457-20.8 4.288-35.36 19.135-53.32 34.014 1.49-16.861 11.15-25.015 18.71-38.399l-29.13 19.199c9.58-18.355 25.5-29.952 42.61-42.882-14.74.942-25.29 9.746-39.17 10.038 4.25-7.926 12.55-7.634 16.73-13.579l-10.53.52c10.7-11.89 25.19-12.865 35.97-20.564-4.75-3.379-10.21 3.476-15.21-1.69 3.51-9.031 13.36-9.648 19.89-14.034-.82-5.23-8.54-3.703-7.7-11.402 28.52 6.627 53.63-6.173 79.72-13.97l79.36-24.234c-2.47-6.173-7.34-1.43-7.96-7.375l52.69-21.409c-49.51 10.169-91.63 39.634-140.5 51.816 32.62-16.568 67.19-28.913 101.85-49.184-27.88 5.653-52.6 9.648-76.73 16.016-10.86 2.891-20.44 10.59-30.67 15.951a70.57 70.57 0 0 1-26.22 7.796c-9.81 1.007-19.76 1.072-30.93-7.277l25.01-3.281c31.19-4.775 58.55-22.318 89.9-26.801 14.35-2.047 28.46-6.205 42.72-9.389-10.33-.357-20.38.78-30.22 2.729l-93.46 19.167c-9.35 2.014-17.19-2.631-23.58-6.984-4.32-2.924 4.12-7.147 5.84-11.306 7.94.293 15.01-2.339 22.13-5.49 15.13-6.725 31.74-12.475 47.5-8.251 18.93 5.035 35.96-.715 57.24-2.145-33.04-2.956-62.21-9.94-92.11-7.244 4.55-6.757 11.9-7.959 19-8.934 14.18-1.949 27.75 1.17 41.37 4.841 23.12 6.27 46.35 3.313 71.96 1.299-6.18-3.573-11.15-.585-16.93-6.595 14.72 2.112 16.56-9.486 23.32-15.821 5.95-5.652 5-12.052 3.83-15.366-1.97-5.652-8.14-.682-12.11.488-21.83 6.529-41.06 2.664-57.3-13.547-3.51-3.509-8.2-6.952-3.62-13.515 15.76-22.415 41.11-29.4 65.01-17.51 7.9 3.899 7.7 3.801 11.15-4.483.54-1.397 3.82-1.689 8.05-3.378-35.93-16.179-69.72-19.492-102.85-.358.81 1.235 7.08-1.462 7.21 4.516-1.11.682-2.38 2.176-3.47 2.046-9.59-1.169-7.64 14.002-17.45 12.215.38.812.52 1.82 1.13 2.339 9.11 7.765-.32 7.31-3.95 8.252-14.05 3.671-27.71 8.381-40.94 14.294-2.04.877-3.76 2.469-5.69 3.703l-4.48 9.714c2.67.909 6.53.52 7.45 3.606 1.13 4.126-3.16 4.191-5.53 5.003-13.46 4.71-21.83 16.308-32.92 25.209l26.45-4.255c-3.9 10.59-14.12 10.233-20.07 16.893 16.11 2.793 27.87-7.862 41.61-10.721zm-324.246 360.08c-13.969 9.746-33.915 11.533-41.355 29.985 9.649-4.061 14.294-16.016 26.477-16.731.974 6.075-6.01 8.804-3.346 14.359 6.919-4.06 6.562-14.131 15.691-17.867.487 7.667-2.762 13.092-5.686 18.355-7.244 13.222-20.823 19.849-31.511 29.432-8.869 8.025-14.944 17.251-18.388 28.556 10.428-7.537 19.979-15.626 28.393-24.755 9.909-10.818 21.474-17.023 33.624-15.333-21.246 26.216-56.104 39.796-65.428 75.206 11.013-.682 16.926-7.31 17.088-19.102.097-8.057 21.019-25.015 34.988-26.769-9.714 10.591-9.324 22.156-9.129 34.208.098 8.479-2.599 20.174-10.071 22.838-11.955 4.288-12.409 13.612-18.842 25.632 20.792-10.363 48.665 7.602 55.974-24.95.065-.227 1.657-.129 2.567-.194 2.209 3.508.13 6.659-1.007 9.648-7.959 20.629.715 35.898 14.067 51.134 5.62 6.367 8.74-1.949 13.94 1.494 28.62 19.037 48.24 46.033 66.76 74.004 6.1 9.291 12.15 18.258 20.11 26.249 12.79 12.832 14.94 29.558 15.58 49.278-9.05-7.83-7.13-17.44-12.18-24.07-4.86-.03-1.39 9.55-8.09 7.38-3.73-5.07-1.23-11.21-3.02-16.929-.64 2.111-.68 4.869-1.75 5.389-4.68 2.24-4.38-2.888-4.55-4.577-3.93-39.958-36.77-62.244-55.97-93.853-.72 3.378-.46 6.789-1.82 7.634-4.06 2.631-4.06-2.112-5.62-4.061-3.51-4.386-2.34-12.507-11.82-12.15-13.975.52-26.547-7.147-39.801-8.934 3.086 11.208-4.126 12.02-11.793 11.208-10.071-1.072-19.979-3.216-30.017-4.385-3.346-.358-10.299-1.365-8.544 3.93 3.671 11.241-5.393 15.464-11.208 22.546 10.331 1.007 17.413-6.01 27.126-6.075l-3.638 14.716c7.244-.714 10.298-15.626 16.405-7.017 7.829 11.046 22.903 16.211 25.047 31.74.845 6.107 3.411 11.955 5.685 19.556 7.537-14.943 11.273-6.919 14.035 1.495 7.893 24.105 9.773 49.087-8.025 68.607-11.662 12.8-15.756 27.78-23.227 41.88-14.619 27.64-20.434 55.35-8.772 84.17 3.899-16.8 5.296-35.77 13.969-54.48 7.407 10.13 1.95 20.33 8.09 30.7l7.212-23.16c5.262-28.85 15.596-55.85 29.206-81.71 15.36-28.32 3.77-54.994-5.1-82.088 20.89 22.156 29.95 48.308 26.96 78.838 7.02-18.71 2.89-37.028-.75-58.729 17.35 15.399 25.02 31.799 28.79 51.679 3.25-6.98-.65-13.54 3.64-20.3 7.92 11.86 6.43 24.53 8.54 37.2 5.3-5.85 2.37-13.75 10.17-19.14 1.53 16.15-3.54 33.2 6.33 44.41 11.9 13.48 6.64 26.22 4.55 39.86-.19 1.37-.16 2.7-.45 7.31 12.6-25.37 6.65-49.7 7.92-73.39 7.99 17.29 14.68 34.37 19.46 51.95 2.61 9.65 1.96 20.21-.46 30.21-.81 3.32-2.88 6.18-6.65 6.86-2.9.55-4.67-.94-5.29-3.58-3.9-16.73-7.44-5.19-10.66.23-1.63 2.76-3.91 5.56-3.13 8.77 25.35.1 1.64 19.56 10.43 25.83 6.67-2.08.92-19.53 16.31-13.71 18.33-52.89-2.59-107.34-.61-161.682 5.69-.909 4.57 7.212 10.24 7.05-.07-9.194-3.88-18.582.64-28.881 20.5 17.641 5.16 48.923 28.85 66.953l.06-28.88c.14-4.22-.87-9.387 2.96-12.213 5.55-4.159 5.92 6.172 12.97 4.613-13.1-18.582-22.88-38.172-26.8-59.32-2.55-13.645-18.3-13.97-20.47-26.152-.07-.39-1.67-.747-2.5-.682-16.84 1.104-20.15-.975-24.79-15.659-.59-1.819-1.34-3.606-2.06-5.587-3.85 3.411 2.44 9.681-3.99 12.442-6.3-6.692-6.56-16.243-11.11-24.138-2.14 5.231 2.67 10.201-3.54 16.796-2.95-15.366-14.58-23.845-20.56-36.06-2.54-5.23-4-11.208-9.36-14.197-17.02-9.551-17.22-30.927-31.38-43.856-8.38-7.635-14.07-25.112-8.9-41.94-5.13 5.1-2.44 12.767-10.46 15.496 2.24-12.768-7.246-24.203 1.98-37.75-4.52 2.664-7.18 5.491-8.869 4.971-3.703-1.137-1.657-4.906-1.267-7.537.747-5.653 1.819-11.273 2.729-16.796-4.548-1.526-5.133 5.166-9.064 3.347-4.45-3.704 2.534-9.129-1.689-12.8-7.05 2.144-8.674 11.5-19.33 12.832 4.029-8.576 6.335-15.463 10.169-21.344 4.223-6.334 2.794-10.915-2.014-15.561 11.272-15.82 19.979-32.941 25.985-51.621-16.564 23.521-45.64 30.603-62.76 53.148-.812-.909-1.657-1.786-2.469-2.664l7.764-14.943c-8.674 5.717-15.366 12.604-21.928 19.686-1.495 1.625-2.372 3.899-3.541 5.848 13.287 6.595-1.04 8.999-2.632 12.117-3.248 6.433-8.998 11.598-13.676 17.251 10.07-6.465 18.062-15.009 27.386-21.604 9.356-6.594 19.979-11.63 30.342-16.73 4.84-2.339 10.331-6.692 15.658-.39zm529.406-319.797c5.75-2.339 7.44-9.778 14.84-9.453.29 9.193-10.16 13.384-10.85 22.123 27.32-.877 46.58-17.738 66.44-31.252 19.04-12.962 17.7-28.426.55-43.272-6.41-5.555-11.83-11.695-11.27-20.791.64-10.753 10.16-12.313 18.81-15.172-15.93-11.5-61.96 1.3-63.42 18.908-1.27 14.618-14.01 13.709-18.23 22.415 9.66.552 18.94-5.068 30.47-1.559-10.52 8.706-24.13 8.609-31.82 18.68 6.46 4.32 13.48 3.216 20.32 5.49-5.03 6.692-13.93 7.472-18.45 16.633l27.3-10.103c-8.16 9.486-20.96 13.384-24.69 27.353zm-36.97-9.161c-33.1 1.364-68.91 25.209-87.58 55.552 3.24-.552 6.07-.78 8.8-1.527 7.05-1.852 13.68-4.678 18.86-10.038 5.83-6.01 10.12-5.978 12.68 2.761.81-.487 1.73-.877 2.47-1.462l48.04-39.763-40.22 22.708c-.54-.91-1.09-1.755-1.64-2.664l38.59-25.567zM881.349 1179.27c23.033-7.05 42.395-30.5 44.344-52.53.195-2.17 1.462-6.37-1.851-5.42-10.916 3.02-10.104-4.78-11.76-11.08-1.592-6.14-4.744-4.58-8.155-1.14-9.908 10.01-11.077 23.46-16.373 38.27 10.298-7.44 11.338-19.13 22.156-25.5-5.068 22.77-18.615 38.72-28.361 57.4zm428.701-745.525c21.31-9.096 43.88-15.399 61.72-30.992-11.83 1.137-23.07 3.606-34.32 5.913-10.81 2.176-22.11 2.436-32.12 7.699-2.07 1.104-5.88 1.559-5.14 5.62 1.53 8.381 1.57 8.479-3.85 10.526-4 1.461-8.13 2.534-13.11 4.06 36.07 5.361 55.4 3.541 64.46-6.14-12.66.618-24.42 6.27-37.64 3.314zm-259.06 632.145c-12.37.78-23.26-5.19-35.34-6.46-1.17 9.26-5.62 19.04-2.54 30.54 6.18-5.14 5.95-14.52 15.14-16.6.52 13.06-3.31 25.24-.84 37.52 4.12-2.5 1.36-9.91 7.73-10.69 5.23 4.71.68 11.79 4.97 18.36l10.88-52.67zm-128.675 10.56c8.901-7.96 8.609-18.48 16.34-25.92 3.476 13.64-3.671 24.75-3.346 38.43 7.31-7.76 9.162-15.79 10.786-23.59 1.202-5.91 6.919-14.35 1.819-17.6-11.338-7.28-3.314-12.71-.455-18.78 3.054-6.39 7.277-12.31 7.732-21.37-18.517 19.36-24.982 42.88-32.876 68.83zm92.095-37.36c1.27-17.18 5.2-34.85-7.73-50.184-4.58 3.346-3.8 7.017-3.67 10.201.98 18.873-3.93 36.313-12.084 53.143-6.302 13.06-12.15 26.51-13.644 41.1-1.007 9.97-2.632 20.59 7.894 27.45 5.263-28.85 15.624-55.88 29.234-81.71zm300.9-441.971c1.46-18.874.75-34.468-9.14-48.015-6.55-9.063-11.47-7.991-15.62 2.21l-10.98 26.444c-3.38-16.601 3.48-31.707-1.66-47.008-7.02 11.045-13.03 22.318-14.84 35.117-1.93 13.385.64 25.99 9.29 36.873 5.49 6.919 9 5.782 9.8-3.346 5.96 4.45 7.16 12.994 16.77 12.767-2.33-16.406-5.95-32.519-.06-50.322 4.16 12.507 4.39 24.885 16.44 35.28zm0 0"/></svg>