<svg xmlns="http://www.w3.org/2000/svg" viewBox="0 0 1500 1500" width="150pt" height="150pt" xmlns:v="https://vecta.io/nano"><path fill="#1c1c1c" d="M674.215 653.707c-4.754 1.585-7.923 1.585-11.092 3.17-45.996 22.185-85.613 49.165-117.347 88.822h-1.585c-1.584 0-1.584 0-3.169-1.584 0-3.17-1.585-7.924-3.169-12.678-1.585-31.734 12.677-63.468 28.524-92.032 6.338-9.508 3.169-20.601-9.508-19.016-11.093 0-19.016 4.754-26.94 11.092-1.584 1.585-3.169 3.17-6.338 3.17-1.585 1.584-1.585 1.584-3.17 1.584-4.754-1.584-7.923-6.338-6.338-12.677 4.754-17.472 33.278-19.057 47.54-19.057 14.262-1.584 20.641-9.508 14.262-23.77-9.508-19.056-22.186-33.318-41.202-42.826-3.169-1.626-4.754-4.795-4.754-7.964-1.584-6.339 6.339-9.508 11.093-9.508 9.508 1.584 17.431 6.338 23.77 14.262 4.754 7.964 11.093 17.472 19.057 31.734 1.584 3.169 1.584 4.754 1.584 4.754 4.754 6.379 11.093 6.379 14.262 0 4.754-6.339-6.338-28.524-9.508-33.278-6.338-11.134-12.677-20.642-11.092-31.734 0-1.585 1.584-1.585 1.584-3.17 11.093-7.964 20.601 6.339 23.77 15.847 3.17 11.093 4.754 22.226 7.924 33.319 0 3.169 1.584 6.338 4.754 7.923 0 1.585 1.584 1.585 3.169 1.585h3.169c7.924-6.339 11.093-23.77 14.262-33.319 1.585-7.923 6.38-14.262 11.134-19.016 6.338-4.754 19.016 0 17.431 9.508 0 1.585-1.585 4.754-4.754 7.923-6.339 9.508-17.431 19.057-17.431 30.15 0 3.169 1.584 6.338 4.754 6.338s6.338 0 9.508-1.584l12.677-12.678c7.923-6.338 20.601-7.923 25.355 3.17 1.584 1.584 0 3.169-1.585 4.754-1.585 3.169-3.169 4.754-4.754 6.338-12.677 4.754-19.016 6.339-20.601 7.924-9.508 3.21-15.846 9.548-19.016 17.472-1.584 1.584-1.584 3.169-1.584 4.754 3.169 4.754 6.338 6.338 12.677 3.169 15.847-4.754 25.355-6.339 25.355-6.339 7.923-3.169 17.431-3.169 20.641 3.17 1.585 3.169 1.585 4.754 0 7.923-4.795 7.923-15.887 6.339-25.395 6.339-7.924 1.584-14.262 1.584-17.432 3.169-15.846 6.379-26.98 17.472-31.734 36.488 0 1.585 1.585 3.21 3.17 3.21 20.641-4.795 36.488-6.379 49.165-9.549 19.016-3.169 36.488-9.508 53.919-19.016 31.694-15.887 58.674-34.903 80.859-53.96 6.339-6.338 25.395-22.185 55.504-49.165 47.581-42.827 99.915-74.561 163.34-84.069 19.02-3.169 38.04-4.754 57.05-6.338 12.72 0 25.4-9.549 34.91-12.718 19.01-4.754 36.48-4.754 52.33 1.584 9.51 4.754 20.6 14.303 28.52 20.642 6.34 4.754 14.27 7.923 22.23 11.092 7.92 3.17 23.77 7.924 47.54 15.888 3.17 0 7.92 1.584 11.13 4.754 7.93 4.754 12.68 11.092 12.68 20.6 0 19.057-6.34 31.734-20.64 44.412-30.11 23.81-65.01 34.903-106.21 50.79-12.68 4.754-19.06 6.339-22.23 7.924-26.94 14.262-45.96 23.81-76.1 34.903-25.36 9.508-45.96 17.431-61.85 25.395-36.446 14.262-66.595 34.904-90.365 60.258-14.262 15.888-25.355 28.565-30.15 42.827-14.262 30.149-12.677 66.637-9.508 98.371l1.585 1.585c25.395-3.169 50.75-11.093 68.181-31.734 17.472-19.016 12.718-39.657 0-60.258-3.169-4.795-3.169-9.549-3.169-14.303 1.585-3.169 4.754-6.338 7.923-6.338s6.38 0 9.549 3.169c15.847 11.093 14.262 44.411 15.847 63.468 0 1.585 1.584 3.169 3.169 3.169h1.585c14.263-3.169 28.523-38.072 34.863-47.58 4.8-7.964 9.55-14.303 15.89-17.472s12.67-3.17 17.43 0v1.584c6.34 3.17 6.34 7.924 0 12.718-17.43 11.093-30.15 25.355-38.08 39.658-1.58 3.169-1.58 4.754-1.58 7.923 0 1.585 3.17 3.169 4.76 3.169h1.58c11.13-4.754 20.64-7.923 28.56-9.508 14.27-4.754 39.62-3.169 47.59 11.093 3.16 4.754 1.58 11.093-4.76 12.677-4.79 0-14.3-3.169-17.47-4.754-17.43-4.754-41.2-1.584-53.92 12.678-6.34 6.379-1.58 15.887 4.8 19.056l28.52 9.508c12.68 6.339 36.49 23.811 25.35 39.658-3.17 3.169-9.5 1.584-12.67-1.585l-15.85-15.847c-12.68-12.677-39.66-25.395-55.5-14.302-9.513 6.379-9.513 12.718-4.759 22.226 7.919 15.846 14.259 31.734 6.339 47.58-4.755 9.549-19.017 12.718-19.017-1.584 0-9.508 4.754-19.016 1.585-30.15-6.339-17.431-23.811-11.092-34.903-3.169-31.694 22.226-61.843 41.242-99.875 38.073-20.641-1.585-33.319-20.601-38.073-38.073-6.338-19.016-7.923-38.073-4.754-57.089v-1.584h-1.584-1.585c-17.431 9.508-33.278 23.77-47.581 41.242-30.108 38.072-42.786 79.314-36.447 125.313 4.754 49.21 33.278 96.78 69.766 131.69h1.585v-1.59c9.508-28.57 23.77-53.95 42.786-77.72 20.641-25.4 47.58-23.82 77.73-11.14 36.447 15.89 65.012 41.25 88.787 74.55 4.75 6.39 11.09 9.55 19.01 4.76 4.76-1.58 9.51-4.76 11.14-9.51 11.09-11.08 11.09-22.18 4.75-36.49-3.17-9.51-7.97-22.17-1.59-30.14 1.59-1.59 3.17-3.17 6.34-3.17 1.59 0 3.17 1.58 4.76 3.17 3.17 3.2 4.75 7.97 4.75 14.31 3.17 15.83 3.17 25.38 3.17 26.98 1.58 4.75 3.17 6.33 7.92 4.75 1.59 0 3.17-1.59 3.17-3.18 1.59-6.37 3.17-14.29 3.17-22.23 1.59-17.43 1.59-30.14 1.59-39.65 1.58-9.5 4.75-19.05 9.51-26.98 4.75-6.34 14.26-14.259 23.81-11.09 1.58 1.58 3.16 3.17 3.16 4.75 0 0 0 1.59-1.58 1.59-9.55 15.89-14.3 33.32-15.89 50.75-4.75 31.74-6.34 47.62-6.34 49.2 0 3.17 1.59 4.75 4.76 4.75s6.34-1.58 7.92-3.16c17.47-15.89 34.91-33.31 52.34-52.38 9.5-9.5 17.47-17.43 26.98-22.18 6.34-4.75 14.26-6.34 23.77-7.92 7.92 0 14.26 3.17 17.43 7.92l1.58 3.17c4.76 4.75 3.17 7.92-4.75 7.92-19.02 3.17-36.45 11.09-53.92 26.99-28.52 30.14-47.54 47.57-55.46 55.5-3.17 4.75-4.76 9.54-3.17 12.72 0 1.57 1.58 1.57 3.17 3.16h9.5c26.94-11.13 74.52-31.74 96.71-7.92 3.17 3.16 4.75 6.33 4.75 11.09 0 0 0 1.58-1.58 1.58-3.17 4.76-7.92 4.76-14.26 3.17-19.02-4.75-36.45-4.75-52.34 0-15.84 3.18-33.28 9.51-50.75 15.86-6.34 3.16-14.26 7.95-14.26 15.88s3.17 12.68 9.51 15.84c20.64 11.15 34.9 20.65 44.41 28.58 9.51 7.91 12.68 17.42 12.68 30.14 0 3.18-3.17 6.34-6.34 6.34-3.17 1.59-6.34-1.59-9.51-4.75-7.92-15.9-20.6-28.57-36.49-39.66-19.01-9.5-38.03-20.65-57.05-11.14-6.33 3.21-11.13 6.39-17.47 7.96-19.01 6.35-34.862 1.6-49.124-11.12-22.226-20.61-44.411-39.67-69.766-57.1-1.625 0-1.625 0-1.625 1.6 4.794 28.55 6.379 55.5 3.21 82.48 0 1.58 1.584 3.16 3.169 3.16 55.463 38.08 120.476 61.89 188.656 66.65 133.24 9.51 271.18-49.18 363.13-147.54 39.66-42.84 69.77-91.99 88.79-147.54 36.48-103.127 31.73-223.683-25.36-317.26-42.82-71.391-109.42-115.803-193.45-123.767 0 0-1.58 0-1.58-1.584 1.58-1.585 3.17-1.585 4.75-1.585 52.33-6.339 101.5 7.923 142.7 38.073 42.83 30.149 74.52 68.222 98.33 112.633 38.03 72.976 53.92 150.706 50.75 234.815-1.58 39.658-7.96 76.145-19.05 112.625-42.79 134.83-122.11 237.95-241 307.75-61.84 36.49-131.6 61.86-207.75 72.98-20.6 3.17-39.62 4.75-61.84 4.75-74.52 1.6-145.875-11.09-215.641-38.07-44.411-17.47-88.782-39.66-130.024-66.63-1.584-1.59-3.169 0-1.584 1.59 3.169 17.47-3.17 26.98-20.601 31.73-6.339 1.58-14.262 3.17-22.226 1.58-15.847-1.58-28.524-1.58-41.201 0-25.396 1.59-47.581 20.65-55.504 44.42-1.585 6.33-1.585 12.68-1.585 20.63-1.585 3.17-1.585 6.35-3.169 7.92-4.754 6.34-12.678 0-15.847-6.32-4.754-9.55 0-25.41 6.339-34.92 4.754-6.33 11.092-15.88 22.185-26.98 1.585-1.57 3.169-4.75 3.169-7.91v-1.6c0-3.17-1.584-4.75-6.338-4.75-11.093-1.57-31.694-1.57-41.242 0-11.093 0-20.601 4.75-31.694 9.51-4.754 3.18-7.923 1.59-9.508-4.76 0-6.32 1.585-11.08 6.339-14.29 11.093-6.34 22.185-9.51 33.278-7.93 9.549 1.59 19.057 1.59 28.565 1.59 4.754 0 7.923-1.59 11.092-3.17v-1.58s0-1.6-1.584-1.6c-23.77-6.32-52.335-19.01-69.766-39.64-15.847-20.61-7.924-44.41 14.262-57.1 9.508-4.8 19.016-7.97 31.734-11.13 0 0 1.584 0 1.584-1.59h-1.584c-3.17-4.75-9.549-12.67-20.642-26.98-38.032-44.4-63.427-95.15-77.689-152.29-28.524-111.045-1.585-226.847 76.105-312.501 23.81-26.98 49.165-49.165 74.52-66.637 7.964-4.754 20.641-14.262 38.072-25.355h0zm0 0" fill-rule="evenodd"/></svg>