<?xml version="1.0" encoding="utf-8"?>
<svg xmlns="http://www.w3.org/2000/svg" viewBox="200.1194 0 182.6501 168.7695" width="150pt" height="150pt">
  <path d="M 362.428 44.378 C 356.305 40.39 344.123 40.357 337.122 47.836 C 335.937 49.099 334.817 50.476 333.995 52.046 C 331.184 57.426 330.237 61.984 329.989 62.832 C 328.866 66.681 326.253 67.652 322.802 67.204 C 321.598 67.05 320.403 66.77 319.235 66.418 C 282.106 54.375 266.56 74.632 266.016 75.388 C 265.917 75.522 264.5 77.775 264.342 78.066 C 263.385 79.837 262.613 81.67 261.461 83.293 C 259.855 85.555 258.12 87.706 256.31 89.771 C 252.984 93.564 247.271 100.089 223.411 106.24 C 219.173 107.332 216.602 108.931 213.153 111.541 C 209.765 114.105 207.664 116.957 209.417 121.613 C 211.077 126.029 218.118 125.37 220.692 122.791 C 235.684 107.777 241.329 113.803 261.195 96.274 C 263.268 94.446 261.662 104.132 261.97 107.036 C 262.254 109.697 262.566 118.746 265.664 121.518 C 269.641 125.067 275.563 124.443 280.613 125.334 C 282.804 125.718 285.039 125.731 287.256 125.738 C 287.714 125.741 288.931 125.462 289.309 124.87 C 289.417 124.694 289.411 124.453 289.407 124.243 C 289.33 118.912 277.442 118.666 277.442 118.666 C 273.215 118.304 275.166 114.856 275.166 114.856 C 283.156 109.689 284.74 105.209 284.74 105.209 C 287.077 99.738 283.688 92.721 283.688 92.721 C 283.688 92.721 287.963 97.892 287.407 103.295 C 293.904 99.285 301.424 99.092 308.84 100.391 C 312.163 100.975 315.395 101.931 318.631 102.823 C 318.667 101.765 319.562 81.949 332.337 78.247 C 332.965 78.029 333.345 77.993 333.345 77.993 C 333.002 78.066 332.663 78.152 332.337 78.247 C 329.637 79.19 319.442 85.386 320.581 103.011 C 320.881 107.674 330.954 124.759 342.886 125.738 C 342.886 125.738 346.88 125.819 346.545 120.946 C 346.545 120.946 331.573 117.645 335.339 104.889 L 335.368 104.708 C 339.388 104.026 343.075 102.201 346.004 98.836 C 347.734 96.844 349.056 93.979 349.758 91.337 C 350.084 90.119 350.243 88.856 350.401 87.597 C 348.508 72.352 359.134 61.847 359.134 61.847 C 370.066 69.141 373.585 56.107 373.585 56.107 C 373.586 56.105 364.081 45.458 362.428 44.381 L 362.428 44.378 Z M 347.52 50.915 C 347.52 52.246 348.061 54.428 348.914 54.428 L 348.908 54.428 C 346.718 54.428 344.949 52.284 344.949 49.869 C 344.949 47.454 346.719 45.406 348.908 45.406 C 349.89 45.406 350.789 45.844 351.479 46.494 C 349.291 46.499 347.52 48.502 347.52 50.915 Z M 358.755 52.636 C 357.913 52.138 357.253 51.467 356.817 50.744 C 357.798 49.738 359.717 49.692 361.474 50.74 C 362.281 51.217 362.928 51.856 363.378 52.546 C 362.443 53.608 360.518 53.682 358.755 52.636 Z M 371.001 56.367 L 373.143 56.319 C 373.099 57.201 372.205 58.462 372.205 58.462 C 371.354 58.645 371.001 56.365 371.001 56.365 L 371.001 56.367 Z" fill-rule="evenodd" style="stroke-width: 1;"/>
</svg>