<?xml version="1.0" encoding="UTF-8" standalone="no"?><!DOCTYPE svg PUBLIC "-//W3C//DTD SVG 1.1//EN" "http://www.w3.org/Graphics/SVG/1.1/DTD/svg11.dtd"><svg width="100%" height="100%" viewBox="0 0 150 150" version="1.1" xmlns="http://www.w3.org/2000/svg" xmlns:xlink="http://www.w3.org/1999/xlink" xml:space="preserve" xmlns:serif="http://www.serif.com/" style="fill-rule:evenodd;clip-rule:evenodd;stroke-linejoin:round;stroke-miterlimit:2;"><path d="M150,20.282l0,109.436c0,11.194 -9.088,20.282 -20.282,20.282l-109.436,-0c-11.194,-0 -20.282,-9.088 -20.282,-20.282l0,-109.436c0,-11.194 9.088,-20.282 20.282,-20.282l109.436,-0c11.194,-0 20.282,9.088 20.282,20.282Zm-49.329,43.835c1.062,-2.87 1.637,-6.097 1.633,-9.552c-0.002,-3.501 -0.952,-6.828 -2.5,-9.78c-2.33,-4.433 -5.981,-8.123 -10.503,-10.803c-4.52,-2.666 -9.976,-4.295 -15.899,-4.295c-7.299,-0.018 -13.364,1.885 -17.94,4.52c-4.595,2.622 -6.577,5.677 -6.577,5.677c-0.772,0.671 -1.208,1.647 -1.19,2.666c0.022,1.022 0.491,1.979 1.288,2.615l6.36,5.097c1.296,1.036 3.152,0.997 4.402,-0.092c0,0 0.782,-1.412 3.231,-2.811c2.462,-1.39 5.655,-2.508 10.426,-2.525c4.164,-0.007 7.794,1.544 10.27,3.668c1.23,1.053 2.15,2.228 2.714,3.307c0.567,1.085 0.775,2.034 0.771,2.756c-0.011,2.438 -0.485,4.031 -1.169,5.387c-0.521,1.017 -1.201,1.918 -2.077,2.789c-1.306,1.308 -3.08,2.514 -5.069,3.625c-1.99,1.121 -4.135,2.111 -6.303,3.305c-2.473,1.37 -5.093,3.339 -7.027,6.293c-0.965,1.458 -1.72,3.131 -2.199,4.891c-0.485,1.767 -0.705,3.615 -0.705,5.501l0,3.665c0,1.896 1.54,3.436 3.437,3.436l8.277,0c1.897,0 3.435,-1.54 3.435,-3.436l-0,-3.665c-0,-0.727 0.083,-1.196 0.163,-1.492c0.137,-0.445 0.213,-0.556 0.438,-0.828c0.228,-0.256 0.689,-0.651 1.54,-1.121c1.241,-0.697 3.237,-1.639 5.499,-2.862c3.385,-1.852 7.498,-4.363 10.969,-8.508c1.727,-2.07 3.252,-4.559 4.305,-7.428Zm-39.828,46.858c0,5.155 4.184,9.341 9.344,9.341c5.156,-0 9.34,-4.186 9.34,-9.341c-0,-5.16 -4.184,-9.344 -9.34,-9.344c-5.16,0 -9.344,4.184 -9.344,9.344Z"/></svg>