<svg xmlns="http://www.w3.org/2000/svg" viewBox="0 0 2000 1500" width="150pt" height="150pt" xmlns:v="https://vecta.io/nano"><path d="M1336.62 937.07l18.2 19.749c-20.34-2.523-36.66-11.948-52.78-24.398l16.89 23.405c-21.48-4.386-37.66-17.159-51.96-35.686 1.62 5.38 3 10.887 4.92 16.097 1.98 5.285 4.5 10.257 7.84 17.796-20.79-13.641-31.85-33.528-41.82-55.275l5.19 29.584c-17.49-12.383-29.89-41.363-39.17-88.343-.66 6.543-1.55 13.011-1.86 19.589-.3 6.535-.05 13.148-.79 19.818-14.76-27.986-15.56-58.495-13.44-90.33l-7.93 18.56c-5.94-32.6-2.22-63.348 3.28-94.614l-5.45 9.858c-1.88 3.553-3.64 7.207-5.46 10.819l-2.17-.562c1.43-11.422 2.19-23.038 4.49-34.224 2.38-11.421 6.29-22.409 8.84-34.358l-10.25 15.399c2.22-28.981 8.18-54.306 16.66-79.538l-9.02 11.081c-.63-.229-1.23-.425-1.86-.629 1.97-8.327 3.45-16.861 5.98-24.96 2.57-8.2 6.13-15.968 8.73-24.637l-6.98 11.286a98.2 98.2 0 0 1-2.69-2.516c3.39-16.104 11.11-29.744 18.97-43.656-13.19 7.368-23.29 19.088-33.47 34.028v-24.434l-20.93 25.53v-10.062l-30.2 32.201 1.25-12.875-25.29 26.49 3.07-23.907-29.25 27.094 4.78-36.417-20.33 15.663 6.6-32.933-19.75 15.375c-.47-.4-.99-.765-1.47-1.164l14.56-39.272-17.35 6.373 17.23-26.388-14.79 5.61 17.95-28.122-11.94 3.883-1.22-1.861 20.23-20.94c-.4-.637-.77-1.266-1.17-1.862a224.38 224.38 0 0 0-6.61.698 43.95 43.95 0 0 0-1.34-1.76l17.64-16.562c-32.62 13.206-115.75 145.962-131.904 207.814l10.086-9.561-16.897 37.446c.255.136.54.263.802.399l36.886-39.51c.599.569 1.226 1.096 1.823 1.665l-9.086 21.281a28.82 28.82 0 0 0 1.087 1.462l34.553-25.368 1.171.696-9.492 20.287 1.137 2.26 29.254-20.914-2.87 31.104 20.09-19.555 16.12 30.943c.92-.366 1.83-.696 2.74-1.029l-7.84-71.642 1.46-.298 43.3 146.499c4.77 17.923 4.02 37.878 5.78 56.864-.83.271-1.62.569-2.42.832l-4.05-5.779-3.13 41.601-2.68.034-2.43-6.476c-10.22 33.162-16.48 42.79-43.29 66.595 12.93 8.532 24.93 18.893 26.35 37.078 1.16 14.938 3.73 31.17-6.39 44.917l-5.49-18.849c-16.52-3.099-25.47 5.612-28.23 23.072-1.78-.765-2.55-.831-2.63-1.134-1.54-6.037-1.91-16.326-4.71-17.327-6.57-2.391-14.37-.567-21.634.198-1.371.17-2.764 3.118-3.675 5.083-2.341 4.979-4.42 10.091-7.577 17.494l-4.077-20.016c-8.948 0-17.262-.265-25.554.226-1.991.104-4.39 2.4-5.695 4.45-2.568 4.016-4.471 8.57-7.154 13.94-4.53-17.624-4.669-16.094-19.057-18.059-11.734-1.559-16.977 5.215-20.995 15.41-1.284-.662-2.108-.936-2.108-1.096.54-11.555-4.127-15.571-13.929-16.733-10.823-1.256-14.782-10.959-11.909-24.87 3.588-17.328 11.624-31.367 24.612-40.894 4.106-3.026 4.844-5.644 3.647-11.023-5.528-24.961-7.548-50.261-3.989-76.257l-5.441 7.8c-.685-28.648 4.843-53.974 13.616-78.611l-2.078-1.589-4.842 9.093c16.634-143.881 80.22-254.66 173.899-345.255l-5.34-.858-.59-1.861 33.84-16.436-12.33-2.822-.6-1.887 35.84-13.418-10.89-5.278-.23-2.788 43.13-6.671-9.8-7.87c8.95 0 15.98-.297 22.96.069 6.95.365 13.9 1.393 21.86.535l-7.81-5.414c.42-.594.89-1.198 1.34-1.793h38.88l-6.87-6.51c23.73 2.457 43.99-8.924 64.68-22.105-1.46-1.062-2.6-1.929-3.79-2.694-1.32-.858-2.68-1.623-5.93-3.553l43.82-13.078-20.57-7.335c21.74-8.031 42.47-10.92 64.49-9.527l-16.89-12.45c21.59-2.525 41.68.17 62.15 7.801l-7.49-12.944.8-2.03 41.77 20.252-4.82-10.784c6.86 2.523 13.28 5.277 19.83 7.163 7.83 2.261 15.29 1.428 22.73-3.118 39.2-24.135 80.76-30.11 124.17-20.813 14.16 3.016 28.49 4.981 42.54 8.43 27 6.603 49.68 22.208 67.48 46.912 2.96 4.114 5.73 5.108 10.08 4.25 17.41-3.289 26.33 3.918 29.27 24.297 1.05 7.402.51 15.17.39 22.811l-.94 45.476c0 7.868 2.65 14.575 8.27 19.817 21.07 19.853 24.1 77.15-1.43 102.188-2.07 2.056-3.2 6.076-3.82 9.424-4.42 23.737-15.83 43.122-32.25 52.956l3.17-24.435c.36-3.823.74-8.133-.35-11.591-1.76-5.541-14.01-6.637-17.34-1.794-19.09 27.723-30.76 58.701-30.74 94.819 0 1.521.06 3.084.23 4.581.03.492.48.927 1.51 2.617l20.31-19.351c1.76 19.156-3.2 34.427-13.65 47.21-4.05 4.946-7.18 9.254-8.17 16.631-1.23 8.797-7.78 14.04-14.9 15.698-21.97 5.048-43.79 4.351-64.64-6.239-9.8-4.98-16.3-14.472-20.85-25.301-15.62-36.908-31.82-73.63-41.23-113.531-3.69-15.603-7.05-31.734-1.42-48.765l-10.28 8.694c-.6-.467-1.2-.961-1.82-1.461l17.08-29.839-20.59 6.204 23.93-39.969-9.15-1.36 3.2-6.009-10.09-2.66v-6.442l-5.46 2.125c-.23-.459-.69-.925-.66-1.36.51-4.512 1.51-8.362-1.35-13.274-1.98-3.425-.45-10.096.34-15.17 2.12-13.249 4.88-26.329 9.29-38.813 1.12-3.119 4.07-5.576 6.59-7.701 8.38-7.206 13.33-20.387 26.15-20.846l-5.75-4.122c28.23-13.411 54.38-4.376 78.82 10.623 3.1-2.022 6.01-3.281 8.18-5.541 2.24-2.353 3.78-5.608 5.61-8.498 10.14 5.014 15.55 19.419 14.58 38.745 18.12-1.369 20.23-6.841 13.71-37.02 10.59 12.382 15.17 30.68 31.25 38.447l-11.26-34.164c.52-.662 1-1.36 1.51-2.056l21.23 16.929 14.32-8.065c-14.1-46.446-65.2-89.566-105.59-88.378l16.23 21.919c-64.83-52.257-125.99-33.97-187.3 11.082l20.14 21.68-1.37 2.193c-1.96-.994-4.08-1.76-5.9-3.026-8.52-6.008-16.78-12.443-25.44-18.118-5.67-3.724-11.63-7.208-17.77-9.468-20.14-7.437-35.55.798-42.82 23.838-10.68 33.858-8.06 66.663 8.81 97.267 4.22 7.673 9.34 14.71 14.18 21.909 4.3 6.374 6.41 12.518.09 18.925-1.12 1.165-1.66 3.052-3.03 5.61l9.46-1.658 1.2 1.497-12.05 10.087c.66.8 1.29 1.632 1.93 2.423l17.78-2.821-21.85 25.63 25.01-5.974-17.54 27.255 1.36 1.462 16.78-7.938c.38.468.72.926 1.05 1.395l-11.3 18.092 22.53-5.779.46 1.394-22.05 20.184 36.83-2.916.94 3.018-20.4 19.258 2.17 2.618 36.67-14.074-11.25 28.648c1.24.697 1.53.936 1.62.868 17.62-14.44 33.12-8.499 48.28 6.076 22.5 21.612 38.46 48.799 51.54 79.138l-17.89 26.16c-.52-.299-1.06-.561-1.57-.86l1.63-13.979c-10.46 16.3-21.2 32.005-37.3 44.124l4.04-18.527-36.14 39.672c-.72-.731-1.46-1.428-2.22-2.124l7.17-19.292-35.66 31.138-1.74-1.794 7.06-16.163-28.37 26.123c-2.7-6.806-6.15-12.279-6.98-18.253-3.62-25.599-6.41-51.324-9.57-77.023-.29-2.355-.83-4.649-2.62-7.139l-4.14 17.337-2.46.298-7.76-57.272-5.01 19.988c-6.5-17.227-8.23-33.926-9.89-51.459l-5.06 18.629c-7.16-17.065-8.93-34.861-10.29-53.516-5.27 17.992-2.17 55.012 8.97 82.76 10.28 25.631 22.68 50.098 35.13 77.15l-8.01-5.975 11.34 33.468-1.42.927-14.17-11.125-1.1.832c1.48 2.456 2.62 5.278 4.47 7.275 11.31 12.144 21.93 25.496 34.39 35.848 21.07 17.531 43.18 33.365 65.17 49.333 4.41 3.22 10.18 4.776 15.43 5.414 19.5 2.354 39.04 4.215 58.58 5.736 6.5.536 13.13.136 19.57-.858 24.87-3.748 42.19 9.527 55.82 32.201 1.95 3.289 5 6.043 8.02 8.031 22.22 14.448 36.15 46.913 31.85 78.183-7.75-19.721-18.38-33.863-34.21-41.826l-7.73 11.116c7.41 18.357 11.29 37.616 7.24 60.481-7.43-20.408-16.35-36.973-31.22-46.832l-15.89 13.112c4.52 16.893 6.98 35.023 2.68 56.226-5.62-19.984-14.31-34.751-25.56-45.673l-27.35 13.19v37.833l-18.09-32.127c-2.99-5.083-6.01-6.443-11.61-2.523-20.01 13.903-40.99 14.303-62.59 4.28-9.64-4.487-19.75-7.671-29.81-10.619-12.16-3.553-22.47-10.128-29.65-22.252-2.65-4.512-5.24-6.466-10.17-5.804-18.74 2.49-36.2-2.728-52.56-13.776-.37.663-.74 1.291-1.11 1.921zm393.18-432.765c-30.16-20.014-43.76-41.362-38.83-58.988 5.28 17.821 13.33 25.462 25.81 23.702 2.88-.4 6.95-1.964 8-4.452 1.26-2.882-.19-7.37-.48-11.186-1.99 1.531-4.75 2.559-5.81 4.718-2.94 6.008-7.29 6.866-12.11 5.345-7.46-2.397-10.7-9.196-11.96-17.566-1.11-7.565 3.27-11.185 8.03-14.04 3.48-2.056 7.16-4.453 10.88-4.878 11.68-1.3 23.45-1.725 33.34-2.363-16.62-18.986-38.29-24-62.51-16.633 6.61.835 13.37.664 19.97 1.728 6.5 1.027 12.83 3.356 19.21 5.115-.06.798-.18 1.589-.27 2.387-2.7.136-5.49-.102-8.14.502-9.43 2.091-18.92 3.986-28.15 6.97-2.59.865-4.35 5.175-6.58 8.004-5.98-2.098-13.24-5.948-20.79-7.104-19.6-2.991-36.21 12.543-42.99 45.705-1.83 8.966-.77 14.711 7.35 17.134.26.067.32 1.027.63 2.193-14.27 1.426-28.51 2.956-39.97 14.472 14.67-7.139 29.68-7.801 44.43-1.691 29.72 12.315 60.13 11.583 90.71 7.768 3.22-.365 6.13-3.987 10.23-6.842zm-82.87 87.739c1.25-15.994 4.44-30.202-3.3-44.014-8.64-15.373-17.66-22.674-30.34-20.847 15.69 23.005 17.29 48.832 11.42 76.088-.62-4.054-.51-8.133-.65-12.255-.63-19.215-3.36-38.006-14.02-53.311-16.55-23.806-18.4-20.949-31.31.432-.57.961-.91 2.16-1.42 3.384 9.06 13.113 13.3 28.317 14.33 44.787.54 8.533.43 17.125 1.34 25.589.33 3.153 2.53 8.303 4.35 8.635 5.96.995 6.1 5.574 6.47 10.487.94 12.986 3.68 16.767 14.99 20.456l12.28-20.354 2.28.501 2.58 27.621c15.82 3.977 23.51-5.116 18.18-22.776-3.79-12.578-4.88-24.731-1.08-37.412.97-3.186 1.08-6.738 1.8-11.557l-7.9 4.546zm-44.38 395.292c-.69-4.582-1.03-9.099-2-13.379-4.69-20.918-12.53-39.607-29.16-51.029-2.94-1.988-8.81-2.651-11.12-.561-7.4 6.706-5.21 18.424 2.96 23.669 7.04 4.546 14.2 9.458 20.05 15.762 6.98 7.502 12.69 16.666 19.27 25.538zm43.12-21.409c-3.24-22.951-10.28-43.433-26.49-58.067-3.21-2.889-7.09-5.15-10.97-6.647-5.86-2.183-7.94 3.061-9.11 8.235-1.17 5.211-4.76 12.051 1.99 15.077 18.69 8.295 33.57 21.807 44.58 41.402zm-97.16 30.838l1.91-.633c-3.64-11.763-6.04-24.338-11.34-34.958-4.25-8.501-11.77-14.977-18.52-21.445-1.82-1.759-7.03-1.597-8.98.23-6.26 5.804-3.81 18.589 3.26 22.831 5.97 3.552 12.02 7.539 17 12.717 6.13 6.349 11.17 14.087 16.67 21.239v.019zm130.36-59.764c-4.31-23.439-14.5-41.864-33.74-52.214-4.46-2.423-8.25-3.12-10.28 4.249-3.05 10.989-2.54 16.301 3.53 18.128 16.16 4.945 29.78 14.268 40.49 29.837zm51.7-428.71l1.17 3.689 24.49 10.648c10.29-12.144 15.19-30.467 13.51-51.017-7.97 2.091-7.69-5.915-9.37-11.754-6.12 5.941-5.47 7.768 5.95 16.497-4.41 15.305-15.27 21.084-27.23 25.666-3.08 1.188-5.67 4.146-8.52 6.271zm-73.73 13.64l-3.15 58.037c13.18-16.3 19.64-34.93 22.39-56.608l-19.24-1.429zm-83.38 40.641l-2.94 1.096c2.03 21.51 6.19 42.492 13.66 62.54l7.52 20.746c1.64 4.682 2.79 9.994 8.93 9.331l-2.16-26.227-4.73.264c-1.85-3.714-3.27-6.136-4.35-8.762-1.46-3.484-3.48-7.003-3.76-10.692-.31-4.044 1.05-8.26 1.67-12.347l-5.27-3.221 2.15-13.446c-5.45-.765-8.69-2.685-7.47-9.824.46-2.788-2.08-6.271-3.25-9.458zm164.95-31.445c-19.69 10.496-35.24 1.564-50.65-8.066v23.635c.65.467 1.3.901 1.99 1.334l7.43-13.377 3.96 12.212 6.87-6.373c1.74 10.395 5.89 3.654 8.92 2.388l4.24 5.549 5.47-4.121 5.12 9.798 6.65-22.979zm-107.6 113.77l-22.11 24.697c-3.82 4.352-3.39 11.524 1.01 16.037 4.83 5.014 9.22 3.655 12.29-2.354 6.04-11.652 8.63-24.502 8.81-38.38zm33.01-62.677c-1.11 1.062-2.99 1.963-3.19 3.187-2.41 15.867-5.04 31.675-1.42 47.94 1.83 8.168 2.25 16.794 3.47 26.558-.29-.034 1.57.23 3.28.494v-23.737c-.6-4.743 5.84-10.521-3.67-12.807.93-6.476 9.31-12.485-.92-18.757 11.37-5.881-.79-14.941 2.45-22.878zm79.74-54.145l-13.39 51.493 2.51 1.029c9.4-11.457 14.44-25.462 18.09-40.64 2.13-8.924-.63-11.711-7.21-11.882zm-79.74 144.043c1.41 1.427 4.39 3.255 5.67 6.111 1.4 3.085 1.17 7.139 1.65 10.758 11.2-2.523 22.94-19.784 23.22-32.506l-30.54 15.637zM989.757 982.243c2.844-10.818 5.097-22.24.881-33.59-1.028-2.686-6.096-5.839-8.116-4.98-4.332 1.826-6.331 6.374-3.537 12.447 3.844 8.437 7.125 17.271 10.772 26.123zM1632.75 675.84l-6.59 15.867c13.19 0 24.79.433 36.35-.196 5.73-.305 5.1-5.285 3.68-10.257-6.44 4.912-18.88 4.114-23.79-1.233l-4.25 3.987-5.4-8.168zm-13.22-272.022c-8.21-11.652-18.66-10.522-29.35-9.663 6.35 18.161 16.38 21.485 29.35 9.663zm126.85-43.292c.74-13.045 1.94-24.263-5.58-32.328-2.85-3.06-8.87-2.193-13.39-3.094l-.29 2.695 19.26 32.727zM947.079 981.988l1.824.766c.685-10.034 1.852-20.021 1.794-30.047-.03-2.957-3.304-6.239-5.696-8.532-.656-.664-4.558 1.129-5.01 2.625-.97 3.314-1.597 7.437-.774 10.68 2.137 8.343 5.186 16.336 7.862 24.508zm81.001-3.524c.8.066 1.58.17 2.39.236-1.08-10.232-1.71-20.615-3.62-30.642-.43-2.091-5.5-3.017-8.41-4.479-1.03 3.884-3.85 8.728-2.75 11.413 3.31 8.27 8.13 15.706 12.39 23.472zm-121.424 3.392c3.675-9.892 6.038-20.257 3.989-31.112-.482-2.583-4.529-4.276-6.95-6.4-1.568 3.612-4.93 7.666-4.39 10.819 1.568 8.902 4.674 17.462 7.351 26.693zm155.754-7.804l2.33-.028c-1.49-9.203-2.48-18.597-4.84-27.496-.54-2.056-6.73-4.377-8.64-3.119-3.73 2.525-5.01 6.969-.96 12.051 4.5 5.677 8.12 12.347 12.11 18.592zm674.26-451.654h-37.61c13.25 11.159 29.79 11.057 37.61 0zm-78.39 141.425l-24.08 4.912c2.82 8.601 11.34 11.789 26.09 9.161l-2.01-14.073zm-51.89 227.43c-6.35-22.571-17.83-30.637-42.56-30.535 17.15 4.547 32.82 11.847 42.56 30.535zm-44.41 18.332c-5.78-21.052-16.81-28.785-42.44-28.648 16.92 3.917 32.27 10.852 42.44 28.648zm-102.3.927c19.29 1.656 36.81 1.36 49.72 17.991-6.93-18.187-21.37-23.601-49.72-17.991zm28.73-310.233c.6.239 1.18.435 1.78.698l12.25-8.6-9.29-9.128-4.74 17.03zm361.75 292.768l5.53-29.108-17.58 4.708c.88 17.032 1.36 33.595-11.4 45.451-7.74 7.173-17.23 9.297-26.85 6.339l14.24-21.347c-11.97-5.61-21.97-11.72-32.63-14.805-8.85-2.525-18.62-3.051-27.74-1.76-24.7 3.553-46.16-1.921-63.59-24.169-2.62-3.383-7.68-4.479-11.81-5.839l-80.77-26.328c-6.38-2.193-12.18-6.502-19.97-10.784l7.5 12.645c-15.11-2.686-27.64-9.893-39.72-20.652l3.96 10.92c-7.97-1.188-10.34-3.646-28.55-30.041l-.64 10.861-26.93-44.022 39.89-33.766-.6 5.848c.54.525 1.11 1.096 1.62 1.623l35.95-38.074c10.72 24.892 28.98 38.804 53.51 41.065 23.07 2.09 46 3.451 61.01-23.575 3.39 3.722 6.89 7.309 10.15 11.159 4.92 5.872 9.71 9.322 17.71 7.367 4.62-1.13 11.31 1.692 15.19 5.38 7.2 6.868 14.44 6.307 22.07 3.45 7.18-2.685 14.13-6.339 21.14-9.662 4.33-2.056 8.55-4.614 12.96-6.468 20.94-8.864 34.47-.169 39.46 25.53 3.41.757 7.01 1.42 10.54 2.457 13.07 3.85 20.51 13.572 22.81 29.14.48 3.154 2.15 6.706 4.19 8.864 11.83 12.486 14.9 28.089 9.26 45.587-.93 2.983.09 7.462 1.34 10.623 9.06 22.666-.97 46.971-21.25 51.383zm-12.27-84.383c11.72-10.955 15.4-25.733 8.93-36.551-2.24-3.724-6.86-7.505-10.4-7.505-3.24 0-6.48 5.047-11.1 9.069 14.64 7.927 15.27 20.183 12.57 34.987zm12.41 36.282c12.42-7.93 18.43-20.644 14.82-31.574-1.49-4.478-4.42-9.951-7.78-11.38-2.45-1.062-6.75 3.783-11.25 6.639 10.97 11.218 8.74 23.073 4.21 36.315zm-54.87-105.799c9.92 12.977 6.3 24.432 3.48 37.376 8.83-8.728 15.81-16.794 15.16-29.277-.26-4.445-2.88-10.557-5.94-12.349-2.55-1.496-7.34 2.26-12.7 4.25zm17.92 176.608c2.03-1.258 5.56-3.018 8.66-5.506 6.67-5.278 10.37-12.553 9.88-22.275-.27-5.516-2.99-7.241-7.31-6.74-3.9.433-5.33 1.989-5.81 7.266-.89 9.196-3.54 18.196-5.42 27.255zm47.04-34.887c10.51-8.668 12.37-24.237 2.81-38.413l-7.74 6.281 4.93 32.132zm-133.12-102.187l2.33-.297c-2.82-9.459-5.15-19.223-8.72-28.317-1.65-4.181-6.15-6.502-9.68-1.657-2.68 3.68-4.73 8.235-.37 12.748l16.44 17.523zm-841.61 5.279l5.469-.791c.117-.034.284.332.569.662-4.244 25.259-4.813 50.695-1.079 76.25.401 2.727.116 6.247-1.058 8.499-11.274 21.05-26.662 36.62-46.571 45.78-.627.299-1.452.035-2.363.035l13.127-32.464-1.619-1.327c-13.878 23.134-32.934 35.814-57.663 39.868l11.624-18.655c-15.322 14.601-32.562 20.847-52.982 21.671l19.91-17.888c-26.035 2.786-52.048 3.848-72.928 24.569-15.869-46.284 8.606-139.266 44.581-173.831l-19.399 8.236c21.28-32.167 48.03-46.046 82.014-43.683l-9.458-11.685c43.303 17.889 79.65 7.105 108.508-33.696L885.66 783.96zm202.66-100.65l8.87 17.823 14.9-24.035c.45.137.87.298 1.33.434l-3.27 22.113 1.56 1.759 30.29-33.936c-.81 4.251-1.48 8.67-2.54 13.021-1.11 4.546-2.56 8.991-3.9 13.512l1.94 1.556 19.84-27.323.81 14.677c.45.196.93.366 1.4.527l6.95-17.456c-1.86 31.564-6.3 62.805-2.94 94.912l4.64-3.094c-1.22 34.793 2.91 67.725 14.7 100.062-29.7 7.998-59.13 7.964-90.13.859 24.78-59.583 11-117.348-4.45-175.411zm355.59-250.248l-14.53-6.374 3.24 10.792c-13.12-9.525-22.79-19.92-29.46-33.56-11.16-22.912-14.61-47.508-9.82-73.334 3.19-17.328 13.41-23.737 27.51-16.734 6.35 3.154 12.17 8.235 17.64 13.308 5.07 4.753 9.11 10.965 13.99 16.003 4.78 4.981 10.05 9.299 15.53 14.278h-9.69l4.27 8.066-8.48-2.023 5.46 21.281-20.39-4.42 11.93 22.479-13.7-5.278 10.19 16.929-11.27-3.322 7.58 21.909z"/></svg>